<?xml version="1.0" encoding="UTF-8" standalone="no"?>
<!-- Created with Inkscape (http://www.inkscape.org/) -->

<svg
   xmlns:ns0="http://www.iki.fi/pav/software/textext/"
   xmlns:dc="http://purl.org/dc/elements/1.1/"
   xmlns:cc="http://creativecommons.org/ns#"
   xmlns:rdf="http://www.w3.org/1999/02/22-rdf-syntax-ns#"
   xmlns:svg="http://www.w3.org/2000/svg"
   xmlns="http://www.w3.org/2000/svg"
   xmlns:sodipodi="http://sodipodi.sourceforge.net/DTD/sodipodi-0.dtd"
   xmlns:inkscape="http://www.inkscape.org/namespaces/inkscape"
   width="341.74567mm"
   height="150.97961mm"
   viewBox="0 0 341.74567 150.97961"
   version="1.1"
   id="svg8"
   inkscape:version="0.92.3 (2405546, 2018-03-11)"
   sodipodi:docname="IPK-Circuito.svg"
   inkscape:export-filename="C:\Users\Marcelo\Documents\GitHub\Electro4\TP2\Informe\Imagenes\Punto2\IPK-Circuito.png"
   inkscape:export-xdpi="600"
   inkscape:export-ydpi="600">
  <sodipodi:namedview
     id="base"
     pagecolor="#ffffff"
     bordercolor="#666666"
     borderopacity="1.0"
     inkscape:pageopacity="0.0"
     inkscape:pageshadow="2"
     inkscape:zoom="0.98994949"
     inkscape:cx="650.3776"
     inkscape:cy="294.0338"
     inkscape:document-units="mm"
     inkscape:current-layer="svg8"
     showgrid="false"
     inkscape:window-width="1920"
     inkscape:window-height="1001"
     inkscape:window-x="-9"
     inkscape:window-y="-9"
     inkscape:window-maximized="1"
     fit-margin-top="0"
     fit-margin-left="0"
     fit-margin-right="0"
     fit-margin-bottom="0" />
  <defs
     id="defs2">
    <inkscape:path-effect
       effect="spiro"
       id="path-effect1205"
       is_visible="true" />
    <marker
       inkscape:stockid="DotM"
       orient="auto"
       refY="0"
       refX="0"
       id="marker9568"
       style="overflow:visible"
       inkscape:isstock="true">
      <path
         id="path9566"
         d="m -2.5,-1 c 0,2.76 -2.24,5 -5,5 -2.76,0 -5,-2.24 -5,-5 0,-2.76 2.24,-5 5,-5 2.76,0 5,2.24 5,5 z"
         style="fill:#000000;fill-opacity:1;fill-rule:evenodd;stroke:#000000;stroke-width:1.00000003pt;stroke-opacity:1"
         transform="matrix(0.4,0,0,0.4,2.96,0.4)"
         inkscape:connector-curvature="0" />
    </marker>
    <marker
       inkscape:isstock="true"
       style="overflow:visible"
       id="marker9538"
       refX="0"
       refY="0"
       orient="auto"
       inkscape:stockid="DotM">
      <path
         transform="matrix(0.4,0,0,0.4,2.96,0.4)"
         style="fill:#000000;fill-opacity:1;fill-rule:evenodd;stroke:#000000;stroke-width:1.00000003pt;stroke-opacity:1"
         d="m -2.5,-1 c 0,2.76 -2.24,5 -5,5 -2.76,0 -5,-2.24 -5,-5 0,-2.76 2.24,-5 5,-5 2.76,0 5,2.24 5,5 z"
         id="path9536"
         inkscape:connector-curvature="0" />
    </marker>
    <inkscape:path-effect
       is_visible="true"
       id="path-effect9528"
       effect="spiro" />
    <inkscape:path-effect
       is_visible="true"
       id="path-effect9524"
       effect="spiro" />
    <inkscape:path-effect
       is_visible="true"
       id="path-effect8793"
       effect="spiro" />
    <marker
       inkscape:collect="always"
       inkscape:stockid="DotM"
       orient="auto"
       refY="0"
       refX="0"
       id="marker7220"
       style="overflow:visible"
       inkscape:isstock="true">
      <path
         id="path7218"
         d="m -2.5,-1 c 0,2.76 -2.24,5 -5,5 -2.76,0 -5,-2.24 -5,-5 0,-2.76 2.24,-5 5,-5 2.76,0 5,2.24 5,5 z"
         style="fill:#000000;fill-opacity:1;fill-rule:evenodd;stroke:#000000;stroke-width:1.00000003pt;stroke-opacity:1"
         transform="matrix(0.4,0,0,0.4,2.96,0.4)"
         inkscape:connector-curvature="0" />
    </marker>
    <marker
       inkscape:collect="always"
       inkscape:isstock="true"
       style="overflow:visible"
       id="marker6428"
       refX="0"
       refY="0"
       orient="auto"
       inkscape:stockid="DotM">
      <path
         transform="matrix(0.4,0,0,0.4,2.96,0.4)"
         style="fill:#000000;fill-opacity:1;fill-rule:evenodd;stroke:#000000;stroke-width:1.00000003pt;stroke-opacity:1"
         d="m -2.5,-1 c 0,2.76 -2.24,5 -5,5 -2.76,0 -5,-2.24 -5,-5 0,-2.76 2.24,-5 5,-5 2.76,0 5,2.24 5,5 z"
         id="path6426"
         inkscape:connector-curvature="0" />
    </marker>
    <inkscape:path-effect
       is_visible="true"
       id="path-effect6424"
       effect="spiro" />
    <inkscape:path-effect
       effect="spiro"
       id="path-effect5814"
       is_visible="true" />
    <inkscape:path-effect
       is_visible="true"
       id="path-effect5651"
       effect="spiro" />
    <inkscape:path-effect
       is_visible="true"
       id="path-effect5647"
       effect="spiro" />
    <marker
       inkscape:isstock="true"
       style="overflow:visible"
       id="DotM"
       refX="0"
       refY="0"
       orient="auto"
       inkscape:stockid="DotM">
      <path
         transform="matrix(0.4,0,0,0.4,2.96,0.4)"
         style="fill:#000000;fill-opacity:1;fill-rule:evenodd;stroke:#000000;stroke-width:1.00000003pt;stroke-opacity:1"
         d="m -2.5,-1 c 0,2.76 -2.24,5 -5,5 -2.76,0 -5,-2.24 -5,-5 0,-2.76 2.24,-5 5,-5 2.76,0 5,2.24 5,5 z"
         id="path5433"
         inkscape:connector-curvature="0" />
    </marker>
    <inkscape:path-effect
       is_visible="true"
       id="path-effect5367"
       effect="spiro" />
  </defs>
  <metadata
     id="metadata5">
    <rdf:RDF>
      <cc:Work
         rdf:about="">
        <dc:format>image/svg+xml</dc:format>
        <dc:type
           rdf:resource="http://purl.org/dc/dcmitype/StillImage" />
        <dc:title />
      </cc:Work>
    </rdf:RDF>
  </metadata>
  <g
     inkscape:label="Layer 1"
     inkscape:groupmode="layer"
     id="layer1"
     transform="translate(13.874985,-9.9993008)" />
  <g
     id="g4573"
     inkscape:label="OpAmp"
     transform="translate(16.54768,-16.413769)"
     inkscape:export-xdpi="600"
     inkscape:export-ydpi="600">
    <g
       id="g4571"
       inkscape:label="OpAmp">
      <path
         id="path4557"
         inkscape:label="none"
         style="fill:none;stroke:#000000;stroke-width:1;stroke-linecap:round;stroke-linejoin:round;stroke-dasharray:none"
         d="M 115,90 80,110 V 70 l 35,20"
         inkscape:connector-curvature="0" />
      <path
         id="path4559"
         inkscape:label="none"
         style="fill:none;stroke:#000000;stroke-width:1;stroke-linecap:round;stroke-linejoin:round;stroke-dasharray:none"
         d="M 80,100 H 72.5"
         inkscape:connector-curvature="0" />
      <path
         id="path4561"
         inkscape:label="none"
         style="fill:none;stroke:#000000;stroke-width:1;stroke-linecap:round;stroke-linejoin:round;stroke-dasharray:none"
         d="M 80,80 H 72.5"
         inkscape:connector-curvature="0" />
      <path
         id="path4563"
         inkscape:label="none"
         style="fill:none;stroke:#000000;stroke-width:1;stroke-linecap:round;stroke-linejoin:round;stroke-dasharray:none"
         d="m 115,90 h 7.5"
         inkscape:connector-curvature="0" />
      <path
         id="path4565"
         inkscape:label="none"
         style="fill:none;stroke:#000000;stroke-width:0.69999999;stroke-linecap:round;stroke-linejoin:round;stroke-dasharray:none"
         d="M 86,100 H 83"
         inkscape:connector-curvature="0" />
      <path
         id="path4567"
         inkscape:label="none"
         style="fill:none;stroke:#000000;stroke-width:0.69999999;stroke-linecap:round;stroke-linejoin:round;stroke-dasharray:none"
         d="m 84.5,101.5 v -3"
         inkscape:connector-curvature="0" />
      <path
         id="path4569"
         inkscape:label="none"
         style="fill:none;stroke:#000000;stroke-width:0.69999999;stroke-linecap:round;stroke-linejoin:round;stroke-dasharray:none"
         d="M 86,80 H 83"
         inkscape:connector-curvature="0" />
    </g>
  </g>
  <g
     transform="translate(59.04768,-16.413769)"
     inkscape:label="diode"
     id="g4611"
     inkscape:export-xdpi="600"
     inkscape:export-ydpi="600">
    <g
       id="g4609">
      <path
         inkscape:connector-curvature="0"
         d="M 80,90 H 99"
         style="fill:none;stroke:#000000;stroke-width:1;stroke-linecap:round;stroke-linejoin:round;stroke-dasharray:none"
         inkscape:label="none"
         id="path4601" />
      <path
         inkscape:connector-curvature="0"
         d="M 111,90 99,96 V 84 l 12,6"
         style="fill:none;stroke:#000000;stroke-width:1;stroke-linecap:round;stroke-linejoin:round;stroke-dasharray:none"
         inkscape:label="none"
         id="path4603" />
      <path
         inkscape:connector-curvature="0"
         d="m 111,90 h 19"
         style="fill:none;stroke:#000000;stroke-width:1;stroke-linecap:round;stroke-linejoin:round;stroke-dasharray:none"
         inkscape:label="none"
         id="path4605" />
      <path
         inkscape:connector-curvature="0"
         d="M 111,84 V 96"
         style="fill:none;stroke:#000000;stroke-width:1;stroke-linecap:round;stroke-linejoin:round;stroke-dasharray:none"
         inkscape:label="none"
         id="path4607" />
    </g>
  </g>
  <g
     id="g4661"
     inkscape:label="diode"
     transform="translate(11.05601,-26.41377)"
     inkscape:export-xdpi="600"
     inkscape:export-ydpi="600">
    <g
       id="g4659">
      <path
         id="path4651"
         inkscape:label="none"
         style="fill:none;stroke:#000000;stroke-width:1;stroke-linecap:round;stroke-linejoin:round;stroke-dasharray:none"
         d="m 160,100 h 19"
         inkscape:connector-curvature="0" />
      <path
         id="path4653"
         inkscape:label="none"
         style="fill:none;stroke:#000000;stroke-width:1;stroke-linecap:round;stroke-linejoin:round;stroke-dasharray:none"
         d="m 191,100 -12,6 V 94 l 12,6"
         inkscape:connector-curvature="0" />
      <path
         id="path4655"
         inkscape:label="none"
         style="fill:none;stroke:#000000;stroke-width:1;stroke-linecap:round;stroke-linejoin:round;stroke-dasharray:none"
         d="m 191,100 h 19"
         inkscape:connector-curvature="0" />
      <path
         id="path4657"
         inkscape:label="none"
         style="fill:none;stroke:#000000;stroke-width:1;stroke-linecap:round;stroke-linejoin:round;stroke-dasharray:none"
         d="m 191,94 v 12"
         inkscape:connector-curvature="0" />
    </g>
  </g>
  <g
     transform="translate(54.024247,-26.41738)"
     id="g4796"
     inkscape:label="Resistor"
     inkscape:export-xdpi="600"
     inkscape:export-ydpi="600">
    <g
       id="g4788">
      <path
         inkscape:connector-curvature="0"
         id="path4786"
         inkscape:label="none"
         style="fill:none;stroke:#000000;stroke-width:1;stroke-linecap:round;stroke-linejoin:round;stroke-dasharray:none"
         d="m 160,100 h 15.5 l 2,3 3,-6 3,6 3,-6 3,6 3,-6 2,3 H 210" />
    </g>
    <g
       style="font-style:normal;font-variant:normal;font-weight:normal;font-stretch:normal;letter-spacing:normal;word-spacing:normal;text-anchor:start;fill:none;fill-opacity:1;fill-rule:evenodd;stroke:#000000;stroke-linecap:butt;stroke-linejoin:miter;stroke-miterlimit:10.43299961;stroke-dasharray:none;stroke-dashoffset:0;stroke-opacity:1"
       transform="matrix(0.739645,0,0,-0.739645,14.929727,616.52911)"
       ns0:preamble="C:\\Program Files\\Inkscape\\share\\extensions/textextLib/CircuitSymbolsLatexPreamble.tex"
       ns0:text=" $2R$"
       word-spacing="normal"
       letter-spacing="normal"
       font-size-adjust="none"
       font-stretch="normal"
       font-weight="normal"
       font-variant="normal"
       font-style="normal"
       stroke-miterlimit="10.433"
       xml:space="preserve"
       id="g4794">
<path
   inkscape:connector-curvature="0"
   id="path4790"
   style="fill:#000000;stroke-width:0"
   d="m 224.7,707.89 1.06,1.02 c 1.55,1.37 2.15,1.91 2.15,2.9 0,1.14 -0.9,1.93 -2.12,1.93 -1.12,0 -1.86,-0.91 -1.86,-1.8 0,-0.55 0.5,-0.55 0.53,-0.55 0.17,0 0.52,0.12 0.52,0.52 0,0.26 -0.18,0.52 -0.53,0.52 -0.08,0 -0.1,0 -0.13,-0.01 0.23,0.65 0.77,1.01 1.35,1.01 0.9,0 1.33,-0.8 1.33,-1.62 0,-0.79 -0.5,-1.58 -1.04,-2.19 l -1.92,-2.13 c -0.11,-0.11 -0.11,-0.13 -0.11,-0.36 h 3.7 l 0.28,1.72 h -0.25 c -0.05,-0.3 -0.12,-0.73 -0.22,-0.88 -0.07,-0.08 -0.73,-0.08 -0.95,-0.08 z" />
<path
   inkscape:connector-curvature="0"
   id="path4792"
   style="fill:#000000;stroke-width:0"
   d="m 233.59,710.5 0.09,0.02 0.1,0.03 0.1,0.03 0.09,0.03 0.1,0.03 0.09,0.03 0.1,0.04 0.1,0.04 0.09,0.05 0.09,0.04 0.1,0.05 0.09,0.05 0.08,0.05 0.09,0.06 0.08,0.06 0.08,0.06 0.08,0.06 0.08,0.06 0.07,0.07 0.06,0.07 0.07,0.07 0.06,0.07 0.05,0.08 0.05,0.08 0.05,0.08 0.04,0.08 0.03,0.08 0.03,0.09 0.02,0.09 0.02,0.09 0.01,0.09 v 0.09 c 0,0.85 -0.9,1.49 -2.2,1.49 h -2.84 c -0.2,0 -0.29,0 -0.29,-0.2 0,-0.11 0.09,-0.11 0.28,-0.11 0.02,0 0.21,0 0.37,-0.02 0.19,-0.02 0.28,-0.03 0.28,-0.16 0,-0.04 -0.01,-0.07 -0.04,-0.19 L 230,707.9 c -0.1,-0.39 -0.12,-0.47 -0.91,-0.47 -0.18,0 -0.27,0 -0.27,-0.2 0,-0.1 0.12,-0.1 0.14,-0.1 0.28,0 0.98,0.03 1.26,0.03 0.28,0 0.99,-0.03 1.26,-0.03 0.08,0 0.2,0 0.2,0.19 0,0.11 -0.09,0.11 -0.28,0.11 -0.36,0 -0.64,0 -0.64,0.18 0,0.06 0.02,0.11 0.03,0.17 l 0.66,2.63 h 1.18 l -0.01,0.22 h -1.12 l 0.65,2.59 c 0.06,0.24 0.09,0.34 0.28,0.37 0.09,0.01 0.41,0.01 0.61,0.01 0.71,0 1.81,0 1.81,-0.98 0,-0.34 -0.15,-1.03 -0.54,-1.41 -0.26,-0.26 -0.79,-0.58 -1.69,-0.58 l 0.01,-0.22 c 0.91,0 1.09,-0.55 1.09,-0.9 0,-0.15 -0.08,-0.46 -0.14,-0.69 -0.07,-0.27 -0.16,-0.64 -0.16,-0.84 0,-1.07 1.2,-1.07 1.32,-1.07 0.85,0 1.2,1 1.2,1.14 0,0.12 -0.11,0.12 -0.12,0.12 -0.09,0 -0.11,-0.07 -0.13,-0.14 -0.25,-0.74 -0.68,-0.9 -0.9,-0.9 -0.33,0 -0.4,0.21 -0.4,0.6 0,0.31 0.06,0.82 0.1,1.13 0.02,0.14 0.04,0.33 0.04,0.47 0,0.76 -0.67,1.07 -0.94,1.17 z" />
</g>  </g>
  <g
     transform="rotate(90,225.22082,138.80343)"
     inkscape:label="Resistor"
     id="g4880"
     inkscape:export-xdpi="600"
     inkscape:export-ydpi="600">
    <g
       id="g4874">
      <path
         inkscape:connector-curvature="0"
         d="m 160,100 h 15.5 l 2,3 3,-6 3,6 3,-6 3,6 3,-6 2,3 H 210"
         style="fill:none;stroke:#000000;stroke-width:1;stroke-linecap:round;stroke-linejoin:round;stroke-dasharray:none"
         inkscape:label="none"
         id="path4872" />
    </g>
    <g
       style="font-style:normal;font-variant:normal;font-weight:normal;font-stretch:normal;letter-spacing:normal;word-spacing:normal;text-anchor:start;fill:none;fill-opacity:1;fill-rule:evenodd;stroke:#000000;stroke-linecap:butt;stroke-linejoin:miter;stroke-miterlimit:10.43299961;stroke-dasharray:none;stroke-dashoffset:0;stroke-opacity:1"
       id="g4878"
       xml:space="preserve"
       stroke-miterlimit="10.433"
       font-style="normal"
       font-variant="normal"
       font-weight="normal"
       font-stretch="normal"
       font-size-adjust="none"
       letter-spacing="normal"
       word-spacing="normal"
       ns0:text=" $R$"
       ns0:preamble="C:\\Program Files\\Inkscape\\share\\extensions/textextLib/CircuitSymbolsLatexPreamble.tex"
       transform="matrix(0.739645,0,0,-0.739645,16.804727,616.52911)">
<path
   inkscape:connector-curvature="0"
   d="m 227.30999,711.62001 -0.02,0.09 -0.03,0.1 -0.03,0.09 -0.03,0.1 -0.03,0.1 -0.03,0.09 -0.04,0.1 -0.04,0.1 -0.05,0.09 -0.04,0.09 -0.05,0.09 -0.05,0.09 -0.05,0.09 -0.06,0.09 -0.06,0.08 -0.06,0.08 -0.06,0.08 -0.06,0.07 -0.07,0.08 -0.07,0.06 -0.07,0.07 -0.07,0.06 -0.08,0.05 -0.08,0.05 -0.08,0.05 -0.08,0.03 -0.08,0.04 -0.09,0.03 -0.09,0.02 -0.09,0.02 -0.09,0.01 h -0.09 c -0.85,0 -1.49,-0.9 -1.49,-2.2 v -2.84 c 0,-0.2 0,-0.29 0.2,-0.29 0.11,0 0.11,0.09 0.11,0.28 0,0.01 0,0.21 0.02,0.38 0.02,0.17 0.03,0.26 0.16,0.26 0.04,0 0.07,-0.01 0.19,-0.04 l 5.33,-1.33 c 0.39,-0.1 0.47,-0.12 0.47,-0.91 0,-0.18 0,-0.27 0.2,-0.27 0.1,0 0.1,0.12 0.1,0.14 0,0.28 -0.03,0.98 -0.03,1.26 0,0.28 0.03,0.98 0.03,1.26 0,0.08 0,0.2 -0.19,0.2 -0.11,0 -0.11,-0.09 -0.11,-0.28 0,-0.37 0,-0.65 -0.18,-0.65 -0.06,0 -0.11,0.02 -0.17,0.03 l -2.63,0.66 v 1.19 l -0.22,-0.01 v -1.12 l -2.59,0.65 c -0.24,0.06 -0.34,0.09 -0.37,0.28 -0.01,0.09 -0.01,0.41 -0.01,0.61 0,0.71 0,1.81 0.98,1.81 0.34,0 1.03,-0.16 1.41,-0.55 0.26,-0.25 0.58,-0.78 0.58,-1.68 l 0.22,0.01 c 0,0.91 0.55,1.09 0.9,1.09 0.15,0 0.46,-0.08 0.69,-0.14 0.27,-0.07 0.64,-0.16 0.84,-0.16 1.07,0 1.07,1.19 1.07,1.32 0,0.85 -1,1.2 -1.14,1.2 -0.12,0 -0.12,-0.11 -0.12,-0.12 0,-0.09 0.07,-0.11 0.14,-0.13 0.74,-0.25 0.9,-0.68 0.9,-0.91 0,-0.32 -0.21,-0.4 -0.6,-0.4 -0.31,0 -0.82,0.06 -1.13,0.11 -0.14,0.01 -0.33,0.03 -0.47,0.03 -0.76,0 -1.07,-0.66 -1.17,-0.93 z"
   style="fill:#000000;stroke-width:0"
   id="path4876" />
</g>  </g>
  <g
     id="g4970"
     transform="translate(114.02424,3.5826192)"
     inkscape:label="GND"
     inkscape:export-xdpi="600"
     inkscape:export-ydpi="600">
    <g
       id="g4968"
       inkscape:label="GND">
      <path
         id="path4960"
         inkscape:label="none"
         style="fill:none;stroke:#000000;stroke-width:1;stroke-linecap:round;stroke-linejoin:round;stroke-dasharray:none"
         d="m 150,120 v 10"
         inkscape:connector-curvature="0" />
      <path
         id="path4962"
         inkscape:label="none"
         style="fill:none;stroke:#000000;stroke-width:1;stroke-linecap:round;stroke-linejoin:round;stroke-dasharray:none"
         d="M 157,130 H 143"
         inkscape:connector-curvature="0" />
      <path
         id="path4964"
         inkscape:label="none"
         style="fill:none;stroke:#000000;stroke-width:1;stroke-linecap:round;stroke-linejoin:round;stroke-dasharray:none"
         d="m 153.5,132 h -7"
         inkscape:connector-curvature="0" />
      <path
         id="path4966"
         inkscape:label="none"
         style="fill:none;stroke:#000000;stroke-width:1;stroke-linecap:round;stroke-linejoin:round;stroke-dasharray:none"
         d="m 151,134 h -2"
         inkscape:connector-curvature="0" />
    </g>
  </g>
  <g
     transform="rotate(180,287.01212,65.139917)"
     inkscape:label="diode"
     id="g5066"
     inkscape:export-xdpi="600"
     inkscape:export-ydpi="600">
    <g
       id="g5064">
      <path
         inkscape:connector-curvature="0"
         d="m 260,90 h 19"
         style="fill:none;stroke:#000000;stroke-width:1;stroke-linecap:round;stroke-linejoin:round;stroke-dasharray:none"
         inkscape:label="none"
         id="path5056" />
      <path
         inkscape:connector-curvature="0"
         d="m 291,90 -12,6 V 84 l 12,6"
         style="fill:none;stroke:#000000;stroke-width:1;stroke-linecap:round;stroke-linejoin:round;stroke-dasharray:none"
         inkscape:label="none"
         id="path5058" />
      <path
         inkscape:connector-curvature="0"
         d="m 291,90 h 19"
         style="fill:none;stroke:#000000;stroke-width:1;stroke-linecap:round;stroke-linejoin:round;stroke-dasharray:none"
         inkscape:label="none"
         id="path5060" />
      <path
         inkscape:connector-curvature="0"
         d="m 293,97 -2,-2 V 85 l -2,-2"
         style="fill:none;stroke:#000000;stroke-width:1;stroke-linecap:round;stroke-linejoin:round;stroke-dasharray:none"
         inkscape:label="none"
         id="path5062" />
    </g>
  </g>
  <g
     id="g5174"
     transform="translate(54.02424,-49.720166)"
     inkscape:label="GND"
     inkscape:export-xdpi="600"
     inkscape:export-ydpi="600">
    <g
       id="g5172"
       inkscape:label="GND">
      <path
         id="path5164"
         inkscape:label="none"
         style="fill:none;stroke:#000000;stroke-width:1;stroke-linecap:round;stroke-linejoin:round;stroke-dasharray:none"
         d="m 260,90 v 10"
         inkscape:connector-curvature="0" />
      <path
         id="path5166"
         inkscape:label="none"
         style="fill:none;stroke:#000000;stroke-width:1;stroke-linecap:round;stroke-linejoin:round;stroke-dasharray:none"
         d="M 267,100 H 253"
         inkscape:connector-curvature="0" />
      <path
         id="path5168"
         inkscape:label="none"
         style="fill:none;stroke:#000000;stroke-width:1;stroke-linecap:round;stroke-linejoin:round;stroke-dasharray:none"
         d="m 263.5,102 h -7"
         inkscape:connector-curvature="0" />
      <path
         id="path5170"
         inkscape:label="none"
         style="fill:none;stroke:#000000;stroke-width:1;stroke-linecap:round;stroke-linejoin:round;stroke-dasharray:none"
         d="m 261,104 h -2"
         inkscape:connector-curvature="0" />
    </g>
  </g>
  <g
     transform="translate(38.738533,3.5826202)"
     inkscape:label="OpAmp"
     id="g5300"
     inkscape:export-xdpi="600"
     inkscape:export-ydpi="600">
    <g
       inkscape:label="OpAmp"
       id="g5298">
      <path
         inkscape:connector-curvature="0"
         d="m 295,80 -35,20 V 60 l 35,20"
         style="fill:none;stroke:#000000;stroke-width:1;stroke-linecap:round;stroke-linejoin:round;stroke-dasharray:none"
         inkscape:label="none"
         id="path5284" />
      <path
         inkscape:connector-curvature="0"
         d="m 260,90 h -7.5"
         style="fill:none;stroke:#000000;stroke-width:1;stroke-linecap:round;stroke-linejoin:round;stroke-dasharray:none"
         inkscape:label="none"
         id="path5286" />
      <path
         inkscape:connector-curvature="0"
         d="m 260,70 h -7.5"
         style="fill:none;stroke:#000000;stroke-width:1;stroke-linecap:round;stroke-linejoin:round;stroke-dasharray:none"
         inkscape:label="none"
         id="path5288" />
      <path
         inkscape:connector-curvature="0"
         d="m 295,80 h 7.5"
         style="fill:none;stroke:#000000;stroke-width:1;stroke-linecap:round;stroke-linejoin:round;stroke-dasharray:none"
         inkscape:label="none"
         id="path5290" />
      <path
         inkscape:connector-curvature="0"
         d="m 266,90 h -3"
         style="fill:none;stroke:#000000;stroke-width:0.69999999;stroke-linecap:round;stroke-linejoin:round;stroke-dasharray:none"
         inkscape:label="none"
         id="path5292" />
      <path
         inkscape:connector-curvature="0"
         d="m 264.5,91.5 v -3"
         style="fill:none;stroke:#000000;stroke-width:0.69999999;stroke-linecap:round;stroke-linejoin:round;stroke-dasharray:none"
         inkscape:label="none"
         id="path5294" />
      <path
         inkscape:connector-curvature="0"
         d="m 266,70 h -3"
         style="fill:none;stroke:#000000;stroke-width:0.69999999;stroke-linecap:round;stroke-linejoin:round;stroke-dasharray:none"
         inkscape:label="none"
         id="path5296" />
    </g>
  </g>
  <path
     inkscape:original-d="m 264.02425,73.582617 h 27.49174"
     inkscape:path-effect="#path-effect5367"
     inkscape:connector-curvature="0"
     id="path5365"
     d="m 264.02425,73.582617 h 27.49174"
     style="fill:none;stroke:#000000;stroke-width:1;stroke-linecap:butt;stroke-linejoin:miter;stroke-miterlimit:4;stroke-dasharray:none;stroke-opacity:1;marker-start:url(#DotM)"
     inkscape:export-xdpi="600"
     inkscape:export-ydpi="600" />
  <g
     id="g5733"
     transform="rotate(-180,316.9178,54.942303)"
     inkscape:label="GND"
     inkscape:export-xdpi="600"
     inkscape:export-ydpi="600">
    <g
       transform="matrix(-0.739645,0,0,0.739645,514.40896,-445.2487)"
       ns0:preamble="C:\\Program Files\\Inkscape\\share\\extensions/textextLib/CircuitSymbolsLatexPreamble.tex"
       ns0:text=" $1V$"
       word-spacing="normal"
       letter-spacing="normal"
       font-size-adjust="none"
       font-stretch="normal"
       font-weight="normal"
       font-variant="normal"
       font-style="normal"
       stroke-miterlimit="10.433"
       xml:space="preserve"
       id="content"
       style="font-style:normal;font-variant:normal;font-weight:normal;font-stretch:normal;letter-spacing:normal;word-spacing:normal;text-anchor:start;fill:none;fill-opacity:1;fill-rule:evenodd;stroke:#000000;stroke-linecap:butt;stroke-linejoin:miter;stroke-miterlimit:10.43299961;stroke-dasharray:none;stroke-dashoffset:0;stroke-opacity:1">
<path
   id="path5728"
   style="fill:#000000;stroke-width:0"
   d="m 226.36,713.48 v 0.01 0.01 0.02 0.01 0 0.01 0.01 0.01 0.01 0.01 0.01 0.01 0 0.01 0.01 0 0.01 0.01 0.01 l -0.01,0.01 v 0.01 0.01 l -0.01,0.01 v 0 0.01 l -0.01,0.01 h -0.01 v 0.01 h -0.01 l -0.01,0.01 h -0.01 v 0 h -0.01 v 0 h -0.01 v 0 l -0.01,0.01 h -0.01 v 0 h -0.01 -0.01 v 0 h -0.01 -0.01 -0.01 -0.01 -0.01 -0.01 -0.01 -0.01 -0.01 -0.01 c -0.61,-0.64 -1.49,-0.64 -1.81,-0.64 v -0.3 c 0.2,0 0.79,0 1.31,0.25 v -5.14 c 0,-0.36 -0.03,-0.48 -0.93,-0.48 h -0.32 v -0.3 c 0.35,0.03 1.22,0.03 1.61,0.03 0.4,0 1.27,0 1.62,-0.03 v 0.3 h -0.32 c -0.9,0 -0.93,0.11 -0.93,0.48 z"
   inkscape:connector-curvature="0" />
<path
   id="path5730"
   style="fill:#000000;stroke-width:0"
   d="m 234.68,712.78 0.04,0.07 0.05,0.06 0.04,0.07 0.05,0.05 0.04,0.06 0.04,0.05 0.05,0.05 0.04,0.04 0.04,0.04 0.04,0.04 0.05,0.03 0.04,0.03 0.04,0.03 0.04,0.03 0.04,0.02 0.04,0.02 0.04,0.02 0.04,0.02 0.04,0.01 0.03,0.02 0.04,0.01 0.04,0.01 0.04,0.01 h 0.04 l 0.03,0.01 h 0.04 l 0.07,0.01 0.07,0.01 h 0.07 c 0.12,0.01 0.13,0.18 0.13,0.19 0,0.08 -0.05,0.12 -0.13,0.12 -0.26,0 -0.55,-0.03 -0.82,-0.03 -0.33,0 -0.66,0.03 -0.98,0.03 -0.06,0 -0.19,0 -0.19,-0.19 0,-0.11 0.09,-0.12 0.16,-0.12 0.27,-0.02 0.46,-0.12 0.46,-0.33 0,-0.14 -0.15,-0.36 -0.15,-0.37 l -3.06,-4.85 -0.68,5.25 c 0,0.17 0.23,0.3 0.69,0.3 0.13,0 0.24,0 0.24,0.2 0,0.09 -0.08,0.11 -0.14,0.11 -0.39,0 -0.82,-0.03 -1.23,-0.03 -0.18,0 -0.37,0.01 -0.55,0.01 -0.18,0 -0.37,0.02 -0.54,0.02 -0.07,0 -0.19,0 -0.19,-0.19 0,-0.12 0.09,-0.12 0.25,-0.12 0.56,0 0.57,-0.09 0.6,-0.34 l 0.79,-6.12 c 0.03,-0.2 0.07,-0.23 0.2,-0.23 0.16,0 0.2,0.05 0.28,0.18 z"
   inkscape:connector-curvature="0" />
</g>    <path
       style="fill:none;stroke:#000000;stroke-width:1;stroke-linecap:butt;stroke-linejoin:miter;stroke-miterlimit:4;stroke-dasharray:none;stroke-opacity:1"
       d="m 342.59707,16.30199 v -53.83295 h 55.36311"
       id="path5812"
       inkscape:connector-curvature="0"
       inkscape:path-effect="#path-effect5814"
       inkscape:original-d="m 342.59707,16.30199 v -53.83295 h 55.36311" />
  </g>
  <g
     id="g6105"
     transform="rotate(-180,194.52384,49.311717)"
     inkscape:label="Source"
     inkscape:export-xdpi="600"
     inkscape:export-ydpi="600">
    <g
       id="g6095"
       inkscape:label="Source">
      <path
         id="path6087"
         inkscape:label="none"
         style="fill:none;stroke:#000000;stroke-width:1;stroke-linecap:round;stroke-linejoin:round;stroke-dasharray:none"
         d="m 200,60 h 18"
         inkscape:connector-curvature="0" />
      <path
         id="path6089"
         inkscape:label="none"
         style="fill:none;stroke:#000000;stroke-width:1;stroke-linecap:round;stroke-linejoin:round;stroke-dasharray:none"
         d="M 250,60 H 232"
         inkscape:connector-curvature="0" />
      <circle
         id="path6091"
         inkscape:label="circle"
         style="fill:none;stroke:#000000;stroke-width:1;stroke-linecap:round;stroke-linejoin:round;stroke-dasharray:none"
         cx="225"
         cy="60"
         r="7" />
      <path
         id="path6093"
         inkscape:label="none"
         style="fill:#000000;stroke:#000000;stroke-width:0.69999999;stroke-linecap:round;stroke-linejoin:round;stroke-dasharray:none"
         d="m 221,60 h 5 v 1.2 l 3,-1.2 -3,-1.2 V 60"
         inkscape:connector-curvature="0" />
    </g>
    <g
       transform="matrix(-0.739645,0,0,0.739645,398.32471,-477.47921)"
       ns0:preamble="C:\\Program Files\\Inkscape\\share\\extensions/textextLib/CircuitSymbolsLatexPreamble.tex"
       ns0:text=" $1mA$"
       word-spacing="normal"
       letter-spacing="normal"
       font-size-adjust="none"
       font-stretch="normal"
       font-weight="normal"
       font-variant="normal"
       font-style="normal"
       stroke-miterlimit="10.433"
       xml:space="preserve"
       id="g6103"
       style="font-style:normal;font-variant:normal;font-weight:normal;font-stretch:normal;letter-spacing:normal;word-spacing:normal;text-anchor:start;fill:none;fill-opacity:1;fill-rule:evenodd;stroke:#000000;stroke-linecap:butt;stroke-linejoin:miter;stroke-miterlimit:10.43299961;stroke-dasharray:none;stroke-dashoffset:0;stroke-opacity:1">
<path
   id="path6097"
   style="fill:#000000;stroke-width:0"
   d="m 226.36,713.48 v 0.01 0.01 0.02 0.01 0 0.01 0.01 0.01 0.01 0.01 0.01 0.01 0 0.01 0.01 0 0.01 0.01 0.01 l -0.01,0.01 v 0.01 0.01 l -0.01,0.01 v 0 0.01 l -0.01,0.01 h -0.01 v 0.01 h -0.01 l -0.01,0.01 h -0.01 v 0 h -0.01 v 0 h -0.01 v 0 l -0.01,0.01 h -0.01 v 0 h -0.01 -0.01 v 0 h -0.01 -0.01 -0.01 -0.01 -0.01 -0.01 -0.01 -0.01 -0.01 -0.01 c -0.61,-0.64 -1.49,-0.64 -1.81,-0.64 v -0.3 c 0.2,0 0.79,0 1.31,0.25 v -5.14 c 0,-0.36 -0.03,-0.48 -0.93,-0.48 h -0.32 v -0.3 c 0.35,0.03 1.22,0.03 1.61,0.03 0.4,0 1.27,0 1.62,-0.03 v 0.3 h -0.32 c -0.9,0 -0.93,0.11 -0.93,0.48 z"
   inkscape:connector-curvature="0" />
<path
   id="path6099"
   style="fill:#000000;stroke-width:0"
   d="m 229.29,707.71 v -0.01 -0.02 l -0.01,-0.01 v -0.02 l -0.01,-0.03 -0.01,-0.03 v -0.03 l -0.01,-0.04 -0.01,-0.03 -0.01,-0.03 v -0.01 -0.02 l -0.01,-0.01 v -0.02 -0.01 -0.01 l -0.01,-0.02 v -0.01 -0.01 -0.01 -0.01 l -0.01,-0.01 v -0.01 0 -0.01 -0.01 c 0,-0.18 0.14,-0.26 0.29,-0.26 0.12,0 0.3,0.07 0.37,0.27 0.01,0.02 0.13,0.49 0.19,0.74 l 0.22,0.89 c 0.06,0.22 0.12,0.44 0.17,0.67 0.04,0.17 0.12,0.46 0.13,0.5 0.15,0.3 0.67,1.21 1.62,1.21 0.45,0 0.54,-0.37 0.54,-0.7 0,-0.25 -0.07,-0.52 -0.15,-0.82 l -0.28,-1.15 -0.2,-0.76 c -0.04,-0.2 -0.13,-0.54 -0.13,-0.59 0,-0.18 0.14,-0.26 0.29,-0.26 0.31,0 0.37,0.24 0.45,0.56 0.14,0.56 0.51,2.01 0.6,2.4 0.03,0.12 0.56,1.32 1.65,1.32 0.42,0 0.53,-0.34 0.53,-0.7 0,-0.56 -0.42,-1.7 -0.61,-2.22 -0.09,-0.24 -0.14,-0.35 -0.14,-0.55 0,-0.47 0.35,-0.81 0.82,-0.81 0.94,0 1.31,1.45 1.31,1.53 0,0.1 -0.09,0.1 -0.12,0.1 -0.1,0 -0.1,-0.04 -0.15,-0.18 -0.15,-0.53 -0.47,-1.24 -1.02,-1.24 -0.17,0 -0.24,0.1 -0.24,0.33 0,0.25 0.09,0.49 0.18,0.71 0.19,0.51 0.61,1.62 0.61,2.18 0,0.65 -0.4,1.07 -1.14,1.07 -0.75,0 -1.26,-0.44 -1.63,-0.97 -0.01,0.13 -0.04,0.47 -0.32,0.71 -0.25,0.21 -0.57,0.26 -0.82,0.26 -0.9,0 -1.38,-0.64 -1.55,-0.87 -0.05,0.57 -0.47,0.87 -0.92,0.87 -0.46,0 -0.65,-0.39 -0.74,-0.57 -0.18,-0.35 -0.31,-0.93 -0.31,-0.96 0,-0.1 0.1,-0.1 0.12,-0.1 0.1,0 0.11,0.01 0.17,0.22 0.17,0.71 0.37,1.19 0.73,1.19 0.16,0 0.31,-0.08 0.31,-0.46 0,-0.21 -0.03,-0.32 -0.16,-0.83 z"
   inkscape:connector-curvature="0" />
<path
   id="path6101"
   style="fill:#000000;stroke-width:0"
   d="m 238.95,708.27 -0.04,-0.06 -0.04,-0.06 -0.04,-0.06 -0.03,-0.05 -0.04,-0.05 -0.04,-0.04 -0.04,-0.05 -0.03,-0.04 -0.04,-0.04 -0.04,-0.04 -0.04,-0.03 -0.03,-0.03 -0.04,-0.03 -0.04,-0.03 -0.04,-0.02 -0.03,-0.03 -0.04,-0.02 -0.04,-0.02 -0.04,-0.02 -0.04,-0.02 -0.03,-0.01 -0.04,-0.01 -0.04,-0.02 -0.04,-0.01 -0.04,-0.01 -0.04,-0.01 h -0.04 l -0.04,-0.01 -0.08,-0.01 -0.08,-0.01 c -0.12,-0.01 -0.21,-0.01 -0.21,-0.2 0,-0.06 0.05,-0.1 0.13,-0.1 0.27,0 0.58,0.03 0.86,0.03 0.33,0 0.67,-0.03 0.99,-0.03 0.06,0 0.19,0 0.19,0.18 0,0.11 -0.09,0.12 -0.16,0.12 -0.23,0.02 -0.47,0.1 -0.47,0.35 0,0.12 0.07,0.23 0.14,0.37 l 0.76,1.27 h 2.51 l -0.03,0.31 h -2.29 l 1.97,3.28 0.32,-3.28 0.03,-0.31 c 0.02,-0.21 0.16,-1.56 0.16,-1.66 0,-0.3 -0.52,-0.33 -0.72,-0.33 -0.14,0 -0.24,0 -0.24,-0.2 0,-0.1 0.12,-0.1 0.14,-0.1 0.41,0 0.83,0.03 1.24,0.03 0.25,0 0.88,-0.03 1.13,-0.03 0.06,0 0.18,0 0.18,0.19 0,0.11 -0.1,0.11 -0.23,0.11 -0.62,0 -0.62,0.07 -0.65,0.36 l -0.61,6.21 c -0.02,0.2 -0.02,0.24 -0.18,0.24 -0.17,0 -0.2,-0.07 -0.27,-0.17 z"
   inkscape:connector-curvature="0" />
</g>  </g>
  <g
     inkscape:label="GND"
     transform="rotate(-180,181.10277,54.042299)"
     id="g6315"
     inkscape:export-xdpi="600"
     inkscape:export-ydpi="600">
    <g
       transform="translate(12.681872,-0.52104843)"
       inkscape:label="GND"
       id="g6303">
      <circle
         r="1"
         cy="70"
         cx="160"
         style="fill:#000000;stroke:#000000;stroke-width:0.69999999;stroke-linecap:round;stroke-linejoin:round;stroke-dasharray:none"
         inkscape:label="circle"
         id="path6301" />
    </g>
    <g
       style="font-style:normal;font-variant:normal;font-weight:normal;font-stretch:normal;letter-spacing:normal;word-spacing:normal;text-anchor:start;fill:none;fill-opacity:1;fill-rule:evenodd;stroke:#000000;stroke-linecap:butt;stroke-linejoin:miter;stroke-miterlimit:10.43299961;stroke-dasharray:none;stroke-dashoffset:0;stroke-opacity:1"
       id="g6313"
       xml:space="preserve"
       stroke-miterlimit="10.433"
       font-style="normal"
       font-variant="normal"
       font-weight="normal"
       font-stretch="normal"
       font-size-adjust="none"
       letter-spacing="normal"
       word-spacing="normal"
       ns0:text=" $5.6V$"
       ns0:preamble="C:\\Program Files\\Inkscape\\share\\extensions/textextLib/CircuitSymbolsLatexPreamble.tex"
       transform="matrix(-0.739645,0,0,0.739645,335.59405,-455.79404)">
<path
   inkscape:connector-curvature="0"
   d="m 227.91,709.12 v 0.11 l -0.01,0.11 -0.01,0.11 -0.02,0.1 -0.02,0.11 -0.02,0.1 -0.03,0.1 -0.03,0.1 -0.04,0.1 -0.04,0.09 -0.05,0.09 -0.05,0.09 -0.05,0.09 -0.05,0.08 -0.06,0.08 -0.06,0.07 -0.07,0.08 -0.07,0.06 -0.07,0.07 -0.07,0.06 -0.08,0.06 -0.08,0.05 -0.08,0.05 -0.08,0.04 -0.09,0.04 -0.09,0.04 -0.09,0.03 -0.09,0.02 -0.1,0.02 -0.1,0.02 h -0.09 l -0.11,0.01 c -0.47,0 -0.9,-0.16 -1.26,-0.51 v 1.94 c 0.2,-0.06 0.53,-0.13 0.85,-0.13 1.22,0 1.92,0.9 1.92,1.03 0,0.06 -0.03,0.11 -0.1,0.11 -0.01,0 -0.03,0 -0.08,-0.03 -0.2,-0.09 -0.69,-0.29 -1.35,-0.29 -0.4,0 -0.86,0.07 -1.33,0.28 -0.08,0.03 -0.1,0.03 -0.12,0.03 -0.1,0 -0.1,-0.08 -0.1,-0.24 v -2.94 c 0,-0.18 0,-0.26 0.14,-0.26 0.07,0 0.09,0.03 0.13,0.09 0.11,0.16 0.48,0.7 1.28,0.7 0.52,0 0.77,-0.46 0.85,-0.64 0.16,-0.36 0.18,-0.75 0.18,-1.25 0,-0.35 0,-0.94 -0.24,-1.36 -0.24,-0.39 -0.61,-0.65 -1.06,-0.65 -0.73,0 -1.3,0.53 -1.47,1.12 0.03,-0.01 0.06,-0.02 0.17,-0.02 0.33,0 0.5,0.25 0.5,0.48 0,0.24 -0.17,0.49 -0.5,0.49 -0.14,0 -0.49,-0.07 -0.49,-0.53 0,-0.85 0.69,-1.81 1.81,-1.81 1.15,0 2.17,0.95 2.17,2.21 z"
   style="fill:#000000;stroke-width:0"
   id="path6305" />
<path
   inkscape:connector-curvature="0"
   d="m 230.33,707.65 v 0.03 0.02 l -0.01,0.03 v 0.03 l -0.01,0.02 -0.01,0.03 v 0.02 l -0.01,0.03 -0.01,0.02 -0.02,0.02 -0.01,0.02 -0.01,0.02 -0.02,0.03 -0.01,0.02 -0.02,0.01 -0.02,0.02 -0.02,0.02 -0.02,0.02 -0.02,0.01 -0.02,0.02 -0.02,0.01 -0.02,0.01 -0.02,0.02 -0.03,0.01 -0.02,0.01 h -0.02 l -0.03,0.01 -0.03,0.01 h -0.02 l -0.03,0.01 h -0.02 -0.03 c -0.29,0 -0.53,-0.24 -0.53,-0.53 0,-0.29 0.24,-0.52 0.53,-0.52 0.29,0 0.53,0.23 0.53,0.52 z"
   style="fill:#000000;stroke-width:0"
   id="path6307" />
<path
   inkscape:connector-curvature="0"
   d="m 232.5,710.38 v 0.24 c 0,2.52 1.23,2.87 1.74,2.87 0.24,0 0.66,-0.06 0.88,-0.4 -0.15,0 -0.55,0 -0.55,-0.44 0,-0.31 0.24,-0.46 0.46,-0.46 0.16,0 0.46,0.09 0.46,0.48 0,0.59 -0.44,1.07 -1.27,1.07 -1.27,0 -2.62,-1.28 -2.62,-3.48 0,-2.65 1.16,-3.35 2.08,-3.35 1.11,0 2.06,0.93 2.06,2.24 0,1.26 -0.89,2.22 -2,2.22 l -0.01,-0.23 c 0.16,0 0.62,0 0.93,-0.62 0.18,-0.36 0.18,-0.87 0.18,-1.36 0,-0.48 0,-0.97 -0.17,-1.33 -0.3,-0.6 -0.76,-0.65 -0.99,-0.65 v 0 c -0.62,0 -0.92,0.6 -0.98,0.75 -0.18,0.47 -0.18,1.26 -0.18,1.44 0,0.78 0.32,1.77 1.21,1.77 l 0.01,0.23 c -0.67,0 -1.04,-0.51 -1.24,-0.99 z"
   style="fill:#000000;stroke-width:0"
   id="path6309" />
<path
   inkscape:connector-curvature="0"
   d="m 242.43,712.78 0.04,0.07 0.05,0.06 0.04,0.07 0.04,0.05 0.05,0.06 0.04,0.05 0.05,0.05 0.04,0.04 0.04,0.04 0.04,0.04 0.04,0.03 0.05,0.03 0.04,0.03 0.04,0.03 0.04,0.02 0.04,0.02 0.04,0.02 0.04,0.02 0.04,0.01 0.03,0.02 0.04,0.01 0.04,0.01 0.04,0.01 h 0.03 l 0.04,0.01 h 0.04 l 0.07,0.01 0.07,0.01 h 0.07 c 0.12,0.01 0.13,0.18 0.13,0.19 0,0.08 -0.05,0.12 -0.13,0.12 -0.26,0 -0.55,-0.03 -0.82,-0.03 -0.33,0 -0.67,0.03 -0.98,0.03 -0.06,0 -0.19,0 -0.19,-0.19 0,-0.11 0.09,-0.12 0.16,-0.12 0.26,-0.02 0.45,-0.12 0.45,-0.33 0,-0.14 -0.14,-0.36 -0.14,-0.37 l -3.07,-4.85 -0.67,5.25 c 0,0.17 0.22,0.3 0.68,0.3 0.14,0 0.25,0 0.25,0.2 0,0.09 -0.08,0.11 -0.14,0.11 -0.4,0 -0.82,-0.03 -1.23,-0.03 -0.18,0 -0.37,0.01 -0.55,0.01 -0.18,0 -0.37,0.02 -0.54,0.02 -0.07,0 -0.19,0 -0.19,-0.19 0,-0.12 0.09,-0.12 0.25,-0.12 0.56,0 0.57,-0.09 0.6,-0.34 l 0.79,-6.12 c 0.03,-0.2 0.07,-0.23 0.19,-0.23 0.16,0 0.21,0.05 0.28,0.18 z"
   style="fill:#000000;stroke-width:0"
   id="path6311" />
</g>    <path
       inkscape:original-d="m 223.15786,69.461167 1e-5,-34.962797"
       inkscape:path-effect="#path-effect6424"
       inkscape:connector-curvature="0"
       id="path6422"
       d="m 223.15786,69.461167 1e-5,-34.962797"
       style="fill:none;stroke:#000000;stroke-width:1;stroke-linecap:butt;stroke-linejoin:miter;stroke-miterlimit:4;stroke-dasharray:none;stroke-opacity:1;marker-start:url(#marker7220);marker-end:url(#marker6428)" />
  </g>
  <g
     inkscape:label="Capacitor"
     id="g6817"
     transform="translate(-26.494726,-41.376567)"
     inkscape:export-xdpi="600"
     inkscape:export-ydpi="600">
    <g
       inkscape:label="Capacitor"
       id="g6809">
      <path
         d="m 80,80 h 23"
         style="fill:none;stroke:#000000;stroke-width:1;stroke-linecap:round;stroke-linejoin:round;stroke-dasharray:none"
         inkscape:label="none"
         id="path6801"
         inkscape:connector-curvature="0" />
      <path
         d="M 130,80 H 107"
         style="fill:none;stroke:#000000;stroke-width:1;stroke-linecap:round;stroke-linejoin:round;stroke-dasharray:none"
         inkscape:label="none"
         id="path6803"
         inkscape:connector-curvature="0" />
      <path
         d="M 103,87 V 73"
         style="fill:none;stroke:#000000;stroke-width:1;stroke-linecap:round;stroke-linejoin:round;stroke-dasharray:none"
         inkscape:label="none"
         id="path6805"
         inkscape:connector-curvature="0" />
      <path
         d="M 107,87 V 73"
         style="fill:none;stroke:#000000;stroke-width:1;stroke-linecap:round;stroke-linejoin:round;stroke-dasharray:none"
         inkscape:label="none"
         id="path6807"
         inkscape:connector-curvature="0" />
    </g>
    <g
       id="g6815"
       xml:space="preserve"
       stroke-miterlimit="10.433"
       font-style="normal"
       font-variant="normal"
       font-weight="normal"
       font-stretch="normal"
       font-size-adjust="none"
       letter-spacing="normal"
       word-spacing="normal"
       ns0:text=" $C_3$"
       ns0:preamble="C:\\Program Files\\Inkscape\\share\\extensions/textextLib/CircuitSymbolsLatexPreamble.tex"
       transform="matrix(0.739645,0,0,-0.739645,-64.408291,590.47882)"
       style="font-style:normal;font-variant:normal;font-weight:normal;font-stretch:normal;letter-spacing:normal;word-spacing:normal;text-anchor:start;fill:none;fill-opacity:1;fill-rule:evenodd;stroke:#000000;stroke-linecap:butt;stroke-linejoin:miter;stroke-miterlimit:10.43299961;stroke-dasharray:none;stroke-dashoffset:0;stroke-opacity:1">
<path
   d="m 231.01,714.03 v 0 0.01 0 0 0.01 0 0 0.01 0 l -0.01,0.01 v 0 0 0.01 0 l -0.01,0.01 v 0 0 l -0.01,0.01 v 0 0 l -0.01,0.01 v 0 h -0.01 v 0.01 h -0.01 v 0 h -0.01 v 0 0 h -0.01 v 0 0.01 h -0.01 v 0 0 h -0.01 v 0 0 h -0.01 c -0.03,0 -0.04,-0.01 -0.15,-0.12 l -0.7,-0.77 c -0.09,0.14 -0.54,0.89 -1.65,0.89 -2.23,0 -4.47,-2.2 -4.47,-4.5 0,-1.64 1.18,-2.72 2.7,-2.72 0.87,0 1.63,0.39 2.16,0.85 0.92,0.82 1.09,1.72 1.09,1.75 0,0.1 -0.1,0.1 -0.12,0.1 -0.06,0 -0.11,-0.02 -0.13,-0.1 -0.09,-0.29 -0.31,-0.99 -1,-1.57 -0.69,-0.56 -1.32,-0.73 -1.84,-0.73 -0.89,0 -1.95,0.52 -1.95,2.07 0,0.57 0.21,2.18 1.2,3.34 0.61,0.7 1.55,1.2 2.44,1.2 1.01,0 1.6,-0.77 1.6,-1.92 0,-0.39 -0.03,-0.4 -0.03,-0.5 0,-0.1 0.11,-0.1 0.15,-0.1 0.13,0 0.13,0.02 0.18,0.2 z"
   style="fill:#000000;stroke-width:0"
   id="path6811"
   inkscape:connector-curvature="0" />
<path
   d="m 232.46,707.95 h 0.05 0.05 l 0.05,-0.01 h 0.05 l 0.05,-0.01 0.04,-0.02 0.05,-0.01 0.04,-0.02 0.04,-0.02 0.04,-0.02 0.04,-0.02 0.04,-0.02 0.03,-0.03 0.04,-0.03 0.03,-0.03 0.03,-0.04 0.04,-0.03 0.02,-0.04 0.03,-0.04 0.03,-0.04 0.02,-0.05 0.02,-0.05 0.02,-0.05 0.02,-0.05 0.02,-0.05 0.01,-0.06 0.01,-0.05 0.01,-0.06 0.01,-0.07 v -0.06 l 0.01,-0.07 v -0.07 c 0,-0.86 -0.5,-1.12 -0.91,-1.12 -0.28,0 -0.89,0.08 -1.19,0.49 0.33,0.02 0.41,0.25 0.41,0.39 0,0.22 -0.17,0.38 -0.39,0.38 -0.19,0 -0.39,-0.12 -0.39,-0.4 0,-0.65 0.73,-1.08 1.57,-1.08 0.98,0 1.65,0.65 1.65,1.34 0,0.55 -0.45,1.09 -1.22,1.25 0.73,0.26 1,0.78 1,1.21 0,0.55 -0.64,0.96 -1.41,0.96 -0.78,0 -1.37,-0.38 -1.37,-0.93 0,-0.24 0.15,-0.37 0.36,-0.37 0.22,0 0.36,0.16 0.36,0.35 0,0.2 -0.14,0.35 -0.36,0.36 0.25,0.31 0.73,0.39 0.99,0.39 0.31,0 0.75,-0.16 0.75,-0.76 0,-0.29 -0.1,-0.61 -0.28,-0.83 -0.23,-0.26 -0.42,-0.28 -0.77,-0.3 -0.18,-0.01 -0.19,-0.01 -0.23,-0.02 -0.01,0 -0.07,-0.01 -0.07,-0.09 0,-0.1 0.06,-0.1 0.18,-0.1 z"
   style="fill:#000000;stroke-width:0"
   id="path6813"
   inkscape:connector-curvature="0" />
</g>  </g>
  <g
     id="g7079"
     inkscape:label="Resistor"
     transform="translate(9.0476848,-41.376567)"
     inkscape:export-xdpi="600"
     inkscape:export-ydpi="600">
    <g
       id="g7071">
      <path
         id="path7069"
         inkscape:label="none"
         style="fill:none;stroke:#000000;stroke-width:1;stroke-linecap:round;stroke-linejoin:round;stroke-dasharray:none"
         d="m 80,80 h 15.5 l 2,3 3,-6 3,6 3,-6 3,6 3,-6 2,3 H 130"
         inkscape:connector-curvature="0" />
    </g>
    <g
       transform="matrix(0.739645,0,0,-0.739645,-64.515539,595.47882)"
       ns0:preamble="C:\\Program Files\\Inkscape\\share\\extensions/textextLib/CircuitSymbolsLatexPreamble.tex"
       ns0:text=" $R_5$"
       word-spacing="normal"
       letter-spacing="normal"
       font-size-adjust="none"
       font-stretch="normal"
       font-weight="normal"
       font-variant="normal"
       font-style="normal"
       stroke-miterlimit="10.433"
       xml:space="preserve"
       id="g7077"
       style="font-style:normal;font-variant:normal;font-weight:normal;font-stretch:normal;letter-spacing:normal;word-spacing:normal;text-anchor:start;fill:none;fill-opacity:1;fill-rule:evenodd;stroke:#000000;stroke-linecap:butt;stroke-linejoin:miter;stroke-miterlimit:10.43299961;stroke-dasharray:none;stroke-dashoffset:0;stroke-opacity:1">
<path
   id="path7073"
   style="fill:#000000;stroke-width:0"
   d="m 228.61,710.5 0.09,0.02 0.1,0.03 0.09,0.03 0.1,0.03 0.1,0.03 0.09,0.03 0.1,0.04 0.1,0.04 0.09,0.05 0.09,0.04 0.09,0.05 0.09,0.05 0.09,0.05 0.09,0.06 0.08,0.06 0.08,0.06 0.08,0.06 0.07,0.06 0.08,0.07 0.06,0.07 0.07,0.07 0.06,0.07 0.05,0.08 0.05,0.08 0.05,0.08 0.03,0.08 0.04,0.08 0.03,0.09 0.02,0.09 0.02,0.09 0.01,0.09 v 0.09 c 0,0.85 -0.9,1.49 -2.2,1.49 h -2.84 c -0.2,0 -0.29,0 -0.29,-0.2 0,-0.11 0.09,-0.11 0.28,-0.11 0.01,0 0.21,0 0.38,-0.02 0.17,-0.02 0.26,-0.03 0.26,-0.16 0,-0.04 -0.01,-0.07 -0.04,-0.19 l -1.33,-5.33 c -0.1,-0.39 -0.12,-0.47 -0.91,-0.47 -0.18,0 -0.27,0 -0.27,-0.2 0,-0.1 0.12,-0.1 0.14,-0.1 0.28,0 0.98,0.03 1.26,0.03 0.28,0 0.98,-0.03 1.26,-0.03 0.08,0 0.2,0 0.2,0.19 0,0.11 -0.09,0.11 -0.28,0.11 -0.37,0 -0.65,0 -0.65,0.18 0,0.06 0.02,0.11 0.03,0.17 l 0.66,2.63 h 1.19 l -0.01,0.22 h -1.12 l 0.65,2.59 c 0.06,0.24 0.09,0.34 0.28,0.37 0.09,0.01 0.41,0.01 0.61,0.01 0.71,0 1.81,0 1.81,-0.98 0,-0.34 -0.16,-1.03 -0.55,-1.41 -0.25,-0.26 -0.78,-0.58 -1.68,-0.58 l 0.01,-0.22 c 0.91,0 1.09,-0.55 1.09,-0.9 0,-0.15 -0.08,-0.46 -0.14,-0.69 -0.07,-0.27 -0.16,-0.64 -0.16,-0.84 0,-1.07 1.19,-1.07 1.32,-1.07 0.85,0 1.2,1 1.2,1.14 0,0.12 -0.11,0.12 -0.12,0.12 -0.09,0 -0.11,-0.07 -0.13,-0.14 -0.25,-0.74 -0.68,-0.9 -0.91,-0.9 -0.32,0 -0.4,0.21 -0.4,0.6 0,0.31 0.06,0.82 0.11,1.13 0.01,0.14 0.03,0.33 0.03,0.47 0,0.76 -0.66,1.07 -0.93,1.17 z"
   inkscape:connector-curvature="0" />
<path
   id="path7075"
   style="fill:#000000;stroke-width:0"
   d="m 232.08,709.51 0.03,-0.01 h 0.04 l 0.03,-0.01 0.03,-0.01 h 0.03 l 0.03,-0.01 0.02,-0.01 h 0.03 l 0.03,-0.01 h 0.02 0.03 l 0.02,-0.01 h 0.03 0.02 l 0.02,-0.01 h 0.02 0.02 0.02 0.02 0.02 l 0.02,-0.01 h 0.01 0.02 0.02 0.01 0.02 0.01 0.01 0.01 0.02 0.01 0.01 c 0.92,0 1.47,0.63 1.47,0.73 0,0.08 -0.05,0.1 -0.09,0.1 -0.01,0 -0.02,0 -0.05,-0.02 -0.17,-0.07 -0.54,-0.2 -1.06,-0.2 -0.19,0 -0.57,0.01 -1.02,0.18 -0.07,0.04 -0.08,0.04 -0.09,0.04 -0.09,0 -0.09,-0.08 -0.09,-0.19 v -2.05 c 0,-0.12 0,-0.2 0.11,-0.2 0.06,0 0.07,0.01 0.14,0.1 0.3,0.38 0.73,0.43 0.97,0.43 0.42,0 0.61,-0.33 0.65,-0.39 0.12,-0.23 0.16,-0.49 0.16,-0.89 0,-0.21 0,-0.62 -0.21,-0.93 -0.17,-0.25 -0.47,-0.42 -0.81,-0.42 -0.46,0 -0.93,0.26 -1.1,0.71 0.26,-0.02 0.4,0.16 0.4,0.34 0,0.3 -0.26,0.36 -0.35,0.36 -0.02,0 -0.35,0 -0.35,-0.38 0,-0.62 0.57,-1.25 1.41,-1.25 0.89,0 1.68,0.66 1.68,1.54 0,0.78 -0.6,1.51 -1.47,1.51 -0.31,0 -0.67,-0.08 -0.98,-0.34 z"
   inkscape:connector-curvature="0" />
</g>  </g>
  <g
     inkscape:label="GND"
     transform="rotate(-180,181.65992,136.09204)"
     id="g7386"
     inkscape:export-xdpi="600"
     inkscape:export-ydpi="600">
    <g
       transform="translate(-22.078774,-5.2174806)"
       inkscape:label="GND"
       id="g7364">
      <circle
         r="1"
         cy="130"
         cx="150"
         style="fill:#000000;stroke:#000000;stroke-width:0.69999999;stroke-linecap:round;stroke-linejoin:round;stroke-dasharray:none"
         inkscape:label="circle"
         id="path7362" />
    </g>
    <g
       style="font-style:normal;font-variant:normal;font-weight:normal;font-stretch:normal;letter-spacing:normal;word-spacing:normal;text-anchor:start;fill:none;fill-opacity:1;fill-rule:evenodd;stroke:#000000;stroke-linecap:butt;stroke-linejoin:miter;stroke-miterlimit:10.43299961;stroke-dasharray:none;stroke-dashoffset:0;stroke-opacity:1"
       id="g7384"
       xml:space="preserve"
       stroke-miterlimit="10.433"
       font-style="normal"
       font-variant="normal"
       font-weight="normal"
       font-stretch="normal"
       font-size-adjust="none"
       letter-spacing="normal"
       word-spacing="normal"
       ns0:text=" $(3)I_{Sense}$"
       ns0:preamble="C:\\Program Files\\Inkscape\\share\\extensions/textextLib/CircuitSymbolsLatexPreamble.tex"
       transform="matrix(-0.739645,0,0,0.739645,323.36732,-399.97898)">
<path
   inkscape:connector-curvature="0"
   d="m 226.73,704.74 v 0.01 0 0 0.01 0 0 0.01 0 0 l -0.01,0.01 v 0 0.01 0 l -0.01,0.01 v 0 l -0.01,0.01 v 0.01 h -0.01 v 0.01 h -0.01 v 0.01 0 h -0.01 v 0.01 0 l -0.01,0.01 v 0 l -0.01,0.01 v 0 l -0.01,0.01 v 0 l -0.01,0.01 v 0.01 h -0.01 l -0.01,0.01 v 0.01 h -0.01 l -0.01,0.01 v 0.01 h -0.01 l -0.01,0.01 -0.01,0.01 c -1.24,1.25 -1.56,3.13 -1.56,4.65 0,1.73 0.38,3.46 1.6,4.7 0.13,0.12 0.13,0.14 0.13,0.17 0,0.07 -0.04,0.1 -0.1,0.1 -0.1,0 -0.99,-0.68 -1.58,-1.94 -0.51,-1.09 -0.63,-2.2 -0.63,-3.03 0,-0.78 0.11,-1.98 0.66,-3.1 0.6,-1.22 1.45,-1.87 1.55,-1.87 0.06,0 0.1,0.03 0.1,0.1 z"
   style="fill:#000000;stroke-width:0"
   id="path7366" />
<path
   inkscape:connector-curvature="0"
   d="m 230.2,710.62 0.07,0.03 0.08,0.03 0.07,0.03 0.07,0.03 0.07,0.04 0.07,0.04 0.07,0.04 0.06,0.04 0.06,0.04 0.06,0.05 0.06,0.05 0.06,0.05 0.05,0.05 0.06,0.05 0.05,0.06 0.04,0.05 0.05,0.06 0.04,0.06 0.04,0.06 0.04,0.06 0.03,0.07 0.03,0.06 0.03,0.07 0.03,0.06 0.02,0.07 0.03,0.07 0.01,0.07 0.02,0.07 0.01,0.07 0.01,0.07 v 0.08 0.07 c 0,0.81 -0.87,1.37 -1.83,1.37 -1.01,0 -1.77,-0.59 -1.77,-1.35 0,-0.33 0.22,-0.52 0.51,-0.52 0.31,0 0.51,0.22 0.51,0.51 0,0.5 -0.47,0.5 -0.62,0.5 0.31,0.48 0.97,0.61 1.33,0.61 0.41,0 0.96,-0.22 0.96,-1.11 0,-0.12 -0.02,-0.7 -0.28,-1.13 -0.3,-0.48 -0.64,-0.51 -0.89,-0.52 -0.08,-0.01 -0.32,-0.03 -0.39,-0.03 -0.08,-0.01 -0.15,-0.02 -0.15,-0.12 0,-0.11 0.07,-0.11 0.24,-0.11 h 0.44 c 0.82,0 1.19,-0.67 1.19,-1.65 0,-1.35 -0.69,-1.64 -1.13,-1.64 -0.43,0 -1.18,0.17 -1.53,0.76 0.35,-0.05 0.66,0.17 0.66,0.55 0,0.35 -0.27,0.55 -0.56,0.55 -0.24,0 -0.55,-0.14 -0.55,-0.57 0,-0.91 0.92,-1.56 2.01,-1.56 1.22,0 2.12,0.9 2.12,1.91 0,0.82 -0.62,1.59 -1.66,1.8 z"
   style="fill:#000000;stroke-width:0"
   id="path7368" />
<path
   inkscape:connector-curvature="0"
   d="m 235.17,709.61 v 0.07 0.08 0.08 l -0.01,0.08 v 0.17 l -0.02,0.17 -0.01,0.18 -0.02,0.19 -0.03,0.2 -0.03,0.2 -0.04,0.2 -0.05,0.21 -0.05,0.21 -0.06,0.21 -0.07,0.21 -0.08,0.21 -0.05,0.11 -0.04,0.11 -0.05,0.1 -0.05,0.11 c -0.6,1.22 -1.45,1.87 -1.55,1.87 -0.06,0 -0.1,-0.04 -0.1,-0.1 0,-0.03 0,-0.05 0.19,-0.23 0.97,-0.99 1.54,-2.57 1.54,-4.64 0,-1.7 -0.37,-3.45 -1.6,-4.7 -0.13,-0.12 -0.13,-0.14 -0.13,-0.17 0,-0.06 0.04,-0.1 0.1,-0.1 0.1,0 0.99,0.68 1.58,1.94 0.51,1.09 0.63,2.19 0.63,3.03 z"
   style="fill:#000000;stroke-width:0"
   id="path7370" />
<path
   inkscape:connector-curvature="0"
   d="m 239.89,713.15 0.01,0.03 0.01,0.03 0.01,0.03 v 0.03 l 0.01,0.02 0.01,0.03 0.01,0.02 0.01,0.03 0.01,0.02 0.01,0.02 0.02,0.02 0.01,0.02 0.02,0.01 0.01,0.02 0.02,0.01 0.02,0.02 0.03,0.01 0.02,0.01 0.03,0.01 0.03,0.01 0.03,0.01 h 0.02 l 0.02,0.01 h 0.02 0.02 l 0.02,0.01 h 0.02 0.02 l 0.02,0.01 h 0.03 0.02 0.03 0.02 l 0.03,0.01 h 0.03 0.03 0.03 0.03 0.03 0.03 0.04 0.03 0.04 c 0.24,0 0.32,0 0.32,0.19 0,0.12 -0.11,0.12 -0.15,0.12 -0.29,0 -1.03,-0.03 -1.32,-0.03 -0.3,0 -1.02,0.03 -1.32,0.03 -0.07,0 -0.2,0 -0.2,-0.2 0,-0.11 0.09,-0.11 0.28,-0.11 0.41,0 0.68,0 0.68,-0.19 0,-0.05 0,-0.07 -0.02,-0.16 l -1.34,-5.35 c -0.09,-0.37 -0.12,-0.47 -0.91,-0.47 -0.23,0 -0.32,0 -0.32,-0.2 0,-0.1 0.12,-0.1 0.15,-0.1 0.29,0 1.02,0.03 1.31,0.03 0.3,0 1.03,-0.03 1.33,-0.03 0.08,0 0.2,0 0.2,0.18 0,0.12 -0.08,0.12 -0.3,0.12 -0.18,0 -0.23,0 -0.43,0.02 -0.21,0.02 -0.25,0.06 -0.25,0.17 0,0.08 0.03,0.16 0.04,0.23 z"
   style="fill:#000000;stroke-width:0"
   id="path7372" />
<path
   inkscape:connector-curvature="0"
   d="m 245.51,710.43 v 0 0.01 0 h -0.01 v 0.01 0 0 0.01 0 0.01 0 0 l -0.01,0.01 v 0 0 0.01 h -0.01 v 0 0.01 h -0.01 v 0 0.01 h -0.01 v 0 h -0.01 v 0 l -0.01,0.01 v 0 0 h -0.01 v 0 0 h -0.01 v 0 0 h -0.01 c -0.04,0 -0.04,-0.01 -0.13,-0.1 l -0.35,-0.39 c -0.26,0.36 -0.7,0.49 -1.13,0.49 -0.99,0 -1.86,-0.79 -1.86,-1.59 0,-0.11 0.02,-0.39 0.23,-0.64 0.24,-0.28 0.5,-0.34 0.97,-0.45 0.14,-0.04 0.49,-0.12 0.6,-0.14 0.22,-0.06 0.65,-0.21 0.65,-0.73 0,-0.57 -0.6,-1.23 -1.39,-1.23 -0.62,0 -1.36,0.22 -1.36,0.99 0,0.07 0.01,0.22 0.04,0.35 0.01,0.02 0.01,0.03 0.01,0.04 0,0.09 -0.09,0.09 -0.11,0.09 -0.1,0 -0.11,-0.01 -0.14,-0.14 l -0.35,-1.39 c -0.01,-0.03 -0.02,-0.07 -0.02,-0.1 0,-0.05 0.02,-0.09 0.09,-0.09 0.05,0 0.05,0.01 0.14,0.1 0.08,0.08 0.26,0.31 0.34,0.39 0.37,-0.4 0.92,-0.49 1.34,-0.49 1.05,0 1.9,0.91 1.9,1.73 0,0.3 -0.12,0.58 -0.28,0.74 -0.24,0.25 -0.34,0.28 -1.25,0.49 -0.14,0.03 -0.37,0.09 -0.44,0.11 -0.17,0.06 -0.47,0.23 -0.47,0.63 0,0.55 0.63,1.11 1.35,1.11 0.76,0 1.12,-0.43 1.12,-1.09 0,-0.09 -0.03,-0.25 -0.03,-0.31 0,-0.1 0.09,-0.1 0.12,-0.1 0.11,0 0.12,0.04 0.14,0.16 z"
   style="fill:#000000;stroke-width:0"
   id="path7374" />
<path
   inkscape:connector-curvature="0"
   d="m 247.38,707.22 h 0.02 0.02 0.03 0.02 0.03 0.03 0.03 0.03 0.03 0.04 l 0.03,0.01 h 0.04 0.03 0.04 l 0.08,0.01 0.08,0.01 0.08,0.01 0.08,0.01 0.08,0.01 0.08,0.02 0.04,0.01 0.04,0.01 0.04,0.01 0.04,0.01 0.03,0.01 0.04,0.01 c 0.52,0.18 0.62,0.52 0.62,0.73 0,0.38 -0.39,0.61 -0.87,0.61 v -0.2 c 0.31,0 0.56,-0.15 0.56,-0.41 0,-0.68 -1.18,-0.68 -1.48,-0.68 H 247 c 0.29,1.01 1.06,1.09 1.26,1.09 v 0.2 c -0.84,0 -1.97,-0.64 -1.97,-1.83 0,-0.7 0.44,-1.31 1.25,-1.31 1.19,0 1.74,0.69 1.74,0.79 0,0.04 -0.06,0.12 -0.12,0.12 -0.04,0 -0.06,-0.02 -0.11,-0.07 -0.55,-0.64 -1.37,-0.64 -1.49,-0.64 -0.42,0 -0.7,0.27 -0.7,0.84 0,0.1 0,0.23 0.08,0.62 z"
   style="fill:#000000;stroke-width:0"
   id="path7376" />
<path
   inkscape:connector-curvature="0"
   d="m 250.45,706.07 v -0.01 l -0.01,-0.01 v -0.01 -0.01 -0.01 l -0.01,-0.01 V 706 705.99 l -0.01,-0.02 v -0.03 l -0.01,-0.02 -0.01,-0.02 v -0.01 -0.01 -0.01 -0.01 l -0.01,-0.01 v -0.01 -0.01 -0.01 0 l -0.01,-0.01 v -0.01 0 -0.01 0 0 0 0 -0.01 c 0,-0.15 0.13,-0.22 0.24,-0.22 0.12,0 0.24,0.09 0.27,0.15 0.04,0.07 0.09,0.29 0.13,0.44 0.03,0.13 0.11,0.45 0.15,0.62 0.04,0.15 0.08,0.31 0.12,0.47 0.08,0.28 0.09,0.34 0.29,0.62 0.2,0.28 0.53,0.64 1.05,0.64 0.41,0 0.41,-0.35 0.41,-0.48 0,-0.42 -0.3,-1.19 -0.41,-1.49 -0.08,-0.19 -0.1,-0.25 -0.1,-0.37 0,-0.37 0.31,-0.6 0.66,-0.6 0.7,0 1.01,0.96 1.01,1.07 0,0.09 -0.09,0.09 -0.11,0.09 -0.1,0 -0.11,-0.05 -0.14,-0.12 -0.16,-0.56 -0.46,-0.84 -0.74,-0.84 -0.14,0 -0.17,0.09 -0.17,0.24 0,0.16 0.03,0.25 0.16,0.56 0.08,0.22 0.37,0.96 0.37,1.35 0,0.67 -0.54,0.79 -0.91,0.79 -0.58,0 -0.97,-0.36 -1.18,-0.63 -0.05,0.47 -0.46,0.63 -0.75,0.63 -0.3,0 -0.46,-0.22 -0.55,-0.38 -0.16,-0.25 -0.25,-0.65 -0.25,-0.69 0,-0.09 0.09,-0.09 0.11,-0.09 0.1,0 0.11,0.02 0.16,0.21 0.1,0.41 0.24,0.75 0.51,0.75 0.18,0 0.23,-0.15 0.23,-0.34 0,-0.13 -0.06,-0.39 -0.11,-0.57 -0.05,-0.19 -0.12,-0.48 -0.16,-0.63 z"
   style="fill:#000000;stroke-width:0"
   id="path7378" />
<path
   inkscape:connector-curvature="0"
   d="m 257.54,708.25 -0.02,-0.01 h -0.02 l -0.01,-0.01 h -0.02 l -0.01,-0.01 -0.02,-0.01 -0.01,-0.01 h -0.02 l -0.01,-0.01 -0.01,-0.01 -0.02,-0.01 -0.01,-0.01 -0.01,-0.01 -0.01,-0.01 -0.01,-0.01 -0.01,-0.01 -0.01,-0.01 -0.01,-0.01 -0.01,-0.02 v -0.01 l -0.01,-0.01 -0.01,-0.01 v -0.01 l -0.01,-0.02 v -0.01 L 257.25,708 v -0.02 -0.01 l -0.01,-0.01 v -0.01 -0.02 -0.01 c 0,-0.16 0.14,-0.22 0.23,-0.22 0.07,0 0.34,0.04 0.34,0.39 0,0.45 -0.51,0.61 -0.93,0.61 -1.09,0 -1.29,-0.8 -1.29,-1.02 0,-0.26 0.15,-0.42 0.25,-0.51 0.18,-0.13 0.3,-0.16 0.79,-0.25 0.14,-0.02 0.59,-0.11 0.59,-0.45 0,-0.12 -0.08,-0.39 -0.37,-0.56 -0.27,-0.15 -0.62,-0.15 -0.7,-0.15 -0.28,0 -0.68,0.06 -0.84,0.29 0.23,0.03 0.39,0.2 0.39,0.4 0,0.17 -0.13,0.25 -0.28,0.25 -0.2,0 -0.4,-0.16 -0.4,-0.46 0,-0.42 0.45,-0.68 1.12,-0.68 1.29,0 1.53,0.88 1.53,1.15 0,0.64 -0.71,0.76 -0.97,0.81 -0.06,0.02 -0.23,0.04 -0.28,0.06 -0.25,0.05 -0.38,0.19 -0.38,0.35 0,0.16 0.13,0.34 0.28,0.44 0.19,0.12 0.43,0.13 0.55,0.13 0.15,0 0.51,-0.02 0.67,-0.25 z"
   style="fill:#000000;stroke-width:0"
   id="path7380" />
<path
   inkscape:connector-curvature="0"
   d="m 259.85,707.22 h 0.02 0.02 0.02 0.03 0.02 0.03 0.03 0.03 0.04 0.03 l 0.04,0.01 h 0.03 0.04 0.04 l 0.07,0.01 0.08,0.01 0.08,0.01 0.09,0.01 0.08,0.01 0.08,0.02 0.04,0.01 0.04,0.01 0.03,0.01 0.04,0.01 0.04,0.01 0.04,0.01 c 0.51,0.18 0.61,0.52 0.61,0.73 0,0.38 -0.39,0.61 -0.87,0.61 v -0.2 c 0.31,0 0.57,-0.15 0.57,-0.41 0,-0.68 -1.18,-0.68 -1.48,-0.68 h -0.35 c 0.29,1.01 1.07,1.09 1.26,1.09 v 0.2 c -0.84,0 -1.97,-0.64 -1.97,-1.83 0,-0.7 0.44,-1.31 1.26,-1.31 1.18,0 1.73,0.69 1.73,0.79 0,0.04 -0.06,0.12 -0.11,0.12 -0.05,0 -0.06,-0.02 -0.12,-0.07 -0.54,-0.64 -1.36,-0.64 -1.49,-0.64 -0.42,0 -0.7,0.27 -0.7,0.84 0,0.1 0,0.23 0.09,0.62 z"
   style="fill:#000000;stroke-width:0"
   id="path7382" />
</g>  </g>
  <g
     id="g7666"
     transform="rotate(-180,145.11081,38.696909)"
     inkscape:label="GND"
     inkscape:export-xdpi="600"
     inkscape:export-ydpi="600">
    <g
       style="font-style:normal;font-variant:normal;font-weight:normal;font-stretch:normal;letter-spacing:normal;word-spacing:normal;text-anchor:start;fill:none;fill-opacity:1;fill-rule:evenodd;stroke:#000000;stroke-linecap:butt;stroke-linejoin:miter;stroke-miterlimit:10.43299961;stroke-dasharray:none;stroke-dashoffset:0;stroke-opacity:1"
       transform="matrix(-0.739645,0,0,0.739645,330.59372,-478.81787)"
       ns0:preamble="C:\\Program Files\\Inkscape\\share\\extensions/textextLib/CircuitSymbolsLatexPreamble.tex"
       ns0:text=" $(1)Comp$"
       word-spacing="normal"
       letter-spacing="normal"
       font-size-adjust="none"
       font-stretch="normal"
       font-weight="normal"
       font-variant="normal"
       font-style="normal"
       stroke-miterlimit="10.433"
       xml:space="preserve"
       id="g7664">
<path
   inkscape:connector-curvature="0"
   id="path7650"
   style="fill:#000000;stroke-width:0"
   d="m 226.73,704.74 v 0.01 0 0 0.01 0 0 0.01 0 0 l -0.01,0.01 v 0 0.01 0 l -0.01,0.01 v 0 l -0.01,0.01 v 0.01 h -0.01 v 0.01 h -0.01 v 0.01 0 h -0.01 v 0.01 0 l -0.01,0.01 v 0 l -0.01,0.01 v 0 l -0.01,0.01 v 0 l -0.01,0.01 v 0.01 h -0.01 l -0.01,0.01 v 0.01 h -0.01 l -0.01,0.01 v 0.01 h -0.01 l -0.01,0.01 -0.01,0.01 c -1.24,1.25 -1.56,3.13 -1.56,4.65 0,1.73 0.38,3.46 1.6,4.7 0.13,0.12 0.13,0.14 0.13,0.17 0,0.07 -0.04,0.1 -0.1,0.1 -0.1,0 -0.99,-0.68 -1.58,-1.94 -0.51,-1.09 -0.63,-2.2 -0.63,-3.03 0,-0.78 0.11,-1.98 0.66,-3.1 0.6,-1.22 1.45,-1.87 1.55,-1.87 0.06,0 0.1,0.03 0.1,0.1 z" />
<path
   inkscape:connector-curvature="0"
   id="path7652"
   style="fill:#000000;stroke-width:0"
   d="m 230.24,713.48 v 0.01 0.01 0.02 0.01 0 0.01 0.01 0.01 0.01 0.01 0.01 0.01 0 0.01 0.01 h -0.01 v 0.01 0.01 0.01 0.01 0.01 l -0.01,0.01 v 0.01 h -0.01 v 0.01 l -0.01,0.01 v 0 l -0.01,0.01 h -0.01 l -0.01,0.01 v 0 h -0.01 v 0 h -0.01 v 0 h -0.01 v 0.01 h -0.01 -0.01 v 0 h -0.01 -0.01 -0.01 -0.01 v 0 h -0.01 -0.01 -0.01 -0.01 -0.01 -0.01 -0.01 c -0.62,-0.64 -1.5,-0.64 -1.82,-0.64 v -0.3 c 0.2,0 0.79,0 1.31,0.25 v -5.14 c 0,-0.36 -0.03,-0.48 -0.93,-0.48 h -0.32 v -0.3 c 0.35,0.03 1.22,0.03 1.62,0.03 0.4,0 1.27,0 1.62,-0.03 v 0.3 h -0.32 c -0.9,0 -0.93,0.11 -0.93,0.48 z" />
<path
   inkscape:connector-curvature="0"
   id="path7654"
   style="fill:#000000;stroke-width:0"
   d="m 235.17,709.61 v 0.07 0.08 0.08 l -0.01,0.08 v 0.17 l -0.02,0.17 -0.01,0.18 -0.02,0.19 -0.03,0.2 -0.03,0.2 -0.04,0.2 -0.05,0.21 -0.05,0.21 -0.06,0.21 -0.07,0.21 -0.08,0.21 -0.05,0.11 -0.04,0.11 -0.05,0.1 -0.05,0.11 c -0.6,1.22 -1.45,1.87 -1.55,1.87 -0.06,0 -0.1,-0.04 -0.1,-0.1 0,-0.03 0,-0.05 0.19,-0.23 0.97,-0.99 1.54,-2.57 1.54,-4.64 0,-1.7 -0.37,-3.45 -1.6,-4.7 -0.13,-0.12 -0.13,-0.14 -0.13,-0.17 0,-0.06 0.04,-0.1 0.1,-0.1 0.1,0 0.99,0.68 1.58,1.94 0.51,1.09 0.63,2.19 0.63,3.03 z" />
<path
   inkscape:connector-curvature="0"
   id="path7656"
   style="fill:#000000;stroke-width:0"
   d="m 243.74,714.03 v 0 0.01 0 0 0.01 0 0 0.01 0 l -0.01,0.01 v 0 0 0.01 0 l -0.01,0.01 v 0 0 l -0.01,0.01 v 0 0 l -0.01,0.01 v 0 h -0.01 v 0.01 h -0.01 v 0 h -0.01 v 0 0 h -0.01 v 0 0.01 h -0.01 v 0 0 h -0.01 v 0 0 h -0.01 c -0.03,0 -0.04,-0.01 -0.15,-0.12 l -0.7,-0.77 c -0.09,0.14 -0.54,0.89 -1.65,0.89 -2.23,0 -4.47,-2.2 -4.47,-4.5 0,-1.64 1.18,-2.72 2.7,-2.72 0.87,0 1.63,0.39 2.16,0.85 0.92,0.82 1.09,1.72 1.09,1.75 0,0.1 -0.1,0.1 -0.12,0.1 -0.06,0 -0.11,-0.02 -0.12,-0.1 -0.1,-0.29 -0.32,-0.99 -1.01,-1.57 -0.69,-0.56 -1.32,-0.73 -1.84,-0.73 -0.89,0 -1.95,0.52 -1.95,2.07 0,0.57 0.21,2.18 1.2,3.34 0.61,0.7 1.55,1.2 2.44,1.2 1.02,0 1.6,-0.77 1.6,-1.92 0,-0.39 -0.03,-0.4 -0.03,-0.5 0,-0.1 0.11,-0.1 0.15,-0.1 0.13,0 0.13,0.02 0.18,0.2 z" />
<path
   inkscape:connector-curvature="0"
   id="path7658"
   style="fill:#000000;stroke-width:0"
   d="m 248.68,709.84 -0.01,0.09 v 0.1 l -0.01,0.09 -0.01,0.09 -0.02,0.08 -0.02,0.09 -0.03,0.08 -0.03,0.08 -0.03,0.07 -0.03,0.07 -0.04,0.07 -0.04,0.07 -0.05,0.07 -0.04,0.06 -0.05,0.06 -0.05,0.05 -0.06,0.06 -0.06,0.05 -0.06,0.04 -0.06,0.05 -0.06,0.04 -0.07,0.03 -0.07,0.04 -0.07,0.03 -0.07,0.03 -0.08,0.02 -0.07,0.02 -0.08,0.02 -0.08,0.01 -0.08,0.01 h -0.09 l -0.08,0.01 c -1.34,0 -2.67,-1.42 -2.67,-2.83 0,-0.98 0.67,-1.67 1.59,-1.67 l 0.01,0.21 c -0.42,0 -0.86,0.31 -0.86,1.09 0,0.48 0.26,1.56 0.58,2.06 0.49,0.77 1.06,0.92 1.34,0.92 0.58,0 0.88,-0.48 0.88,-1.08 0,-0.38 -0.2,-1.43 -0.58,-2.07 -0.35,-0.58 -0.9,-0.92 -1.36,-0.92 v 0 L 246,707.02 c 1.33,0 2.68,1.37 2.68,2.82 z" />
<path
   inkscape:connector-curvature="0"
   id="path7660"
   style="fill:#000000;stroke-width:0"
   d="m 249.71,707.71 -0.01,-0.01 v -0.02 -0.01 l -0.01,-0.02 v -0.03 l -0.01,-0.03 -0.01,-0.03 -0.01,-0.04 v -0.03 l -0.01,-0.03 v -0.01 l -0.01,-0.02 v -0.01 -0.02 l -0.01,-0.01 v -0.01 -0.02 -0.01 l -0.01,-0.01 v -0.01 -0.01 -0.01 -0.01 0 -0.01 -0.01 c 0,-0.18 0.14,-0.26 0.28,-0.26 0.12,0 0.31,0.07 0.37,0.27 0.01,0.02 0.13,0.49 0.19,0.74 l 0.22,0.89 c 0.06,0.22 0.12,0.44 0.17,0.67 0.04,0.17 0.12,0.46 0.13,0.5 0.15,0.3 0.68,1.21 1.63,1.21 0.45,0 0.54,-0.37 0.54,-0.7 0,-0.25 -0.07,-0.52 -0.15,-0.82 l -0.28,-1.15 -0.2,-0.76 c -0.04,-0.2 -0.13,-0.54 -0.13,-0.59 0,-0.18 0.14,-0.26 0.29,-0.26 0.31,0 0.37,0.24 0.45,0.56 0.14,0.56 0.5,2.01 0.6,2.4 0.03,0.12 0.55,1.32 1.64,1.32 0.43,0 0.54,-0.34 0.54,-0.7 0,-0.56 -0.42,-1.7 -0.62,-2.22 -0.09,-0.24 -0.13,-0.35 -0.13,-0.55 0,-0.47 0.35,-0.81 0.82,-0.81 0.94,0 1.31,1.45 1.31,1.53 0,0.1 -0.09,0.1 -0.12,0.1 -0.1,0 -0.1,-0.04 -0.15,-0.18 -0.15,-0.53 -0.47,-1.24 -1.02,-1.24 -0.17,0 -0.24,0.1 -0.24,0.33 0,0.25 0.09,0.49 0.18,0.71 0.19,0.51 0.61,1.62 0.61,2.18 0,0.65 -0.4,1.07 -1.15,1.07 -0.75,0 -1.26,-0.44 -1.63,-0.97 -0.01,0.13 -0.03,0.47 -0.31,0.71 -0.25,0.21 -0.57,0.26 -0.82,0.26 -0.9,0 -1.39,-0.64 -1.56,-0.87 -0.05,0.57 -0.47,0.87 -0.92,0.87 -0.45,0 -0.64,-0.39 -0.73,-0.57 -0.18,-0.35 -0.31,-0.93 -0.31,-0.96 0,-0.1 0.1,-0.1 0.12,-0.1 0.1,0 0.11,0.01 0.17,0.22 0.17,0.71 0.37,1.19 0.72,1.19 0.16,0 0.31,-0.08 0.31,-0.46 0,-0.21 -0.03,-0.32 -0.16,-0.83 z" />
<path
   inkscape:connector-curvature="0"
   id="path7662"
   style="fill:#000000;stroke-width:0"
   d="m 258.02,705.91 v -0.03 l -0.01,-0.03 -0.01,-0.03 v -0.02 l -0.01,-0.03 -0.01,-0.02 v -0.02 l -0.01,-0.02 -0.01,-0.02 -0.01,-0.02 -0.01,-0.02 -0.01,-0.01 -0.01,-0.02 -0.01,-0.01 -0.01,-0.02 -0.01,-0.01 -0.01,-0.01 -0.02,-0.01 -0.01,-0.01 h -0.02 l -0.02,-0.01 -0.02,-0.01 h -0.02 l -0.03,-0.01 h -0.02 -0.01 l -0.02,-0.01 h -0.01 -0.02 -0.01 -0.02 -0.01 -0.02 -0.02 -0.02 -0.01 -0.02 -0.02 -0.02 c -0.12,0 -0.23,0 -0.23,-0.19 0,-0.08 0.05,-0.12 0.13,-0.12 0.26,0 0.56,0.03 0.83,0.03 0.33,0 0.67,-0.03 0.99,-0.03 0.05,0 0.18,0 0.18,0.2 0,0.11 -0.1,0.11 -0.24,0.11 -0.5,0 -0.5,0.07 -0.5,0.15 0,0.12 0.42,1.74 0.49,1.99 0.13,-0.29 0.41,-0.63 0.92,-0.63 l -0.01,0.21 c -0.66,0 -0.79,0.83 -0.79,0.89 0,0.02 0,0.04 0.03,0.16 l 0.49,1.94 c 0.07,0.27 0.34,0.55 0.52,0.7 0.35,0.31 0.64,0.38 0.81,0.38 0.4,0 0.63,-0.35 0.63,-0.94 0,-0.58 -0.32,-1.72 -0.51,-2.1 -0.33,-0.7 -0.81,-1.03 -1.18,-1.03 l 0.01,-0.21 c 1.15,0 2.4,1.45 2.4,2.91 0,0.93 -0.57,1.59 -1.32,1.59 -0.5,0 -0.98,-0.36 -1.31,-0.75 -0.1,0.54 -0.53,0.75 -0.9,0.75 -0.46,0 -0.65,-0.39 -0.74,-0.57 -0.18,-0.34 -0.3,-0.93 -0.3,-0.96 0,-0.1 0.09,-0.1 0.11,-0.1 0.1,0 0.11,0.01 0.17,0.22 0.17,0.71 0.37,1.19 0.73,1.19 0.17,0 0.31,-0.08 0.31,-0.46 0,-0.23 -0.03,-0.34 -0.07,-0.51 z" />
</g>  </g>
  <g
     inkscape:label="GND"
     transform="rotate(-180,112.4282,61.76667)"
     id="g7964"
     inkscape:export-xdpi="600"
     inkscape:export-ydpi="600">
    <g
       inkscape:label="GND"
       id="g7950">
      <circle
         r="1"
         cy="60"
         cx="150"
         style="fill:#000000;stroke:#000000;stroke-width:0.69999999;stroke-linecap:round;stroke-linejoin:round;stroke-dasharray:none"
         inkscape:label="circle"
         id="path7948" />
    </g>
    <g
       style="font-style:normal;font-variant:normal;font-weight:normal;font-stretch:normal;letter-spacing:normal;word-spacing:normal;text-anchor:start;fill:none;fill-opacity:1;fill-rule:evenodd;stroke:#000000;stroke-linecap:butt;stroke-linejoin:miter;stroke-miterlimit:10.43299961;stroke-dasharray:none;stroke-dashoffset:0;stroke-opacity:1"
       id="g7962"
       xml:space="preserve"
       stroke-miterlimit="10.433"
       font-style="normal"
       font-variant="normal"
       font-weight="normal"
       font-stretch="normal"
       font-size-adjust="none"
       letter-spacing="normal"
       word-spacing="normal"
       ns0:text=" $(2)FB$"
       ns0:preamble="C:\\Program Files\\Inkscape\\share\\extensions/textextLib/CircuitSymbolsLatexPreamble.tex"
       transform="matrix(-0.739645,0,0,0.739645,326.00223,-471.86886)">
<path
   inkscape:connector-curvature="0"
   d="m 226.73,704.74 v 0.01 0 0 0.01 0 0 0.01 0 0 l -0.01,0.01 v 0 0.01 0 l -0.01,0.01 v 0 l -0.01,0.01 v 0.01 h -0.01 v 0.01 h -0.01 v 0.01 0 h -0.01 v 0.01 0 l -0.01,0.01 v 0 l -0.01,0.01 v 0 l -0.01,0.01 v 0 l -0.01,0.01 v 0.01 h -0.01 l -0.01,0.01 v 0.01 h -0.01 l -0.01,0.01 v 0.01 h -0.01 l -0.01,0.01 -0.01,0.01 c -1.24,1.25 -1.56,3.13 -1.56,4.65 0,1.73 0.38,3.46 1.6,4.7 0.13,0.12 0.13,0.14 0.13,0.17 0,0.07 -0.04,0.1 -0.1,0.1 -0.1,0 -0.99,-0.68 -1.58,-1.94 -0.51,-1.09 -0.63,-2.2 -0.63,-3.03 0,-0.78 0.11,-1.98 0.66,-3.1 0.6,-1.22 1.45,-1.87 1.55,-1.87 0.06,0 0.1,0.03 0.1,0.1 z"
   style="fill:#000000;stroke-width:0"
   id="path7952" />
<path
   inkscape:connector-curvature="0"
   d="m 228.57,707.89 1.06,1.02 c 1.56,1.37 2.15,1.91 2.15,2.9 0,1.14 -0.89,1.93 -2.11,1.93 -1.13,0 -1.87,-0.91 -1.87,-1.8 0,-0.55 0.5,-0.55 0.53,-0.55 0.17,0 0.52,0.12 0.52,0.52 0,0.26 -0.18,0.52 -0.53,0.52 -0.08,0 -0.1,0 -0.13,-0.01 0.23,0.65 0.77,1.01 1.35,1.01 0.91,0 1.34,-0.8 1.34,-1.62 0,-0.79 -0.5,-1.58 -1.05,-2.19 l -1.92,-2.13 c -0.11,-0.11 -0.11,-0.13 -0.11,-0.36 h 3.71 l 0.27,1.72 h -0.24 c -0.05,-0.3 -0.13,-0.73 -0.22,-0.88 -0.08,-0.08 -0.73,-0.08 -0.95,-0.08 z"
   style="fill:#000000;stroke-width:0"
   id="path7954" />
<path
   inkscape:connector-curvature="0"
   d="m 235.17,709.61 v 0.07 0.08 0.08 l -0.01,0.08 v 0.17 l -0.02,0.17 -0.01,0.18 -0.02,0.19 -0.03,0.2 -0.03,0.2 -0.04,0.2 -0.05,0.21 -0.05,0.21 -0.06,0.21 -0.07,0.21 -0.08,0.21 -0.05,0.11 -0.04,0.11 -0.05,0.1 -0.05,0.11 c -0.6,1.22 -1.45,1.87 -1.55,1.87 -0.06,0 -0.1,-0.04 -0.1,-0.1 0,-0.03 0,-0.05 0.19,-0.23 0.97,-0.99 1.54,-2.57 1.54,-4.64 0,-1.7 -0.37,-3.45 -1.6,-4.7 -0.13,-0.12 -0.13,-0.14 -0.13,-0.17 0,-0.06 0.04,-0.1 0.1,-0.1 0.1,0 0.99,0.68 1.58,1.94 0.51,1.09 0.63,2.19 0.63,3.03 z"
   style="fill:#000000;stroke-width:0"
   id="path7956" />
<path
   inkscape:connector-curvature="0"
   d="m 239.18,710.35 h 0.97 c 0.75,0 0.83,-0.15 0.83,-0.44 0,-0.07 0,-0.19 -0.07,-0.49 -0.02,-0.05 -0.03,-0.09 -0.03,-0.11 0,-0.08 0.06,-0.12 0.12,-0.12 0.1,0 0.1,0.03 0.15,0.21 l 0.55,2.15 c 0.03,0.11 0.03,0.13 0.03,0.16 0,0.02 -0.02,0.11 -0.12,0.11 -0.1,0 -0.11,-0.05 -0.15,-0.21 -0.21,-0.77 -0.44,-0.95 -1.29,-0.95 h -0.91 l 0.64,2.52 c 0.09,0.35 0.1,0.39 0.54,0.39 h 1.32 c 1.22,0 1.45,-0.33 1.45,-1.09 0,-0.23 0,-0.27 -0.03,-0.54 -0.02,-0.13 -0.02,-0.15 -0.02,-0.18 0,-0.05 0.03,-0.11 0.12,-0.11 0.11,0 0.12,0.06 0.14,0.24 l 0.2,1.72 c 0.03,0.27 -0.02,0.27 -0.27,0.27 h -4.88 c -0.2,0 -0.3,0 -0.3,-0.2 0,-0.11 0.09,-0.11 0.28,-0.11 0.37,0 0.64,0 0.64,-0.18 0,-0.04 0,-0.06 -0.05,-0.23 l -1.31,-5.26 c -0.1,-0.39 -0.12,-0.47 -0.91,-0.47 -0.17,0 -0.28,0 -0.28,-0.19 0,-0.11 0.12,-0.11 0.15,-0.11 0.29,0 1.03,0.03 1.32,0.03 0.33,0 1.15,-0.03 1.48,-0.03 0.09,0 0.21,0 0.21,0.18 0,0.08 -0.06,0.1 -0.06,0.11 -0.03,0.01 -0.05,0.01 -0.28,0.01 -0.22,0 -0.27,0 -0.51,0.02 -0.3,0.03 -0.33,0.07 -0.33,0.2 0,0.02 0,0.08 0.05,0.23 z"
   style="fill:#000000;stroke-width:0"
   id="path7958" />
<path
   inkscape:connector-curvature="0"
   d="m 245.55,707.9 -0.01,-0.04 -0.01,-0.03 -0.01,-0.03 -0.01,-0.03 v -0.03 l -0.01,-0.03 -0.01,-0.02 -0.01,-0.03 -0.01,-0.02 -0.02,-0.02 -0.01,-0.02 -0.01,-0.02 -0.02,-0.02 -0.02,-0.01 -0.02,-0.02 -0.02,-0.01 -0.02,-0.01 -0.02,-0.01 -0.03,-0.01 -0.03,-0.01 -0.03,-0.01 h -0.02 l -0.02,-0.01 h -0.02 -0.02 l -0.02,-0.01 h -0.02 -0.02 -0.02 l -0.03,-0.01 h -0.02 -0.03 -0.02 -0.03 -0.03 -0.03 -0.03 l -0.03,-0.01 h -0.03 -0.03 -0.04 -0.03 -0.04 c -0.17,0 -0.27,0 -0.27,-0.2 0,-0.1 0.09,-0.1 0.27,-0.1 h 3.56 c 1.58,0 2.75,1.17 2.75,2.14 0,0.72 -0.57,1.29 -1.54,1.4 1.04,0.19 2.08,0.92 2.08,1.87 0,0.73 -0.65,1.37 -1.85,1.37 l -0.14,-0.31 c 0.88,0 1.09,-0.58 1.09,-1.02 0,-0.87 -0.86,-1.82 -2.08,-1.82 h -1.46 l -0.06,-0.22 h 1.89 c 0.96,0 1.15,-0.73 1.15,-1.16 0,-0.98 -0.89,-1.95 -2.07,-1.95 h -1.35 c -0.14,0 -0.16,0 -0.22,0.01 -0.1,0.01 -0.13,0.02 -0.13,0.1 0,0.03 0,0.05 0.05,0.23 l 0.68,2.77 0.06,0.22 0.62,2.46 c 0.09,0.35 0.11,0.38 0.54,0.38 h 1.29 l 0.14,0.31 h -3.35 c -0.19,0 -0.29,0 -0.29,-0.2 0,-0.11 0.09,-0.11 0.28,-0.11 0.02,0 0.21,0 0.38,-0.02 0.18,-0.02 0.27,-0.03 0.27,-0.16 0,-0.04 -0.02,-0.07 -0.04,-0.19 z"
   style="fill:#000000;stroke-width:0"
   id="path7960" />
</g>  </g>
  <g
     id="g8288"
     transform="rotate(-90,106.31695,117.26928)"
     inkscape:label="Source"
     inkscape:export-xdpi="600"
     inkscape:export-ydpi="600">
    <g
       id="g8276"
       inkscape:label="Source">
      <path
         id="path8262"
         inkscape:label="none"
         style="fill:none;stroke:#000000;stroke-width:1;stroke-linecap:round;stroke-linejoin:round;stroke-dasharray:none"
         d="m 90,100 h 24"
         inkscape:connector-curvature="0" />
      <path
         id="path8264"
         inkscape:label="none"
         style="fill:none;stroke:#000000;stroke-width:1;stroke-linecap:round;stroke-linejoin:round;stroke-dasharray:none"
         d="M 140,100 H 117"
         inkscape:connector-curvature="0" />
      <path
         id="path8266"
         inkscape:label="none"
         style="fill:none;stroke:#000000;stroke-width:0.60000002;stroke-linecap:round;stroke-linejoin:round;stroke-dasharray:none"
         d="m 121,96 h -2"
         inkscape:connector-curvature="0" />
      <path
         id="path8268"
         inkscape:label="none"
         style="fill:none;stroke:#000000;stroke-width:0.60000002;stroke-linecap:round;stroke-linejoin:round;stroke-dasharray:none"
         d="m 120,95 v 2"
         inkscape:connector-curvature="0" />
      <path
         id="path8270"
         inkscape:label="none"
         style="fill:none;stroke:#000000;stroke-width:0.60000002;stroke-linecap:round;stroke-linejoin:round;stroke-dasharray:none"
         d="m 111,95 v 2"
         inkscape:connector-curvature="0" />
      <path
         id="path8272"
         inkscape:label="none"
         style="fill:none;stroke:#000000;stroke-width:1;stroke-linecap:round;stroke-linejoin:round;stroke-dasharray:none"
         d="M 114,103 V 97"
         inkscape:connector-curvature="0" />
      <path
         id="path8274"
         inkscape:label="none"
         style="fill:none;stroke:#000000;stroke-width:1;stroke-linecap:round;stroke-linejoin:round;stroke-dasharray:none"
         d="M 117,107 V 93"
         inkscape:connector-curvature="0" />
    </g>
    <g
       transform="matrix(0,0.739645,0.739645,0,-410.4512,-55.238836)"
       ns0:preamble="C:\\Program Files\\Inkscape\\share\\extensions/textextLib/CircuitSymbolsLatexPreamble.tex"
       ns0:text=" $2.5V$"
       word-spacing="normal"
       letter-spacing="normal"
       font-size-adjust="none"
       font-stretch="normal"
       font-weight="normal"
       font-variant="normal"
       font-style="normal"
       stroke-miterlimit="10.433"
       xml:space="preserve"
       id="g8286"
       style="font-style:normal;font-variant:normal;font-weight:normal;font-stretch:normal;letter-spacing:normal;word-spacing:normal;text-anchor:start;fill:none;fill-opacity:1;fill-rule:evenodd;stroke:#000000;stroke-linecap:butt;stroke-linejoin:miter;stroke-miterlimit:10.43299961;stroke-dasharray:none;stroke-dashoffset:0;stroke-opacity:1">
<path
   id="path8278"
   style="fill:#000000;stroke-width:0"
   d="m 224.7,707.89 1.06,1.02 c 1.55,1.37 2.15,1.91 2.15,2.9 0,1.14 -0.9,1.93 -2.12,1.93 -1.12,0 -1.86,-0.91 -1.86,-1.8 0,-0.55 0.5,-0.55 0.53,-0.55 0.17,0 0.52,0.12 0.52,0.52 0,0.26 -0.18,0.52 -0.53,0.52 -0.08,0 -0.1,0 -0.13,-0.01 0.23,0.65 0.77,1.01 1.35,1.01 0.9,0 1.33,-0.8 1.33,-1.62 0,-0.79 -0.5,-1.58 -1.04,-2.19 l -1.92,-2.13 c -0.11,-0.11 -0.11,-0.13 -0.11,-0.36 h 3.7 l 0.28,1.72 h -0.25 c -0.05,-0.3 -0.12,-0.73 -0.22,-0.88 -0.07,-0.08 -0.73,-0.08 -0.95,-0.08 z"
   inkscape:connector-curvature="0" />
<path
   id="path8280"
   style="fill:#000000;stroke-width:0"
   d="m 230.33,707.65 v 0.03 0.02 l -0.01,0.03 v 0.03 l -0.01,0.02 -0.01,0.03 v 0.02 l -0.01,0.03 -0.01,0.02 -0.02,0.02 -0.01,0.02 -0.01,0.02 -0.02,0.03 -0.01,0.02 -0.02,0.01 -0.02,0.02 -0.02,0.02 -0.02,0.02 -0.02,0.01 -0.02,0.02 -0.02,0.01 -0.02,0.01 -0.02,0.02 -0.03,0.01 -0.02,0.01 h -0.02 l -0.03,0.01 -0.03,0.01 h -0.02 l -0.03,0.01 h -0.02 -0.03 c -0.29,0 -0.53,-0.24 -0.53,-0.53 0,-0.29 0.24,-0.52 0.53,-0.52 0.29,0 0.53,0.23 0.53,0.52 z"
   inkscape:connector-curvature="0" />
<path
   id="path8282"
   style="fill:#000000;stroke-width:0"
   d="m 235.66,709.12 v 0.11 l -0.01,0.11 -0.01,0.11 -0.02,0.1 -0.02,0.11 -0.02,0.1 -0.03,0.1 -0.04,0.1 -0.03,0.1 -0.04,0.09 -0.05,0.09 -0.05,0.09 -0.05,0.09 -0.05,0.08 -0.06,0.08 -0.06,0.07 -0.07,0.08 -0.07,0.06 -0.07,0.07 -0.07,0.06 -0.08,0.06 -0.08,0.05 -0.08,0.05 -0.09,0.04 -0.08,0.04 -0.09,0.04 -0.09,0.03 -0.1,0.02 -0.09,0.02 -0.1,0.02 h -0.1 l -0.1,0.01 c -0.47,0 -0.9,-0.16 -1.26,-0.51 v 1.94 c 0.2,-0.06 0.53,-0.13 0.85,-0.13 1.22,0 1.92,0.9 1.92,1.03 0,0.06 -0.03,0.11 -0.1,0.11 -0.01,0 -0.03,0 -0.08,-0.03 -0.2,-0.09 -0.69,-0.29 -1.36,-0.29 -0.39,0 -0.85,0.07 -1.32,0.28 -0.08,0.03 -0.1,0.03 -0.12,0.03 -0.1,0 -0.1,-0.08 -0.1,-0.24 v -2.94 c 0,-0.18 0,-0.26 0.14,-0.26 0.07,0 0.09,0.03 0.13,0.09 0.11,0.16 0.48,0.7 1.28,0.7 0.52,0 0.77,-0.46 0.85,-0.64 0.16,-0.36 0.18,-0.75 0.18,-1.25 0,-0.35 0,-0.94 -0.24,-1.36 -0.24,-0.39 -0.61,-0.65 -1.07,-0.65 -0.72,0 -1.29,0.53 -1.46,1.12 0.03,-0.01 0.06,-0.02 0.17,-0.02 0.33,0 0.5,0.25 0.5,0.48 0,0.24 -0.17,0.49 -0.5,0.49 -0.14,0 -0.49,-0.07 -0.49,-0.53 0,-0.85 0.69,-1.81 1.81,-1.81 1.15,0 2.17,0.95 2.17,2.21 z"
   inkscape:connector-curvature="0" />
<path
   id="path8284"
   style="fill:#000000;stroke-width:0"
   d="m 242.43,712.78 0.04,0.07 0.05,0.06 0.04,0.07 0.04,0.05 0.05,0.06 0.04,0.05 0.05,0.05 0.04,0.04 0.04,0.04 0.04,0.04 0.04,0.03 0.05,0.03 0.04,0.03 0.04,0.03 0.04,0.02 0.04,0.02 0.04,0.02 0.04,0.02 0.04,0.01 0.03,0.02 0.04,0.01 0.04,0.01 0.04,0.01 h 0.03 l 0.04,0.01 h 0.04 l 0.07,0.01 0.07,0.01 h 0.07 c 0.12,0.01 0.13,0.18 0.13,0.19 0,0.08 -0.05,0.12 -0.13,0.12 -0.26,0 -0.55,-0.03 -0.82,-0.03 -0.33,0 -0.67,0.03 -0.98,0.03 -0.06,0 -0.19,0 -0.19,-0.19 0,-0.11 0.09,-0.12 0.16,-0.12 0.26,-0.02 0.45,-0.12 0.45,-0.33 0,-0.14 -0.14,-0.36 -0.14,-0.37 l -3.07,-4.85 -0.67,5.25 c 0,0.17 0.22,0.3 0.68,0.3 0.14,0 0.25,0 0.25,0.2 0,0.09 -0.08,0.11 -0.14,0.11 -0.4,0 -0.82,-0.03 -1.23,-0.03 -0.18,0 -0.37,0.01 -0.55,0.01 -0.18,0 -0.37,0.02 -0.54,0.02 -0.07,0 -0.19,0 -0.19,-0.19 0,-0.12 0.09,-0.12 0.25,-0.12 0.56,0 0.57,-0.09 0.6,-0.34 l 0.79,-6.12 c 0.03,-0.2 0.07,-0.23 0.19,-0.23 0.16,0 0.21,0.05 0.28,0.18 z"
   inkscape:connector-curvature="0" />
</g>  </g>
  <g
     inkscape:label="GND"
     transform="translate(19.047675,13.586229)"
     id="g8622"
     inkscape:export-xdpi="600"
     inkscape:export-ydpi="600">
    <g
       inkscape:label="GND"
       id="g8620">
      <path
         inkscape:connector-curvature="0"
         d="m 70,120 v 10"
         style="fill:none;stroke:#000000;stroke-width:1;stroke-linecap:round;stroke-linejoin:round;stroke-dasharray:none"
         inkscape:label="none"
         id="path8612" />
      <path
         inkscape:connector-curvature="0"
         d="M 77,130 H 63"
         style="fill:none;stroke:#000000;stroke-width:1;stroke-linecap:round;stroke-linejoin:round;stroke-dasharray:none"
         inkscape:label="none"
         id="path8614" />
      <path
         inkscape:connector-curvature="0"
         d="m 73.5,132 h -7"
         style="fill:none;stroke:#000000;stroke-width:1;stroke-linecap:round;stroke-linejoin:round;stroke-dasharray:none"
         inkscape:label="none"
         id="path8616" />
      <path
         inkscape:connector-curvature="0"
         d="M 71,134 H 69"
         style="fill:none;stroke:#000000;stroke-width:1;stroke-linecap:round;stroke-linejoin:round;stroke-dasharray:none"
         inkscape:label="none"
         id="path8618" />
    </g>
  </g>
  <g
     transform="translate(-36.494726,-16.413925)"
     id="g8974"
     inkscape:label="Resistor"
     inkscape:export-xdpi="600"
     inkscape:export-ydpi="600">
    <g
       id="g8966">
      <path
         inkscape:connector-curvature="0"
         id="path8964"
         inkscape:label="none"
         style="fill:none;stroke:#000000;stroke-width:1;stroke-linecap:round;stroke-linejoin:round;stroke-dasharray:none"
         d="m 40,80 h 15.5 l 2,3 3,-6 3,6 3,-6 3,6 3,-6 2,3 H 90" />
    </g>
    <g
       style="font-style:normal;font-variant:normal;font-weight:normal;font-stretch:normal;letter-spacing:normal;word-spacing:normal;text-anchor:start;fill:none;fill-opacity:1;fill-rule:evenodd;stroke:#000000;stroke-linecap:butt;stroke-linejoin:miter;stroke-miterlimit:10.43299961;stroke-dasharray:none;stroke-dashoffset:0;stroke-opacity:1"
       transform="matrix(0.739645,0,0,-0.739645,-104.53773,595.47882)"
       ns0:preamble="C:\\Program Files\\Inkscape\\share\\extensions/textextLib/CircuitSymbolsLatexPreamble.tex"
       ns0:text=" $R_8$"
       word-spacing="normal"
       letter-spacing="normal"
       font-size-adjust="none"
       font-stretch="normal"
       font-weight="normal"
       font-variant="normal"
       font-style="normal"
       stroke-miterlimit="10.433"
       xml:space="preserve"
       id="g8972">
<path
   inkscape:connector-curvature="0"
   id="path8968"
   style="fill:#000000;stroke-width:0"
   d="m 228.61,710.5 0.09,0.02 0.1,0.03 0.09,0.03 0.1,0.03 0.1,0.03 0.09,0.03 0.1,0.04 0.1,0.04 0.09,0.05 0.09,0.04 0.09,0.05 0.09,0.05 0.09,0.05 0.09,0.06 0.08,0.06 0.08,0.06 0.08,0.06 0.07,0.06 0.08,0.07 0.06,0.07 0.07,0.07 0.06,0.07 0.05,0.08 0.05,0.08 0.05,0.08 0.03,0.08 0.04,0.08 0.03,0.09 0.02,0.09 0.02,0.09 0.01,0.09 v 0.09 c 0,0.85 -0.9,1.49 -2.2,1.49 h -2.84 c -0.2,0 -0.29,0 -0.29,-0.2 0,-0.11 0.09,-0.11 0.28,-0.11 0.01,0 0.21,0 0.38,-0.02 0.17,-0.02 0.26,-0.03 0.26,-0.16 0,-0.04 -0.01,-0.07 -0.04,-0.19 l -1.33,-5.33 c -0.1,-0.39 -0.12,-0.47 -0.91,-0.47 -0.18,0 -0.27,0 -0.27,-0.2 0,-0.1 0.12,-0.1 0.14,-0.1 0.28,0 0.98,0.03 1.26,0.03 0.28,0 0.98,-0.03 1.26,-0.03 0.08,0 0.2,0 0.2,0.19 0,0.11 -0.09,0.11 -0.28,0.11 -0.37,0 -0.65,0 -0.65,0.18 0,0.06 0.02,0.11 0.03,0.17 l 0.66,2.63 h 1.19 l -0.01,0.22 h -1.12 l 0.65,2.59 c 0.06,0.24 0.09,0.34 0.28,0.37 0.09,0.01 0.41,0.01 0.61,0.01 0.71,0 1.81,0 1.81,-0.98 0,-0.34 -0.16,-1.03 -0.55,-1.41 -0.25,-0.26 -0.78,-0.58 -1.68,-0.58 l 0.01,-0.22 c 0.91,0 1.09,-0.55 1.09,-0.9 0,-0.15 -0.08,-0.46 -0.14,-0.69 -0.07,-0.27 -0.16,-0.64 -0.16,-0.84 0,-1.07 1.19,-1.07 1.32,-1.07 0.85,0 1.2,1 1.2,1.14 0,0.12 -0.11,0.12 -0.12,0.12 -0.09,0 -0.11,-0.07 -0.13,-0.14 -0.25,-0.74 -0.68,-0.9 -0.91,-0.9 -0.32,0 -0.4,0.21 -0.4,0.6 0,0.31 0.06,0.82 0.11,1.13 0.01,0.14 0.03,0.33 0.03,0.47 0,0.76 -0.66,1.07 -0.93,1.17 z" />
<path
   inkscape:connector-curvature="0"
   id="path8970"
   style="fill:#000000;stroke-width:0"
   d="m 233.48,708.14 0.05,0.03 0.05,0.02 0.05,0.03 0.04,0.02 0.05,0.03 0.04,0.03 0.05,0.02 0.04,0.03 0.04,0.03 0.04,0.03 0.04,0.03 0.03,0.03 0.04,0.03 0.03,0.03 0.03,0.03 0.03,0.04 0.03,0.03 0.03,0.03 0.02,0.04 0.02,0.03 0.03,0.04 0.02,0.03 0.01,0.04 0.02,0.04 0.02,0.04 0.01,0.04 0.01,0.04 0.01,0.04 v 0.04 l 0.01,0.04 v 0.05 0.04 c 0,0.68 -0.7,1.04 -1.38,1.04 l -0.01,-0.2 c 0.54,0 1.02,-0.34 1.02,-0.84 0,-0.62 -0.72,-0.93 -0.74,-0.93 -0.01,0 -0.03,0.01 -0.07,0.04 l -0.85,0.48 c -0.18,0.11 -0.38,0.29 -0.38,0.55 0,0.44 0.51,0.7 1.02,0.7 l 0.01,0.2 c -0.77,0 -1.4,-0.5 -1.4,-1.16 0,-0.33 0.15,-0.57 0.28,-0.7 0.13,-0.15 0.18,-0.18 0.59,-0.42 -0.39,-0.17 -1.08,-0.55 -1.08,-1.27 0,-0.78 0.8,-1.21 1.6,-1.21 l 0.01,0.22 c -0.64,0 -1.2,0.42 -1.2,0.99 0,0.51 0.39,0.91 0.89,1.14 v 0 l 0.96,-0.55 c 0.18,-0.11 0.53,-0.32 0.53,-0.73 0,-0.52 -0.58,-0.85 -1.18,-0.85 l -0.01,-0.22 c 0.88,0 1.61,0.56 1.61,1.32 0,0.46 -0.27,0.84 -0.68,1.08 -0.09,0.06 -0.33,0.2 -0.43,0.25 z" />
</g>  </g>
  <g
     inkscape:label="GND"
     transform="rotate(-180,38.102299,81.464749)"
     id="g9338"
     inkscape:export-xdpi="600"
     inkscape:export-ydpi="600">
    <g
       style="font-style:normal;font-variant:normal;font-weight:normal;font-stretch:normal;letter-spacing:normal;word-spacing:normal;text-anchor:start;fill:none;fill-opacity:1;fill-rule:evenodd;stroke:#000000;stroke-linecap:butt;stroke-linejoin:miter;stroke-miterlimit:10.43299961;stroke-dasharray:none;stroke-dashoffset:0;stroke-opacity:1"
       id="g9336"
       xml:space="preserve"
       stroke-miterlimit="10.433"
       font-style="normal"
       font-variant="normal"
       font-weight="normal"
       font-stretch="normal"
       font-size-adjust="none"
       letter-spacing="normal"
       word-spacing="normal"
       ns0:text=" $10K$"
       ns0:preamble="C:\\Program Files\\Inkscape\\share\\extensions/textextLib/CircuitSymbolsLatexPreamble.tex"
       transform="matrix(-0.739645,0,0,0.739645,219.76806,-433.7335)">
<path
   inkscape:connector-curvature="0"
   d="m 226.36,713.48 v 0.01 0.01 0.02 0.01 0 0.01 0.01 0.01 0.01 0.01 0.01 0.01 0 0.01 0.01 0 0.01 0.01 0.01 l -0.01,0.01 v 0.01 0.01 l -0.01,0.01 v 0 0.01 l -0.01,0.01 h -0.01 v 0.01 h -0.01 l -0.01,0.01 h -0.01 v 0 h -0.01 v 0 h -0.01 v 0 l -0.01,0.01 h -0.01 v 0 h -0.01 -0.01 v 0 h -0.01 -0.01 -0.01 -0.01 -0.01 -0.01 -0.01 -0.01 -0.01 -0.01 c -0.61,-0.64 -1.49,-0.64 -1.81,-0.64 v -0.3 c 0.2,0 0.79,0 1.31,0.25 v -5.14 c 0,-0.36 -0.03,-0.48 -0.93,-0.48 h -0.32 v -0.3 c 0.35,0.03 1.22,0.03 1.61,0.03 0.4,0 1.27,0 1.62,-0.03 v 0.3 h -0.32 c -0.9,0 -0.93,0.11 -0.93,0.48 z"
   style="fill:#000000;stroke-width:0"
   id="path9330" />
<path
   inkscape:connector-curvature="0"
   d="m 233,710.3 v 0.15 0.15 l -0.01,0.15 v 0.15 l -0.01,0.15 -0.01,0.14 -0.02,0.15 -0.02,0.15 -0.02,0.14 -0.03,0.15 -0.03,0.14 -0.04,0.15 -0.04,0.14 -0.05,0.14 -0.06,0.14 -0.03,0.07 -0.03,0.07 c -0.46,0.95 -1.28,1.11 -1.69,1.11 -0.6,0 -1.33,-0.26 -1.74,-1.18 -0.32,-0.69 -0.37,-1.46 -0.37,-2.26 0,-0.74 0.04,-1.64 0.45,-2.39 0.43,-0.81 1.16,-1 1.65,-1 v 0.22 c -0.39,0 -0.98,0.24 -1.16,1.2 -0.11,0.59 -0.11,1.51 -0.11,2.09 0,0.64 0,1.29 0.08,1.83 0.19,1.18 0.94,1.27 1.19,1.27 0.33,0 0.98,-0.18 1.17,-1.16 0.1,-0.56 0.1,-1.31 0.1,-1.94 0,-0.74 0,-1.42 -0.11,-2.05 -0.15,-0.95 -0.71,-1.24 -1.16,-1.24 v 0 -0.22 c 0.53,0 1.29,0.2 1.73,1.15 0.32,0.68 0.37,1.46 0.37,2.24 z"
   style="fill:#000000;stroke-width:0"
   id="path9332" />
<path
   inkscape:connector-curvature="0"
   d="m 238.47,711.14 v 0 0 0.01 0 l -0.01,0.01 v 0 0 0.01 0 l -0.01,0.01 v 0 0.01 0.01 l -0.01,0.01 v 0.01 l -0.01,0.01 v 0 0.01 0 0.01 0 l -0.01,0.01 v 0 0 0.01 0 0 0.01 c 0,0.01 0.18,0.15 0.29,0.23 l 1.75,1.34 c 0.93,0.68 1.32,0.72 1.62,0.75 0.08,0.01 0.18,0.02 0.18,0.2 0,0.04 -0.03,0.11 -0.11,0.11 -0.22,0 -0.47,-0.03 -0.71,-0.03 -0.36,0 -0.74,0.03 -1.1,0.03 -0.07,0 -0.19,0 -0.19,-0.2 0,-0.07 0.05,-0.1 0.12,-0.11 0.22,-0.02 0.3,-0.07 0.3,-0.21 0,-0.18 -0.29,-0.4 -0.35,-0.45 l -3.89,-2.98 0.8,3.19 c 0.08,0.35 0.1,0.45 0.83,0.45 0.25,0 0.34,0 0.34,0.2 0,0.09 -0.08,0.11 -0.14,0.11 -0.28,0 -1,-0.03 -1.28,-0.03 -0.28,0 -0.99,0.03 -1.28,0.03 -0.07,0 -0.2,0 -0.2,-0.19 0,-0.12 0.09,-0.12 0.29,-0.12 0.13,0 0.31,-0.01 0.43,-0.02 0.16,-0.02 0.22,-0.05 0.22,-0.16 0,-0.04 -0.01,-0.07 -0.04,-0.19 l -1.34,-5.33 c -0.1,-0.39 -0.12,-0.47 -0.91,-0.47 -0.17,0 -0.28,0 -0.28,-0.19 0,-0.11 0.12,-0.11 0.15,-0.11 0.28,0 0.99,0.03 1.27,0.03 0.21,0 0.43,-0.01 0.64,-0.01 0.22,0 0.44,-0.02 0.65,-0.02 0.07,0 0.2,0 0.2,0.19 0,0.11 -0.09,0.11 -0.28,0.11 -0.37,0 -0.65,0 -0.65,0.18 0,0.07 0.06,0.29 0.09,0.44 0.14,0.52 0.27,1.04 0.4,1.56 l 1.48,1.15 1.16,-2.67 c 0.12,-0.27 0.12,-0.29 0.12,-0.35 0,-0.3 -0.43,-0.31 -0.52,-0.31 -0.11,0 -0.22,0 -0.22,-0.2 0,-0.1 0.12,-0.1 0.14,-0.1 0.4,0 0.82,0.03 1.22,0.03 0.22,0 0.76,-0.03 0.98,-0.03 0.05,0 0.17,0 0.17,0.19 0,0.11 -0.11,0.11 -0.2,0.11 -0.4,0.01 -0.53,0.1 -0.68,0.45 z"
   style="fill:#000000;stroke-width:0"
   id="path9334" />
</g>  </g>
  <path
     inkscape:original-d="M 53.505274,63.586072 V 38.623432"
     inkscape:path-effect="#path-effect9524"
     inkscape:connector-curvature="0"
     id="path9522"
     d="M 53.505274,63.586072 V 38.623432"
     style="fill:none;stroke:#000000;stroke-width:1;stroke-linecap:butt;stroke-linejoin:miter;stroke-miterlimit:4;stroke-dasharray:none;stroke-opacity:1"
     inkscape:export-xdpi="600"
     inkscape:export-ydpi="600" />
  <path
     inkscape:original-d="M 89.047678,63.586228 53.505274,63.586072"
     inkscape:path-effect="#path-effect9528"
     inkscape:connector-curvature="0"
     id="path9526"
     d="M 89.047678,63.586228 53.505274,63.586072"
     style="fill:none;stroke:#000000;stroke-width:1;stroke-linecap:butt;stroke-linejoin:miter;stroke-miterlimit:4;stroke-dasharray:none;stroke-opacity:1;marker-end:url(#marker9568)"
     inkscape:export-xdpi="600"
     inkscape:export-ydpi="600" />
  <g
     id="g9789"
     transform="rotate(-180,36.752958,86.80148)"
     inkscape:label="GND"
     inkscape:export-xdpi="600"
     inkscape:export-ydpi="600">
    <g
       id="g9781"
       inkscape:label="GND">
      <circle
         id="path9779"
         inkscape:label="circle"
         style="fill:#000000;stroke:#000000;stroke-width:0.69999999;stroke-linecap:round;stroke-linejoin:round;stroke-dasharray:none"
         cx="70"
         cy="110"
         r="1" />
    </g>
    <g
       transform="matrix(-0.739645,0,0,0.739645,239.179,-421.37329)"
       ns0:preamble="C:\\Program Files\\Inkscape\\share\\extensions/textextLib/CircuitSymbolsLatexPreamble.tex"
       ns0:text=" $V_f$"
       word-spacing="normal"
       letter-spacing="normal"
       font-size-adjust="none"
       font-stretch="normal"
       font-weight="normal"
       font-variant="normal"
       font-style="normal"
       stroke-miterlimit="10.433"
       xml:space="preserve"
       id="g9787"
       style="font-style:normal;font-variant:normal;font-weight:normal;font-stretch:normal;letter-spacing:normal;word-spacing:normal;text-anchor:start;fill:none;fill-opacity:1;fill-rule:evenodd;stroke:#000000;stroke-linecap:butt;stroke-linejoin:miter;stroke-miterlimit:10.43299961;stroke-dasharray:none;stroke-dashoffset:0;stroke-opacity:1">
<path
   id="path9783"
   style="fill:#000000;stroke-width:0"
   d="m 229.7,712.78 0.04,0.07 0.05,0.06 0.04,0.07 0.04,0.05 0.05,0.06 0.04,0.05 0.05,0.05 0.04,0.04 0.04,0.04 0.04,0.04 0.04,0.03 0.05,0.03 0.04,0.03 0.04,0.03 0.04,0.02 0.04,0.02 0.04,0.02 0.04,0.02 0.04,0.01 0.03,0.02 0.04,0.01 0.04,0.01 0.04,0.01 h 0.03 l 0.04,0.01 h 0.04 l 0.07,0.01 0.07,0.01 h 0.07 c 0.12,0.01 0.13,0.18 0.13,0.19 0,0.08 -0.05,0.12 -0.13,0.12 -0.26,0 -0.55,-0.03 -0.82,-0.03 -0.33,0 -0.66,0.03 -0.98,0.03 -0.06,0 -0.19,0 -0.19,-0.19 0,-0.11 0.09,-0.12 0.16,-0.12 0.26,-0.02 0.46,-0.12 0.46,-0.33 0,-0.14 -0.15,-0.36 -0.15,-0.37 l -3.07,-4.85 -0.67,5.25 c 0,0.17 0.22,0.3 0.68,0.3 0.14,0 0.25,0 0.25,0.2 0,0.09 -0.08,0.11 -0.14,0.11 -0.4,0 -0.82,-0.03 -1.23,-0.03 -0.18,0 -0.37,0.01 -0.55,0.01 -0.18,0 -0.37,0.02 -0.54,0.02 -0.07,0 -0.19,0 -0.19,-0.19 0,-0.12 0.09,-0.12 0.25,-0.12 0.56,0 0.57,-0.09 0.6,-0.34 l 0.79,-6.12 c 0.03,-0.2 0.07,-0.23 0.19,-0.23 0.17,0 0.2,0.05 0.28,0.18 z"
   inkscape:connector-curvature="0" />
<path
   id="path9785"
   style="fill:#000000;stroke-width:0"
   d="m 232.09,708.38 h 0.68 c 0.14,0 0.24,0 0.24,0.15 0,0.1 -0.1,0.1 -0.22,0.1 h -0.65 c 0.16,0.88 0.21,1.2 0.27,1.4 0.04,0.16 0.19,0.3 0.36,0.3 0,0 0.19,0 0.33,-0.08 -0.29,-0.09 -0.31,-0.34 -0.31,-0.38 0,-0.16 0.12,-0.26 0.28,-0.26 0.19,0 0.4,0.16 0.4,0.42 0,0.32 -0.34,0.5 -0.7,0.5 -0.31,0 -0.65,-0.18 -0.84,-0.52 -0.14,-0.26 -0.2,-0.58 -0.34,-1.38 h -0.56 c -0.14,0 -0.23,0 -0.23,-0.16 0,-0.09 0.09,-0.09 0.22,-0.09 h 0.52 c -0.01,-0.04 -0.45,-2.55 -0.62,-3.29 -0.03,-0.15 -0.15,-0.68 -0.49,-0.68 0,0 -0.17,0 -0.3,0.08 0.28,0.09 0.3,0.34 0.3,0.38 0,0.16 -0.12,0.26 -0.28,0.26 -0.19,0 -0.4,-0.16 -0.4,-0.42 0,-0.32 0.33,-0.5 0.68,-0.5 0.45,0 0.76,0.46 0.84,0.61 0.25,0.47 0.41,1.33 0.43,1.41 z"
   inkscape:connector-curvature="0" />
</g>  </g>
  <path
     style="fill:none;stroke:#000000;stroke-width:1;stroke-linecap:butt;stroke-linejoin:miter;stroke-opacity:1;stroke-miterlimit:4;stroke-dasharray:none"
     d="M 264.02424,73.582619 V 40.279835"
     id="path1203"
     inkscape:connector-curvature="0"
     inkscape:path-effect="#path-effect1205"
     inkscape:original-d="M 264.02424,73.582619 V 40.279835" />
</svg>
