<?xml version="1.0" encoding="UTF-8" standalone="no"?>
<!-- Created with Inkscape (http://www.inkscape.org/) -->

<svg
   xmlns:ns0="http://www.iki.fi/pav/software/textext/"
   xmlns:dc="http://purl.org/dc/elements/1.1/"
   xmlns:cc="http://creativecommons.org/ns#"
   xmlns:rdf="http://www.w3.org/1999/02/22-rdf-syntax-ns#"
   xmlns:svg="http://www.w3.org/2000/svg"
   xmlns="http://www.w3.org/2000/svg"
   xmlns:sodipodi="http://sodipodi.sourceforge.net/DTD/sodipodi-0.dtd"
   xmlns:inkscape="http://www.inkscape.org/namespaces/inkscape"
   sodipodi:docname="EncendidoTeorico.svg"
   inkscape:version="0.92.3 (2405546, 2018-03-11)"
   id="svg8"
   version="1.1"
   viewBox="0 0 113.44106 113.95975"
   height="113.95975mm"
   width="113.44106mm">
  <sodipodi:namedview
     inkscape:window-maximized="1"
     inkscape:window-y="-9"
     inkscape:window-x="-9"
     inkscape:window-height="1001"
     inkscape:window-width="1920"
     showgrid="false"
     inkscape:current-layer="svg8"
     inkscape:document-units="mm"
     inkscape:cy="243.23687"
     inkscape:cx="151.28397"
     inkscape:zoom="1.4"
     inkscape:pageshadow="2"
     inkscape:pageopacity="0.0"
     borderopacity="1.0"
     bordercolor="#666666"
     pagecolor="#ffffff"
     id="base"
     fit-margin-top="0"
     fit-margin-left="0"
     fit-margin-right="0"
     fit-margin-bottom="0" />
  <defs
     id="defs2">
    <inkscape:path-effect
       is_visible="true"
       id="path-effect10464"
       effect="spiro" />
    <inkscape:path-effect
       is_visible="true"
       id="path-effect7610"
       effect="spiro" />
    <inkscape:path-effect
       is_visible="true"
       id="path-effect7606"
       effect="spiro" />
    <inkscape:path-effect
       only_selected="false"
       apply_with_weight="true"
       apply_no_weight="true"
       helper_size="0"
       steps="2"
       weight="33.333333"
       is_visible="true"
       id="path-effect7602"
       effect="bspline" />
    <inkscape:path-effect
       effect="spiro"
       id="path-effect7372"
       is_visible="true" />
    <inkscape:path-effect
       effect="spiro"
       id="path-effect7368"
       is_visible="true" />
    <inkscape:path-effect
       effect="spiro"
       id="path-effect7364"
       is_visible="true" />
    <inkscape:path-effect
       is_visible="true"
       id="path-effect7154"
       effect="spiro" />
    <inkscape:path-effect
       is_visible="true"
       id="path-effect7150"
       effect="spiro" />
    <inkscape:path-effect
       is_visible="true"
       id="path-effect7146"
       effect="spiro" />
    <inkscape:path-effect
       is_visible="true"
       id="path-effect7142"
       effect="spiro" />
    <inkscape:path-effect
       is_visible="true"
       id="path-effect7138"
       effect="spiro" />
    <inkscape:path-effect
       is_visible="true"
       id="path-effect7134"
       effect="spiro" />
    <inkscape:path-effect
       is_visible="true"
       id="path-effect7130"
       effect="spiro" />
    <marker
       inkscape:isstock="true"
       style="overflow:visible"
       id="Arrow1Sstart"
       refX="0"
       refY="0"
       orient="auto"
       inkscape:stockid="Arrow1Sstart">
      <path
         transform="matrix(0.2,0,0,0.2,1.2,0)"
         style="fill:#000000;fill-opacity:1;fill-rule:evenodd;stroke:#000000;stroke-width:1.00000003pt;stroke-opacity:1"
         d="M 0,0 5,-5 -12.5,0 5,5 Z"
         id="path4564"
         inkscape:connector-curvature="0" />
    </marker>
    <marker
       inkscape:isstock="true"
       style="overflow:visible"
       id="marker5910"
       refX="0"
       refY="0"
       orient="auto"
       inkscape:stockid="Arrow1Send">
      <path
         transform="matrix(-0.2,0,0,-0.2,-1.2,0)"
         style="fill:#000000;fill-opacity:1;fill-rule:evenodd;stroke:#000000;stroke-width:1.00000003pt;stroke-opacity:1"
         d="M 0,0 5,-5 -12.5,0 5,5 Z"
         id="path5908"
         inkscape:connector-curvature="0" />
    </marker>
    <marker
       inkscape:isstock="true"
       style="overflow:visible"
       id="marker5870"
       refX="0"
       refY="0"
       orient="auto"
       inkscape:stockid="Arrow2Mend">
      <path
         transform="scale(-0.6)"
         d="M 8.7185878,4.0337352 -2.2072895,0.01601326 8.7185884,-4.0017078 c -1.7454984,2.3720609 -1.7354408,5.6174519 -6e-7,8.035443 z"
         style="fill:#000000;fill-opacity:1;fill-rule:evenodd;stroke:#000000;stroke-width:0.625;stroke-linejoin:round;stroke-opacity:1"
         id="path5868"
         inkscape:connector-curvature="0" />
    </marker>
    <marker
       inkscape:isstock="true"
       style="overflow:visible"
       id="marker5826"
       refX="0"
       refY="0"
       orient="auto"
       inkscape:stockid="Arrow2Mstart">
      <path
         transform="scale(0.6)"
         d="M 8.7185878,4.0337352 -2.2072895,0.01601326 8.7185884,-4.0017078 c -1.7454984,2.3720609 -1.7354408,5.6174519 -6e-7,8.035443 z"
         style="fill:#000000;fill-opacity:1;fill-rule:evenodd;stroke:#000000;stroke-width:0.625;stroke-linejoin:round;stroke-opacity:1"
         id="path5824"
         inkscape:connector-curvature="0" />
    </marker>
    <inkscape:path-effect
       is_visible="true"
       id="path-effect5816"
       effect="spiro" />
    <inkscape:path-effect
       is_visible="true"
       id="path-effect5812"
       effect="spiro" />
    <inkscape:path-effect
       is_visible="true"
       id="path-effect5790"
       effect="spiro" />
    <inkscape:path-effect
       is_visible="true"
       id="path-effect5522"
       effect="spiro" />
    <inkscape:path-effect
       is_visible="true"
       id="path-effect5518"
       effect="spiro" />
    <inkscape:path-effect
       is_visible="true"
       id="path-effect5514"
       effect="spiro" />
    <inkscape:path-effect
       is_visible="true"
       id="path-effect5510"
       effect="spiro" />
    <inkscape:path-effect
       effect="spiro"
       id="path-effect5416"
       is_visible="true" />
    <inkscape:path-effect
       effect="bspline"
       id="path-effect5214"
       is_visible="true"
       weight="33.333333"
       steps="2"
       helper_size="0"
       apply_no_weight="true"
       apply_with_weight="true"
       only_selected="false" />
    <inkscape:path-effect
       effect="bspline"
       id="path-effect5210"
       is_visible="true"
       weight="33.333333"
       steps="2"
       helper_size="0"
       apply_no_weight="true"
       apply_with_weight="true"
       only_selected="false" />
    <inkscape:path-effect
       effect="spiro"
       id="path-effect5206"
       is_visible="true" />
    <inkscape:path-effect
       effect="bspline"
       id="path-effect5200"
       is_visible="true"
       weight="33.333333"
       steps="2"
       helper_size="0"
       apply_no_weight="true"
       apply_with_weight="true"
       only_selected="false" />
    <inkscape:path-effect
       effect="bspline"
       id="path-effect5196"
       is_visible="true"
       weight="33.333333"
       steps="2"
       helper_size="0"
       apply_no_weight="true"
       apply_with_weight="true"
       only_selected="false" />
    <inkscape:path-effect
       effect="spiro"
       id="path-effect5174"
       is_visible="true" />
    <marker
       inkscape:collect="always"
       inkscape:stockid="Arrow2Mstart"
       orient="auto"
       refY="0"
       refX="0"
       id="Arrow2Mstart"
       style="overflow:visible"
       inkscape:isstock="true">
      <path
         id="path4576"
         style="fill:#000000;fill-opacity:1;fill-rule:evenodd;stroke:#000000;stroke-width:0.625;stroke-linejoin:round;stroke-opacity:1"
         d="M 8.7185878,4.0337352 -2.2072895,0.01601326 8.7185884,-4.0017078 c -1.7454984,2.3720609 -1.7354408,5.6174519 -6e-7,8.035443 z"
         transform="scale(0.6)"
         inkscape:connector-curvature="0" />
    </marker>
    <marker
       inkscape:stockid="Arrow1Mstart"
       orient="auto"
       refY="0"
       refX="0"
       id="marker4998"
       style="overflow:visible"
       inkscape:isstock="true">
      <path
         id="path4996"
         d="M 0,0 5,-5 -12.5,0 5,5 Z"
         style="fill:#000000;fill-opacity:1;fill-rule:evenodd;stroke:#000000;stroke-width:1.00000003pt;stroke-opacity:1"
         transform="matrix(0.4,0,0,0.4,4,0)"
         inkscape:connector-curvature="0" />
    </marker>
    <marker
       inkscape:collect="always"
       inkscape:stockid="Arrow2Mend"
       orient="auto"
       refY="0"
       refX="0"
       id="marker4952"
       style="overflow:visible"
       inkscape:isstock="true">
      <path
         id="path4950"
         style="fill:#000000;fill-opacity:1;fill-rule:evenodd;stroke:#000000;stroke-width:0.625;stroke-linejoin:round;stroke-opacity:1"
         d="M 8.7185878,4.0337352 -2.2072895,0.01601326 8.7185884,-4.0017078 c -1.7454984,2.3720609 -1.7354408,5.6174519 -6e-7,8.035443 z"
         transform="scale(-0.6)"
         inkscape:connector-curvature="0" />
    </marker>
    <marker
       inkscape:stockid="Arrow1Mstart"
       orient="auto"
       refY="0"
       refX="0"
       id="Arrow1Mstart"
       style="overflow:visible"
       inkscape:isstock="true">
      <path
         id="path4558"
         d="M 0,0 5,-5 -12.5,0 5,5 Z"
         style="fill:#000000;fill-opacity:1;fill-rule:evenodd;stroke:#000000;stroke-width:1.00000003pt;stroke-opacity:1"
         transform="matrix(0.4,0,0,0.4,4,0)"
         inkscape:connector-curvature="0" />
    </marker>
    <marker
       inkscape:isstock="true"
       style="overflow:visible"
       id="marker4868"
       refX="0"
       refY="0"
       orient="auto"
       inkscape:stockid="Arrow2Mend"
       inkscape:collect="always">
      <path
         transform="scale(-0.6)"
         d="M 8.7185878,4.0337352 -2.2072895,0.01601326 8.7185884,-4.0017078 c -1.7454984,2.3720609 -1.7354408,5.6174519 -6e-7,8.035443 z"
         style="fill:#000000;fill-opacity:1;fill-rule:evenodd;stroke:#000000;stroke-width:0.625;stroke-linejoin:round;stroke-opacity:1"
         id="path4866"
         inkscape:connector-curvature="0" />
    </marker>
    <marker
       inkscape:stockid="Arrow2Mend"
       orient="auto"
       refY="0"
       refX="0"
       id="Arrow2Mend"
       style="overflow:visible"
       inkscape:isstock="true"
       inkscape:collect="always">
      <path
         id="path4579"
         style="fill:#000000;fill-opacity:1;fill-rule:evenodd;stroke:#000000;stroke-width:0.625;stroke-linejoin:round;stroke-opacity:1"
         d="M 8.7185878,4.0337352 -2.2072895,0.01601326 8.7185884,-4.0017078 c -1.7454984,2.3720609 -1.7354408,5.6174519 -6e-7,8.035443 z"
         transform="scale(-0.6)"
         inkscape:connector-curvature="0" />
    </marker>
    <marker
       inkscape:stockid="Arrow1Send"
       orient="auto"
       refY="0"
       refX="0"
       id="Arrow1Send"
       style="overflow:visible"
       inkscape:isstock="true">
      <path
         id="path4567"
         d="M 0,0 5,-5 -12.5,0 5,5 Z"
         style="fill:#000000;fill-opacity:1;fill-rule:evenodd;stroke:#000000;stroke-width:1.00000003pt;stroke-opacity:1"
         transform="matrix(-0.2,0,0,-0.2,-1.2,0)"
         inkscape:connector-curvature="0" />
    </marker>
    <inkscape:path-effect
       effect="spiro"
       id="path-effect4532"
       is_visible="true" />
    <inkscape:path-effect
       effect="spiro"
       id="path-effect4528"
       is_visible="true" />
    <inkscape:path-effect
       effect="spiro"
       id="path-effect4532-6"
       is_visible="true" />
    <inkscape:path-effect
       is_visible="true"
       id="path-effect5790-2"
       effect="spiro" />
    <marker
       inkscape:isstock="true"
       style="overflow:visible"
       id="Arrow1Sstart-5"
       refX="0"
       refY="0"
       orient="auto"
       inkscape:stockid="Arrow1Sstart">
      <path
         transform="matrix(0.2,0,0,0.2,1.2,0)"
         style="fill:#000000;fill-opacity:1;fill-rule:evenodd;stroke:#000000;stroke-width:1.00000003pt;stroke-opacity:1"
         d="M 0,0 5,-5 -12.5,0 5,5 Z"
         id="path4564-0"
         inkscape:connector-curvature="0" />
    </marker>
    <marker
       inkscape:isstock="true"
       style="overflow:visible"
       id="marker5910-5"
       refX="0"
       refY="0"
       orient="auto"
       inkscape:stockid="Arrow1Send">
      <path
         transform="matrix(-0.2,0,0,-0.2,-1.2,0)"
         style="fill:#000000;fill-opacity:1;fill-rule:evenodd;stroke:#000000;stroke-width:1.00000003pt;stroke-opacity:1"
         d="M 0,0 5,-5 -12.5,0 5,5 Z"
         id="path5908-9"
         inkscape:connector-curvature="0" />
    </marker>
    <inkscape:path-effect
       is_visible="true"
       id="path-effect5816-2"
       effect="spiro" />
    <marker
       inkscape:isstock="true"
       style="overflow:visible"
       id="Arrow1Sstart-8"
       refX="0"
       refY="0"
       orient="auto"
       inkscape:stockid="Arrow1Sstart">
      <path
         transform="matrix(0.2,0,0,0.2,1.2,0)"
         style="fill:#000000;fill-opacity:1;fill-rule:evenodd;stroke:#000000;stroke-width:1.00000003pt;stroke-opacity:1"
         d="M 0,0 5,-5 -12.5,0 5,5 Z"
         id="path4564-9"
         inkscape:connector-curvature="0" />
    </marker>
    <marker
       inkscape:isstock="true"
       style="overflow:visible"
       id="marker5910-9"
       refX="0"
       refY="0"
       orient="auto"
       inkscape:stockid="Arrow1Send">
      <path
         transform="matrix(-0.2,0,0,-0.2,-1.2,0)"
         style="fill:#000000;fill-opacity:1;fill-rule:evenodd;stroke:#000000;stroke-width:1.00000003pt;stroke-opacity:1"
         d="M 0,0 5,-5 -12.5,0 5,5 Z"
         id="path5908-3"
         inkscape:connector-curvature="0" />
    </marker>
    <inkscape:path-effect
       is_visible="true"
       id="path-effect5816-4"
       effect="spiro" />
    <inkscape:path-effect
       is_visible="true"
       id="path-effect10464-9"
       effect="spiro" />
    <inkscape:path-effect
       is_visible="true"
       id="path-effect10464-3"
       effect="spiro" />
    <marker
       id="arrowVoltageStart"
       orient="auto"
       refX="0"
       refY="0"
       style="overflow:visible"
       inkscape:stockid="arrowVoltageStart">
      <path
         d="M 0,0 5,-5 -12.5,0 5,5 Z"
         style="fill:#217b21;fill-rule:evenodd;stroke:#217b21;stroke-width:1"
         transform="matrix(0.25,0,0,0.25,1.823125,0)"
         id="path15255"
         inkscape:connector-curvature="0" />
    </marker>
    <marker
       id="arrowVoltageEnd"
       orient="auto"
       refX="0"
       refY="0"
       style="overflow:visible"
       inkscape:stockid="arrowVoltageEnd">
      <path
         d="M 0,0 5,-5 -12.5,0 5,5 Z"
         style="fill:#217b21;fill-rule:evenodd;stroke:#217b21;stroke-width:1"
         transform="matrix(-0.25,0,0,-0.25,-1.823125,0)"
         id="path15258"
         inkscape:connector-curvature="0" />
    </marker>
  </defs>
  <metadata
     id="metadata5">
    <rdf:RDF>
      <cc:Work
         rdf:about="">
        <dc:format>image/svg+xml</dc:format>
        <dc:type
           rdf:resource="http://purl.org/dc/dcmitype/StillImage" />
        <dc:title></dc:title>
      </cc:Work>
    </rdf:RDF>
  </metadata>
  <g
     inkscape:label="Layer 1"
     inkscape:groupmode="layer"
     id="layer1"
     transform="translate(-10.774543,-16.730687)">
    <path
       style="fill:none;stroke:#000000;stroke-width:0.5;stroke-linecap:butt;stroke-linejoin:miter;stroke-miterlimit:4;stroke-dasharray:none;stroke-opacity:1;marker-start:url(#Arrow2Mstart);marker-end:url(#marker4952)"
       d="M 18.331845,17.486606 V 129.93452"
       id="path4526"
       inkscape:connector-curvature="0"
       inkscape:path-effect="#path-effect4528"
       inkscape:original-d="M 18.331845,17.486606 V 129.93452"
       inkscape:export-xdpi="600"
       inkscape:export-ydpi="600" />
    <path
       style="fill:none;stroke:#000000;stroke-width:0.5;stroke-linecap:butt;stroke-linejoin:miter;stroke-miterlimit:4;stroke-dasharray:none;stroke-opacity:1;marker-end:url(#marker4868)"
       d="M 16.252976,44.88988 H 121.99742"
       id="path4530"
       inkscape:connector-curvature="0"
       inkscape:path-effect="#path-effect4532"
       inkscape:original-d="M 16.252976,44.88988 H 121.99742"
       inkscape:export-xdpi="600"
       inkscape:export-ydpi="600" />
    <path
       style="fill:none;stroke:#000000;stroke-width:0.5;stroke-linecap:butt;stroke-linejoin:miter;stroke-miterlimit:4;stroke-dasharray:none;stroke-opacity:1;marker-end:url(#Arrow2Mend)"
       d="M 16.252976,102.90922 H 123.45969"
       id="path4530-4"
       inkscape:connector-curvature="0"
       inkscape:path-effect="#path-effect4532-6"
       inkscape:original-d="M 16.252976,102.90922 H 123.45969"
       inkscape:export-xdpi="600"
       inkscape:export-ydpi="600" />
    <path
       style="fill:none;stroke:#0000ff;stroke-width:0.26458332px;stroke-linecap:butt;stroke-linejoin:miter;stroke-opacity:1"
       d="M 41.092688,34.006784 H 58.231349"
       id="path5204"
       inkscape:connector-curvature="0"
       inkscape:path-effect="#path-effect5206"
       inkscape:original-d="M 41.092688,34.006784 H 58.231349"
       inkscape:export-xdpi="600"
       inkscape:export-ydpi="600" />
    <path
       style="fill:none;stroke:#0000e3;stroke-width:0.26458332px;stroke-linecap:butt;stroke-linejoin:miter;stroke-opacity:1"
       d="m 58.231349,34.006784 c 4.602594,-2.657309 9.204877,-5.314438 17.461962,-6.642913 8.257085,-1.328474 20.170643,-1.328474 32.083119,-1.328474"
       id="path5208"
       inkscape:connector-curvature="0"
       inkscape:path-effect="#path-effect5210"
       inkscape:original-d="m 58.231349,34.006784 c 4.602546,-2.657393 9.204827,-5.314524 13.806847,-7.971387 11.9122,-2.65e-4 23.825758,-2.65e-4 35.738234,0"
       inkscape:export-xdpi="600"
       inkscape:export-ydpi="600" />
    <path
       style="fill:none;stroke:#0000ff;stroke-width:0.26458332px;stroke-linecap:butt;stroke-linejoin:miter;stroke-opacity:1"
       d="m 18.37478,44.630747 c 2.427939,-2.873432 4.855637,-5.74658 8.641726,-7.517084 3.786089,-1.770504 8.931537,-2.438743 14.076182,-3.106879"
       id="path5212"
       inkscape:connector-curvature="0"
       inkscape:path-effect="#path-effect5214"
       inkscape:original-d="m 18.37478,44.630747 c 2.427963,-2.873412 4.855661,-5.74656 7.283094,-8.619442 5.144692,-0.668372 10.29014,-1.336612 15.434814,-2.004521"
       inkscape:export-xdpi="600"
       inkscape:export-ydpi="600" />
    <path
       style="fill:none;stroke:#000000;stroke-width:0.26458332;stroke-linecap:butt;stroke-linejoin:miter;stroke-miterlimit:4;stroke-dasharray:0.52916663, 0.52916663;stroke-dashoffset:0;stroke-opacity:1"
       d="M 107.6428,24.585533 H 18.308222"
       id="path5414"
       inkscape:connector-curvature="0"
       inkscape:path-effect="#path-effect5416"
       inkscape:original-d="M 107.6428,24.585533 H 18.308222"
       inkscape:export-xdpi="600"
       inkscape:export-ydpi="600" />
  </g>
  <g
     inkscape:label="GND"
     transform="rotate(-180,22.784603,17.571413)"
     id="g5464"
     inkscape:export-xdpi="600"
     inkscape:export-ydpi="600">
    <path
       inkscape:original-d="M 15.251062,17.866728 H 38.023717"
       inkscape:path-effect="#path-effect5510"
       inkscape:connector-curvature="0"
       id="path5508"
       d="M 15.251062,17.866728 H 38.023717"
       style="fill:none;stroke:#000000;stroke-width:0.26458332;stroke-linecap:butt;stroke-linejoin:miter;stroke-miterlimit:4;stroke-dasharray:0.52916663, 0.52916663;stroke-dashoffset:0;stroke-opacity:1" />
    <path
       inkscape:original-d="M 24.67231,16.26312 H 37.97647"
       inkscape:path-effect="#path-effect5514"
       inkscape:connector-curvature="0"
       id="path5512"
       d="M 24.67231,16.26312 H 37.97647"
       style="fill:none;stroke:#000000;stroke-width:0.26458332;stroke-linecap:butt;stroke-linejoin:miter;stroke-miterlimit:4;stroke-dasharray:0.52916663, 0.52916663;stroke-dashoffset:0;stroke-opacity:1" />
    <path
       inkscape:original-d="M 24.67231,16.26312 V 7.0256163"
       inkscape:path-effect="#path-effect5518"
       inkscape:connector-curvature="0"
       id="path5516"
       d="M 24.67231,16.26312 V 7.0256163"
       style="fill:none;stroke:#000000;stroke-width:0.26458332;stroke-linecap:butt;stroke-linejoin:miter;stroke-miterlimit:4;stroke-dasharray:0.52916663, 0.52916663;stroke-dashoffset:0;stroke-opacity:1" />
    <path
       inkscape:original-d="M 15.251062,17.866728 V 7.0089131"
       inkscape:path-effect="#path-effect5522"
       inkscape:connector-curvature="0"
       id="path5520"
       d="M 15.251062,17.866728 V 7.0089131"
       style="fill:none;stroke:#000000;stroke-width:0.26458332;stroke-linecap:butt;stroke-linejoin:miter;stroke-miterlimit:4;stroke-dasharray:0.52916663, 0.52916663;stroke-dashoffset:0;stroke-opacity:1" />
  </g>
  <g
     id="g5588"
     transform="matrix(-0.37159207,0,0,-0.37159207,22.464285,28.425772)"
     inkscape:label="GND"
     inkscape:export-xdpi="600"
     inkscape:export-ydpi="600">
    <g
       style="font-style:normal;font-variant:normal;font-weight:normal;font-stretch:normal;letter-spacing:normal;word-spacing:normal;text-anchor:start;fill:none;fill-opacity:1;fill-rule:evenodd;stroke:#000000;stroke-linecap:butt;stroke-linejoin:miter;stroke-miterlimit:10.43299961;stroke-dasharray:none;stroke-dashoffset:0;stroke-opacity:1"
       transform="matrix(-0.739645,0,0,0.739645,223.41717,-491.37329)"
       ns0:preamble="C:\\Program Files\\Inkscape\\share\\extensions/textextLib/CircuitSymbolsLatexPreamble.tex"
       ns0:text=" $V_{gsIo}$"
       word-spacing="normal"
       letter-spacing="normal"
       font-size-adjust="none"
       font-stretch="normal"
       font-weight="normal"
       font-variant="normal"
       font-style="normal"
       stroke-miterlimit="10.433"
       xml:space="preserve"
       id="g5586">
<path
   inkscape:connector-curvature="0"
   id="path5576"
   style="fill:#000000;stroke-width:0"
   d="m 229.7,712.78 0.04,0.07 0.05,0.06 0.04,0.07 0.04,0.05 0.05,0.06 0.04,0.05 0.05,0.05 0.04,0.04 0.04,0.04 0.04,0.04 0.04,0.03 0.05,0.03 0.04,0.03 0.04,0.03 0.04,0.02 0.04,0.02 0.04,0.02 0.04,0.02 0.04,0.01 0.03,0.02 0.04,0.01 0.04,0.01 0.04,0.01 h 0.03 l 0.04,0.01 h 0.04 l 0.07,0.01 0.07,0.01 h 0.07 c 0.12,0.01 0.13,0.18 0.13,0.19 0,0.08 -0.05,0.12 -0.13,0.12 -0.26,0 -0.55,-0.03 -0.82,-0.03 -0.33,0 -0.66,0.03 -0.98,0.03 -0.06,0 -0.19,0 -0.19,-0.19 0,-0.11 0.09,-0.12 0.16,-0.12 0.26,-0.02 0.46,-0.12 0.46,-0.33 0,-0.14 -0.15,-0.36 -0.15,-0.37 l -3.07,-4.85 -0.67,5.25 c 0,0.17 0.22,0.3 0.68,0.3 0.14,0 0.25,0 0.25,0.2 0,0.09 -0.08,0.11 -0.14,0.11 -0.4,0 -0.82,-0.03 -1.23,-0.03 -0.18,0 -0.37,0.01 -0.55,0.01 -0.18,0 -0.37,0.02 -0.54,0.02 -0.07,0 -0.19,0 -0.19,-0.19 0,-0.12 0.09,-0.12 0.25,-0.12 0.56,0 0.57,-0.09 0.6,-0.34 l 0.79,-6.12 c 0.03,-0.2 0.07,-0.23 0.19,-0.23 0.17,0 0.2,0.05 0.28,0.18 z" />
<path
   inkscape:connector-curvature="0"
   id="path5578"
   style="fill:#000000;stroke-width:0"
   d="m 232.96,708.2 0.01,0.01 v 0.01 0 0.01 l 0.01,0.01 v 0.01 0.01 0 0.01 0.01 0 l 0.01,0.01 v 0 0.01 0 0.01 0 0 0.01 0 0 0.01 0 0 0 0.01 0 0 0 0 0 0 c 0,0.16 -0.12,0.23 -0.24,0.23 -0.16,0 -0.29,-0.14 -0.32,-0.27 -0.12,0.19 -0.35,0.4 -0.72,0.4 v -0.2 c 0.49,0 0.62,-0.52 0.62,-0.59 0,-0.01 0,-0.03 -0.02,-0.1 L 232,706.56 c -0.03,-0.11 -0.03,-0.12 -0.15,-0.26 -0.24,-0.29 -0.58,-0.47 -0.84,-0.47 -0.36,0 -0.53,0.3 -0.53,0.66 0,0.3 0.19,1.08 0.37,1.39 0.3,0.48 0.62,0.62 0.86,0.62 v 0.2 c -0.87,0 -1.79,-0.93 -1.79,-1.93 0,-0.72 0.49,-1.14 1.07,-1.14 0.32,0 0.62,0.16 0.87,0.38 l -0.15,-0.63 c -0.08,-0.29 -0.13,-0.48 -0.4,-0.72 -0.3,-0.25 -0.6,-0.25 -0.78,-0.25 -0.32,0 -0.41,0.02 -0.54,0.05 0.18,0.08 0.23,0.25 0.23,0.34 0,0.17 -0.14,0.26 -0.28,0.26 -0.19,0 -0.4,-0.16 -0.4,-0.42 0,-0.42 0.61,-0.43 1,-0.43 1.09,0 1.56,0.56 1.66,0.95 z" />
<path
   inkscape:connector-curvature="0"
   id="path5580"
   style="fill:#000000;stroke-width:0"
   d="m 236.4,708.25 -0.02,-0.01 h -0.02 l -0.01,-0.01 h -0.02 l -0.02,-0.01 -0.01,-0.01 -0.01,-0.01 h -0.02 l -0.01,-0.01 -0.01,-0.01 -0.02,-0.01 -0.01,-0.01 -0.01,-0.01 -0.01,-0.01 -0.01,-0.01 -0.01,-0.01 -0.01,-0.01 -0.01,-0.01 -0.01,-0.02 v -0.01 l -0.01,-0.01 -0.01,-0.01 v -0.01 l -0.01,-0.02 v -0.01 L 236.11,708 v -0.02 -0.01 l -0.01,-0.01 v -0.01 -0.02 -0.01 c 0,-0.16 0.14,-0.22 0.23,-0.22 0.07,0 0.34,0.04 0.34,0.39 0,0.45 -0.51,0.61 -0.93,0.61 -1.09,0 -1.29,-0.8 -1.29,-1.02 0,-0.26 0.15,-0.42 0.25,-0.51 0.18,-0.13 0.3,-0.16 0.79,-0.25 0.14,-0.02 0.59,-0.11 0.59,-0.45 0,-0.12 -0.08,-0.39 -0.37,-0.56 -0.27,-0.15 -0.61,-0.15 -0.7,-0.15 -0.28,0 -0.68,0.06 -0.84,0.29 0.23,0.03 0.39,0.2 0.39,0.4 0,0.17 -0.13,0.25 -0.28,0.25 -0.2,0 -0.4,-0.16 -0.4,-0.46 0,-0.42 0.45,-0.68 1.12,-0.68 1.29,0 1.53,0.88 1.53,1.15 0,0.64 -0.71,0.76 -0.97,0.81 -0.06,0.02 -0.24,0.04 -0.28,0.06 -0.26,0.05 -0.38,0.19 -0.38,0.35 0,0.16 0.12,0.34 0.28,0.44 0.19,0.12 0.43,0.13 0.55,0.13 0.15,0 0.51,-0.02 0.67,-0.25 z" />
<path
   inkscape:connector-curvature="0"
   id="path5582"
   style="fill:#000000;stroke-width:0"
   d="m 240.03,709.83 v 0.02 l 0.01,0.02 0.01,0.02 v 0.02 l 0.01,0.02 v 0.02 l 0.01,0.01 0.01,0.02 v 0.01 l 0.01,0.01 0.01,0.02 0.01,0.01 0.01,0.01 0.01,0.01 0.01,0.01 0.02,0.01 0.01,0.01 h 0.02 l 0.02,0.01 0.02,0.01 h 0.02 l 0.01,0.01 h 0.01 0.01 0.02 0.01 l 0.01,0.01 h 0.02 0.01 0.02 0.02 0.01 0.02 l 0.02,0.01 h 0.02 0.02 0.02 0.02 0.02 0.02 0.02 0.03 0.02 c 0.18,0 0.26,0 0.26,0.15 0,0.06 -0.05,0.1 -0.11,0.1 -0.15,0 -0.32,-0.02 -0.47,-0.02 -0.16,0 -0.32,-0.01 -0.48,-0.01 0,0 -0.48,0.01 -0.48,0.01 -0.15,0 -0.33,0.02 -0.48,0.02 -0.04,0 -0.15,0 -0.15,-0.15 0,-0.1 0.08,-0.1 0.23,-0.1 0.01,0 0.15,0 0.27,-0.01 0.14,-0.02 0.19,-0.03 0.19,-0.1 0,-0.04 -0.02,-0.09 -0.03,-0.15 l -0.93,-3.69 c -0.06,-0.23 -0.08,-0.3 -0.6,-0.3 -0.19,0 -0.26,0 -0.26,-0.15 0,-0.01 0,-0.1 0.11,-0.1 0.21,0 0.73,0.03 0.95,0.03 l 0.48,-0.01 c 0.15,0 0.33,-0.02 0.48,-0.02 0.04,0 0.15,0 0.15,0.15 0,0.1 -0.09,0.1 -0.23,0.1 -0.01,0 -0.16,0 -0.3,0.02 -0.16,0.01 -0.16,0.04 -0.16,0.1 0,0.01 0,0.05 0.03,0.15 z" />
<path
   inkscape:connector-curvature="0"
   id="path5584"
   style="fill:#000000;stroke-width:0"
   d="m 244.93,707.48 v 0.07 l -0.01,0.07 -0.01,0.07 -0.01,0.06 -0.01,0.07 -0.02,0.06 -0.02,0.06 -0.02,0.06 -0.03,0.05 -0.03,0.06 -0.03,0.05 -0.03,0.05 -0.04,0.04 -0.03,0.05 -0.04,0.04 -0.05,0.04 -0.04,0.04 -0.05,0.03 -0.04,0.04 -0.05,0.03 -0.06,0.03 -0.05,0.02 -0.05,0.03 -0.06,0.02 -0.06,0.02 -0.05,0.01 -0.06,0.02 -0.06,0.01 -0.07,0.01 h -0.06 l -0.06,0.01 h -0.07 c -1.03,0 -2.01,-0.97 -2.01,-1.92 0,-0.7 0.51,-1.22 1.27,-1.22 l 0.01,0.2 c -0.35,0 -0.7,0.22 -0.7,0.77 0,0.28 0.13,0.96 0.41,1.36 0.3,0.43 0.7,0.61 1.02,0.61 0.37,0 0.7,-0.25 0.7,-0.77 0,-0.17 -0.09,-0.85 -0.4,-1.34 -0.26,-0.41 -0.68,-0.63 -1.03,-0.63 v 0 l -0.01,-0.2 c 1,0 2.01,0.92 2.01,1.92 z" />
</g>  </g>
  <g
     inkscape:label="GND"
     transform="matrix(-0.39697666,0,0,-0.39697666,23.265122,32.524937)"
     id="g5720"
     inkscape:export-xdpi="600"
     inkscape:export-ydpi="600">
    <g
       style="font-style:normal;font-variant:normal;font-weight:normal;font-stretch:normal;letter-spacing:normal;word-spacing:normal;text-anchor:start;fill:none;fill-opacity:1;fill-rule:evenodd;stroke:#000000;stroke-linecap:butt;stroke-linejoin:miter;stroke-miterlimit:10.43299961;stroke-dasharray:none;stroke-dashoffset:0;stroke-opacity:1"
       id="g5718"
       xml:space="preserve"
       stroke-miterlimit="10.433"
       font-style="normal"
       font-variant="normal"
       font-weight="normal"
       font-stretch="normal"
       font-size-adjust="none"
       letter-spacing="normal"
       word-spacing="normal"
       ns0:text=" $V_{gsTh}$"
       ns0:preamble="C:\\Program Files\\Inkscape\\share\\extensions/textextLib/CircuitSymbolsLatexPreamble.tex"
       transform="matrix(-0.739645,0,0,0.739645,224.27885,-491.37329)">
<path
   inkscape:connector-curvature="0"
   d="m 229.7,712.78 0.04,0.07 0.05,0.06 0.04,0.07 0.04,0.05 0.05,0.06 0.04,0.05 0.05,0.05 0.04,0.04 0.04,0.04 0.04,0.04 0.04,0.03 0.05,0.03 0.04,0.03 0.04,0.03 0.04,0.02 0.04,0.02 0.04,0.02 0.04,0.02 0.04,0.01 0.03,0.02 0.04,0.01 0.04,0.01 0.04,0.01 h 0.03 l 0.04,0.01 h 0.04 l 0.07,0.01 0.07,0.01 h 0.07 c 0.12,0.01 0.13,0.18 0.13,0.19 0,0.08 -0.05,0.12 -0.13,0.12 -0.26,0 -0.55,-0.03 -0.82,-0.03 -0.33,0 -0.66,0.03 -0.98,0.03 -0.06,0 -0.19,0 -0.19,-0.19 0,-0.11 0.09,-0.12 0.16,-0.12 0.26,-0.02 0.46,-0.12 0.46,-0.33 0,-0.14 -0.15,-0.36 -0.15,-0.37 l -3.07,-4.85 -0.67,5.25 c 0,0.17 0.22,0.3 0.68,0.3 0.14,0 0.25,0 0.25,0.2 0,0.09 -0.08,0.11 -0.14,0.11 -0.4,0 -0.82,-0.03 -1.23,-0.03 -0.18,0 -0.37,0.01 -0.55,0.01 -0.18,0 -0.37,0.02 -0.54,0.02 -0.07,0 -0.19,0 -0.19,-0.19 0,-0.12 0.09,-0.12 0.25,-0.12 0.56,0 0.57,-0.09 0.6,-0.34 l 0.79,-6.12 c 0.03,-0.2 0.07,-0.23 0.19,-0.23 0.17,0 0.2,0.05 0.28,0.18 z"
   style="fill:#000000;stroke-width:0"
   id="path5708" />
<path
   inkscape:connector-curvature="0"
   d="m 232.96,708.2 0.01,0.01 v 0.01 0 0.01 l 0.01,0.01 v 0.01 0.01 0 0.01 0.01 0 l 0.01,0.01 v 0 0.01 0 0.01 0 0 0.01 0 0 0.01 0 0 0 0.01 0 0 0 0 0 0 c 0,0.16 -0.12,0.23 -0.24,0.23 -0.16,0 -0.29,-0.14 -0.32,-0.27 -0.12,0.19 -0.35,0.4 -0.72,0.4 v -0.2 c 0.49,0 0.62,-0.52 0.62,-0.59 0,-0.01 0,-0.03 -0.02,-0.1 L 232,706.56 c -0.03,-0.11 -0.03,-0.12 -0.15,-0.26 -0.24,-0.29 -0.58,-0.47 -0.84,-0.47 -0.36,0 -0.53,0.3 -0.53,0.66 0,0.3 0.19,1.08 0.37,1.39 0.3,0.48 0.62,0.62 0.86,0.62 v 0.2 c -0.87,0 -1.79,-0.93 -1.79,-1.93 0,-0.72 0.49,-1.14 1.07,-1.14 0.32,0 0.62,0.16 0.87,0.38 l -0.15,-0.63 c -0.08,-0.29 -0.13,-0.48 -0.4,-0.72 -0.3,-0.25 -0.6,-0.25 -0.78,-0.25 -0.32,0 -0.41,0.02 -0.54,0.05 0.18,0.08 0.23,0.25 0.23,0.34 0,0.17 -0.14,0.26 -0.28,0.26 -0.19,0 -0.4,-0.16 -0.4,-0.42 0,-0.42 0.61,-0.43 1,-0.43 1.09,0 1.56,0.56 1.66,0.95 z"
   style="fill:#000000;stroke-width:0"
   id="path5710" />
<path
   inkscape:connector-curvature="0"
   d="m 236.4,708.25 -0.02,-0.01 h -0.02 l -0.01,-0.01 h -0.02 l -0.02,-0.01 -0.01,-0.01 -0.01,-0.01 h -0.02 l -0.01,-0.01 -0.01,-0.01 -0.02,-0.01 -0.01,-0.01 -0.01,-0.01 -0.01,-0.01 -0.01,-0.01 -0.01,-0.01 -0.01,-0.01 -0.01,-0.01 -0.01,-0.02 v -0.01 l -0.01,-0.01 -0.01,-0.01 v -0.01 l -0.01,-0.02 v -0.01 L 236.11,708 v -0.02 -0.01 l -0.01,-0.01 v -0.01 -0.02 -0.01 c 0,-0.16 0.14,-0.22 0.23,-0.22 0.07,0 0.34,0.04 0.34,0.39 0,0.45 -0.51,0.61 -0.93,0.61 -1.09,0 -1.29,-0.8 -1.29,-1.02 0,-0.26 0.15,-0.42 0.25,-0.51 0.18,-0.13 0.3,-0.16 0.79,-0.25 0.14,-0.02 0.59,-0.11 0.59,-0.45 0,-0.12 -0.08,-0.39 -0.37,-0.56 -0.27,-0.15 -0.61,-0.15 -0.7,-0.15 -0.28,0 -0.68,0.06 -0.84,0.29 0.23,0.03 0.39,0.2 0.39,0.4 0,0.17 -0.13,0.25 -0.28,0.25 -0.2,0 -0.4,-0.16 -0.4,-0.46 0,-0.42 0.45,-0.68 1.12,-0.68 1.29,0 1.53,0.88 1.53,1.15 0,0.64 -0.71,0.76 -0.97,0.81 -0.06,0.02 -0.24,0.04 -0.28,0.06 -0.26,0.05 -0.38,0.19 -0.38,0.35 0,0.16 0.12,0.34 0.28,0.44 0.19,0.12 0.43,0.13 0.55,0.13 0.15,0 0.51,-0.02 0.67,-0.25 z"
   style="fill:#000000;stroke-width:0"
   id="path5712" />
<path
   inkscape:connector-curvature="0"
   d="m 240.54,709.84 v 0.01 0.01 l 0.01,0.01 v 0 0.01 0.01 l 0.01,0.01 v 0.01 0.01 l 0.01,0.01 v 0.02 0.01 l 0.01,0.01 v 0.01 l 0.01,0.01 v 0.01 0.01 h 0.01 v 0.01 l 0.01,0.01 v 0 l 0.01,0.01 h 0.01 v 0.01 h 0.01 0.01 l 0.01,0.01 h 0.01 v 0 h 0.01 l 0.01,0.01 h 0.02 0.01 0.01 0.01 0.02 c 0.03,0.01 0.28,0.01 0.42,0.01 0.42,0 0.6,0 0.78,-0.05 0.31,-0.1 0.33,-0.3 0.33,-0.55 0,-0.12 0,-0.2 -0.05,-0.57 l -0.01,-0.07 c 0,-0.07 0.04,-0.11 0.11,-0.11 0.11,0 0.12,0.06 0.14,0.18 l 0.18,1.32 c 0,0.1 -0.08,0.1 -0.2,0.1 h -4.3 c -0.18,0 -0.19,0 -0.24,-0.14 l -0.44,-1.23 c -0.01,-0.03 -0.04,-0.1 -0.04,-0.13 0,-0.03 0.02,-0.1 0.12,-0.1 0.09,0 0.11,0.04 0.15,0.17 0.4,1.11 0.63,1.18 1.7,1.18 h 0.29 c 0.21,0 0.22,-0.01 0.22,-0.07 0,0 0,-0.04 -0.03,-0.14 l -0.92,-3.66 c -0.07,-0.26 -0.09,-0.33 -0.82,-0.33 -0.25,0 -0.32,0 -0.32,-0.15 0,-0.02 0.02,-0.1 0.12,-0.1 0.2,0 0.41,0.02 0.6,0.02 0.2,0 0.41,0.01 0.6,0.01 0.2,0 0.44,0 0.64,-0.01 0.18,0 0.39,-0.02 0.58,-0.02 0.06,0 0.16,0 0.16,0.15 0,0.1 -0.07,0.1 -0.28,0.1 -0.14,0 -0.28,0.01 -0.41,0.02 -0.24,0.02 -0.25,0.04 -0.25,0.13 0,0.05 0,0.06 0.03,0.16 z"
   style="fill:#000000;stroke-width:0"
   id="path5714" />
<path
   inkscape:connector-curvature="0"
   d="m 245.11,710.25 v 0 0 0 0 0 0 0.01 0 0 h 0.01 v 0.01 0 0 0.01 0 0.01 0 0.01 l 0.01,0.01 v 0 0.01 0 0 0.01 0 0.01 0 h 0.01 v 0.01 0 0 0 0 0 0.01 0 0 0 0 0 0 c 0,0.03 -0.03,0.1 -0.11,0.1 -0.14,0 -0.72,-0.06 -0.9,-0.07 -0.06,-0.01 -0.15,-0.02 -0.15,-0.16 0,-0.1 0.09,-0.1 0.18,-0.1 0.33,0 0.33,-0.05 0.33,-0.1 0,-0.05 -0.01,-0.1 -0.02,-0.16 l -0.99,-3.93 c -0.03,-0.13 -0.03,-0.14 -0.03,-0.16 0,-0.1 0.08,-0.22 0.23,-0.22 0.08,0 0.21,0.04 0.29,0.18 0.02,0.04 0.08,0.29 0.12,0.44 l 0.16,0.62 c 0.02,0.1 0.09,0.37 0.11,0.47 0.07,0.27 0.07,0.27 0.21,0.5 0.23,0.34 0.58,0.73 1.12,0.73 0.39,0 0.41,-0.32 0.41,-0.48 0,-0.42 -0.3,-1.19 -0.41,-1.49 -0.08,-0.19 -0.1,-0.25 -0.1,-0.37 0,-0.37 0.3,-0.6 0.66,-0.6 0.7,0 1.01,0.96 1.01,1.07 0,0.09 -0.09,0.09 -0.11,0.09 -0.1,0 -0.11,-0.05 -0.14,-0.12 -0.16,-0.56 -0.47,-0.84 -0.74,-0.84 -0.15,0 -0.17,0.09 -0.17,0.24 0,0.16 0.03,0.25 0.16,0.56 0.08,0.22 0.37,0.96 0.37,1.35 0,0.11 0,0.4 -0.26,0.6 -0.12,0.09 -0.32,0.19 -0.65,0.19 -0.51,0 -0.88,-0.28 -1.14,-0.58 z"
   style="fill:#000000;stroke-width:0"
   id="path5716" />
</g>  </g>
  <path
     inkscape:original-d="M 21.470576,89.275673 H 29.73773"
     inkscape:path-effect="#path-effect5816"
     inkscape:connector-curvature="0"
     id="path5814"
     d="M 21.470576,89.275673 H 29.73773"
     style="fill:none;stroke:#000000;stroke-width:0.26499999;stroke-linecap:butt;stroke-linejoin:miter;stroke-miterlimit:4;stroke-dasharray:none;stroke-opacity:1;marker-start:url(#Arrow1Sstart);marker-end:url(#marker5910)"
     inkscape:export-xdpi="600"
     inkscape:export-ydpi="600" />
  <path
     inkscape:original-d="M 8.2804986,89.240933 H 20.286656"
     inkscape:path-effect="#path-effect5816-2"
     inkscape:connector-curvature="0"
     id="path5814-9"
     d="M 8.2804986,89.240933 H 20.286656"
     style="fill:none;stroke:#000000;stroke-width:0.26945895;stroke-linecap:butt;stroke-linejoin:miter;stroke-miterlimit:4;stroke-dasharray:none;stroke-opacity:1;marker-start:url(#Arrow1Sstart-5);marker-end:url(#marker5910-5)"
     inkscape:export-xdpi="600"
     inkscape:export-ydpi="600" />
  <path
     inkscape:original-d="M 20.896897,28.117209 V 86.154903"
     inkscape:path-effect="#path-effect7130"
     inkscape:connector-curvature="0"
     id="path7128"
     d="M 20.896897,28.117209 V 86.154903"
     style="fill:none;stroke:#000000;stroke-width:0.26458332;stroke-linecap:butt;stroke-linejoin:miter;stroke-miterlimit:4;stroke-dasharray:0.52916663, 0.52916663;stroke-dashoffset:0;stroke-opacity:1"
     inkscape:export-xdpi="600"
     inkscape:export-ydpi="600" />
  <path
     inkscape:original-d="M 30.318145,28.133912 V 86.206573"
     inkscape:path-effect="#path-effect7134"
     inkscape:connector-curvature="0"
     id="path7132"
     d="M 30.318145,28.133912 V 86.206573"
     style="fill:none;stroke:#000000;stroke-width:0.26458332;stroke-linecap:butt;stroke-linejoin:miter;stroke-miterlimit:4;stroke-dasharray:0.52916663, 0.52916663;stroke-dashoffset:0;stroke-opacity:1"
     inkscape:export-xdpi="600"
     inkscape:export-ydpi="600" />
  <path
     inkscape:original-d="M 7.8006886,85.897543 H 20.896897"
     inkscape:path-effect="#path-effect7138"
     inkscape:connector-curvature="0"
     id="path7136"
     d="M 7.8006886,85.897543 H 20.896897"
     style="fill:none;stroke:#ff0000;stroke-width:0.26458332px;stroke-linecap:butt;stroke-linejoin:miter;stroke-opacity:1"
     inkscape:export-xdpi="600"
     inkscape:export-ydpi="600" />
  <path
     inkscape:original-d="m 20.896897,85.897543 9.40518,-16.29025"
     inkscape:path-effect="#path-effect7142"
     inkscape:connector-curvature="0"
     id="path7140"
     d="m 20.896897,85.897543 9.40518,-16.29025"
     style="fill:none;stroke:#ff0000;stroke-width:0.26458332px;stroke-linecap:butt;stroke-linejoin:miter;stroke-opacity:1"
     inkscape:export-xdpi="600"
     inkscape:export-ydpi="600" />
  <path
     inkscape:original-d="m 30.302077,69.607291 h 66.71156"
     inkscape:path-effect="#path-effect7150"
     inkscape:connector-curvature="0"
     id="path7148"
     d="m 30.302077,69.607291 h 66.71156"
     style="fill:none;stroke:#ff0000;stroke-width:0.26458332px;stroke-linecap:butt;stroke-linejoin:miter;stroke-opacity:1"
     inkscape:export-xdpi="600"
     inkscape:export-ydpi="600" />
  <path
     inkscape:original-d="M 30.302077,69.607291 H 7.5000106"
     inkscape:path-effect="#path-effect7154"
     inkscape:connector-curvature="0"
     id="path7152"
     d="M 30.302077,69.607291 H 7.5000106"
     style="fill:none;stroke:#000000;stroke-width:0.26499999;stroke-linecap:butt;stroke-linejoin:miter;stroke-miterlimit:4;stroke-dasharray:0.52999997, 0.52999997;stroke-dashoffset:0;stroke-opacity:1"
     inkscape:export-xdpi="600"
     inkscape:export-ydpi="600" />
  <g
     id="g7260"
     transform="rotate(-180,-2.335008,50.583096)"
     inkscape:label="GND"
     inkscape:export-xdpi="600"
     inkscape:export-ydpi="600">
    <g
       transform="matrix(-0.32149757,0,0,0.32149757,63.393261,-196.47427)"
       ns0:preamble="C:\\Program Files\\Inkscape\\share\\extensions/textextLib/CircuitSymbolsLatexPreamble.tex"
       ns0:text=" $I_o$"
       word-spacing="normal"
       letter-spacing="normal"
       font-size-adjust="none"
       font-stretch="normal"
       font-weight="normal"
       font-variant="normal"
       font-style="normal"
       stroke-miterlimit="10.433"
       xml:space="preserve"
       id="g7258"
       style="font-style:normal;font-variant:normal;font-weight:normal;font-stretch:normal;letter-spacing:normal;word-spacing:normal;text-anchor:start;fill:none;fill-opacity:1;fill-rule:evenodd;stroke:#000000;stroke-linecap:butt;stroke-linejoin:miter;stroke-miterlimit:10.43299961;stroke-dasharray:none;stroke-dashoffset:0;stroke-opacity:1">
<path
   id="path7254"
   style="fill:#000000;stroke-width:0"
   d="m 227.16,713.15 0.01,0.03 0.01,0.03 0.01,0.03 v 0.03 l 0.01,0.02 0.01,0.03 0.01,0.02 0.01,0.03 0.01,0.02 0.01,0.02 0.02,0.02 0.01,0.02 0.02,0.01 0.01,0.02 0.02,0.01 0.02,0.02 0.03,0.01 0.02,0.01 0.03,0.01 0.03,0.01 0.03,0.01 h 0.02 l 0.02,0.01 h 0.02 0.02 l 0.02,0.01 h 0.02 0.02 l 0.02,0.01 h 0.03 0.02 0.03 0.02 l 0.03,0.01 h 0.03 0.03 0.03 0.03 0.03 0.03 0.04 0.03 0.04 c 0.24,0 0.32,0 0.32,0.19 0,0.12 -0.11,0.12 -0.15,0.12 -0.29,0 -1.03,-0.03 -1.32,-0.03 -0.3,0 -1.02,0.03 -1.32,0.03 -0.07,0 -0.2,0 -0.2,-0.2 0,-0.11 0.09,-0.11 0.28,-0.11 0.42,0 0.68,0 0.68,-0.19 0,-0.05 0,-0.07 -0.02,-0.16 L 225,707.9 c -0.09,-0.37 -0.12,-0.47 -0.91,-0.47 -0.23,0 -0.32,0 -0.32,-0.2 0,-0.1 0.12,-0.1 0.15,-0.1 0.29,0 1.02,0.03 1.31,0.03 0.3,0 1.03,-0.03 1.33,-0.03 0.08,0 0.2,0 0.2,0.18 0,0.12 -0.08,0.12 -0.3,0.12 -0.18,0 -0.23,0 -0.42,0.02 -0.22,0.02 -0.25,0.06 -0.25,0.17 0,0.08 0.01,0.16 0.03,0.23 z"
   inkscape:connector-curvature="0" />
<path
   id="path7256"
   style="fill:#000000;stroke-width:0"
   d="m 231.52,707.48 v 0.07 0.07 l -0.01,0.07 -0.01,0.06 -0.02,0.07 -0.01,0.06 -0.02,0.06 -0.03,0.06 -0.02,0.05 -0.03,0.06 -0.03,0.05 -0.03,0.05 -0.04,0.04 -0.04,0.05 -0.04,0.04 -0.04,0.04 -0.05,0.04 -0.04,0.03 -0.05,0.04 -0.05,0.03 -0.05,0.03 -0.05,0.02 -0.06,0.03 -0.05,0.02 -0.06,0.02 -0.06,0.01 -0.06,0.02 -0.06,0.01 -0.06,0.01 h -0.06 l -0.07,0.01 h -0.06 c -1.04,0 -2.02,-0.97 -2.02,-1.92 0,-0.7 0.52,-1.22 1.28,-1.22 v 0.2 c -0.34,0 -0.69,0.22 -0.69,0.77 0,0.28 0.13,0.96 0.4,1.36 0.3,0.43 0.71,0.61 1.02,0.61 0.38,0 0.7,-0.25 0.7,-0.77 0,-0.17 -0.08,-0.85 -0.39,-1.34 -0.27,-0.41 -0.68,-0.63 -1.04,-0.63 v 0 -0.2 c 1,0 2,0.92 2,1.92 z"
   inkscape:connector-curvature="0" />
</g>    <path
       style="fill:none;stroke:#000000;stroke-width:0.26458332;stroke-linecap:butt;stroke-linejoin:miter;stroke-miterlimit:4;stroke-dasharray:0.52916663, 0.52916663;stroke-dashoffset:0;stroke-opacity:1"
       d="M -52.126821,83.890096 V 72.998872"
       id="path7362"
       inkscape:connector-curvature="0"
       inkscape:path-effect="#path-effect7364"
       inkscape:original-d="M -52.126821,83.890096 V 72.998872" />
    <path
       style="fill:none;stroke:#000000;stroke-width:0.26458332;stroke-linecap:butt;stroke-linejoin:miter;stroke-miterlimit:4;stroke-dasharray:0.52916663, 0.52916663;stroke-dashoffset:0;stroke-opacity:1"
       d="M -52.126821,72.998875 V 15.011287"
       id="path7366"
       inkscape:connector-curvature="0"
       inkscape:path-effect="#path-effect7368"
       inkscape:original-d="M -52.126821,72.998875 V 15.011287" />
    <path
       style="fill:none;stroke:#009b00;stroke-width:0.26458332px;stroke-linecap:butt;stroke-linejoin:miter;stroke-opacity:1"
       d="M -12.220139,49.850826 H -34.988161"
       id="path7370"
       inkscape:connector-curvature="0"
       inkscape:path-effect="#path-effect7372"
       inkscape:original-d="M -12.220139,49.850826 H -34.988161" />
  </g>
  <g
     inkscape:label="GND"
     transform="rotate(-180,31.16194,70.437166)"
     id="g7488"
     inkscape:export-xdpi="600"
     inkscape:export-ydpi="600">
    <g
       style="font-style:normal;font-variant:normal;font-weight:normal;font-stretch:normal;letter-spacing:normal;word-spacing:normal;text-anchor:start;fill:none;fill-opacity:1;fill-rule:evenodd;stroke:#000000;stroke-linecap:butt;stroke-linejoin:miter;stroke-miterlimit:10.43299961;stroke-dasharray:none;stroke-dashoffset:0;stroke-opacity:1"
       id="g7486"
       xml:space="preserve"
       stroke-miterlimit="10.433"
       font-style="normal"
       font-variant="normal"
       font-weight="normal"
       font-stretch="normal"
       font-size-adjust="none"
       letter-spacing="normal"
       word-spacing="normal"
       ns0:text=" $V_d$"
       ns0:preamble="C:\\Program Files\\Inkscape\\share\\extensions/textextLib/CircuitSymbolsLatexPreamble.tex"
       transform="matrix(-0.32680697,0,0,0.32680697,131.95586,-142.45081)">
<path
   inkscape:connector-curvature="0"
   d="m 229.7,712.78 0.04,0.07 0.05,0.06 0.04,0.07 0.04,0.05 0.05,0.06 0.04,0.05 0.05,0.05 0.04,0.04 0.04,0.04 0.04,0.04 0.04,0.03 0.05,0.03 0.04,0.03 0.04,0.03 0.04,0.02 0.04,0.02 0.04,0.02 0.04,0.02 0.04,0.01 0.03,0.02 0.04,0.01 0.04,0.01 0.04,0.01 h 0.03 l 0.04,0.01 h 0.04 l 0.07,0.01 0.07,0.01 h 0.07 c 0.12,0.01 0.13,0.18 0.13,0.19 0,0.08 -0.05,0.12 -0.13,0.12 -0.26,0 -0.55,-0.03 -0.82,-0.03 -0.33,0 -0.66,0.03 -0.98,0.03 -0.06,0 -0.19,0 -0.19,-0.19 0,-0.11 0.09,-0.12 0.16,-0.12 0.26,-0.02 0.46,-0.12 0.46,-0.33 0,-0.14 -0.15,-0.36 -0.15,-0.37 l -3.07,-4.85 -0.67,5.25 c 0,0.17 0.22,0.3 0.68,0.3 0.14,0 0.25,0 0.25,0.2 0,0.09 -0.08,0.11 -0.14,0.11 -0.4,0 -0.82,-0.03 -1.23,-0.03 -0.18,0 -0.37,0.01 -0.55,0.01 -0.18,0 -0.37,0.02 -0.54,0.02 -0.07,0 -0.19,0 -0.19,-0.19 0,-0.12 0.09,-0.12 0.25,-0.12 0.56,0 0.57,-0.09 0.6,-0.34 l 0.79,-6.12 c 0.03,-0.2 0.07,-0.23 0.19,-0.23 0.17,0 0.2,0.05 0.28,0.18 z"
   style="fill:#000000;stroke-width:0"
   id="path7482" />
<path
   inkscape:connector-curvature="0"
   d="m 233.24,710.25 v 0 0 0 0 0 0 0.01 0 0 0 0.01 0 0 l 0.01,0.01 v 0 0.01 0 0.01 0.01 0 0.01 h 0.01 v 0 0.01 0 0.01 0 0 0.01 0 0 0 0 0 0.01 0 0 0 0 0 0 c 0,0.03 -0.02,0.1 -0.11,0.1 -0.14,0 -0.72,-0.06 -0.89,-0.07 -0.06,-0.01 -0.16,-0.02 -0.16,-0.16 0,-0.1 0.1,-0.1 0.19,-0.1 0.33,0 0.33,-0.05 0.33,-0.1 0,-0.05 -0.01,-0.1 -0.03,-0.16 l -0.39,-1.58 c -0.15,0.23 -0.39,0.41 -0.73,0.41 v -0.2 c 0.49,0 0.63,-0.53 0.63,-0.6 0,-0.03 -0.02,-0.08 -0.02,-0.1 l -0.33,-1.3 c -0.05,-0.2 -0.21,-0.33 -0.36,-0.47 -0.06,-0.05 -0.34,-0.27 -0.64,-0.27 -0.26,0 -0.51,0.18 -0.51,0.67 0,0.37 0.2,1.13 0.36,1.41 0.32,0.56 0.68,0.66 0.87,0.66 v 0.2 c -0.89,0 -1.8,-0.98 -1.8,-1.98 0,-0.68 0.46,-1.16 1.06,-1.16 0.37,0 0.71,0.22 0.99,0.49 0.13,-0.42 0.54,-0.49 0.72,-0.49 0.25,0 0.43,0.15 0.55,0.37 0.16,0.27 0.25,0.67 0.25,0.7 0,0.09 -0.09,0.09 -0.11,0.09 -0.1,0 -0.11,-0.03 -0.16,-0.22 -0.08,-0.33 -0.22,-0.74 -0.51,-0.74 -0.18,0 -0.23,0.15 -0.23,0.34 0,0.13 0.01,0.19 0.03,0.28 z"
   style="fill:#000000;stroke-width:0"
   id="path7484" />
</g>    <path
       inkscape:original-d="M 32.005736,89.558969 C 30.802757,78.098658 29.600043,66.638086 28.397597,55.177246 c -4.488257,2.64e-4 -8.976066,2.64e-4 -13.463704,0"
       inkscape:path-effect="#path-effect7602"
       inkscape:connector-curvature="0"
       id="path7600"
       d="M 32.005736,89.558969 C 30.803047,78.098628 29.600335,66.638055 26.754837,60.907651 23.90934,55.177246 19.421531,55.177246 14.933893,55.177246"
       style="fill:none;stroke:#009b00;stroke-width:0.26458332px;stroke-linecap:butt;stroke-linejoin:miter;stroke-opacity:1" />
    <path
       inkscape:original-d="M 14.933893,55.177249 H -34.66966"
       inkscape:path-effect="#path-effect7610"
       inkscape:connector-curvature="0"
       id="path7608"
       d="M 14.933893,55.177249 H -34.66966"
       style="fill:none;stroke:#009b00;stroke-width:0.26458332px;stroke-linecap:butt;stroke-linejoin:miter;stroke-opacity:1" />
  </g>
  <path
     inkscape:original-d="M 30.955627,89.279003 H 46.801972"
     inkscape:path-effect="#path-effect5816-4"
     inkscape:connector-curvature="0"
     id="path5814-0"
     d="M 30.955627,89.279003 H 46.801972"
     style="fill:none;stroke:#000000;stroke-width:0.27318075;stroke-linecap:butt;stroke-linejoin:miter;stroke-miterlimit:4;stroke-dasharray:none;stroke-opacity:1;marker-start:url(#Arrow1Sstart-8);marker-end:url(#marker5910-9)"
     inkscape:export-xdpi="600"
     inkscape:export-ydpi="600" />
  <path
     inkscape:original-d="m 20.896897,86.154903 v 3.42541"
     inkscape:path-effect="#path-effect10464"
     inkscape:connector-curvature="0"
     id="path10462"
     d="m 20.896897,86.154903 v 3.42541"
     style="fill:none;stroke:#000000;stroke-width:0.26458332px;stroke-linecap:butt;stroke-linejoin:miter;stroke-opacity:1"
     inkscape:export-xdpi="600"
     inkscape:export-ydpi="600" />
  <path
     inkscape:original-d="m 30.318145,86.206573 v 3.42541"
     inkscape:path-effect="#path-effect10464-9"
     inkscape:connector-curvature="0"
     id="path10462-6"
     d="m 30.318145,86.206573 v 3.42541"
     style="fill:none;stroke:#000000;stroke-width:0.26458332px;stroke-linecap:butt;stroke-linejoin:miter;stroke-opacity:1"
     inkscape:export-xdpi="600"
     inkscape:export-ydpi="600" />
  <path
     inkscape:original-d="m 47.456805,86.154903 v 3.42541"
     inkscape:path-effect="#path-effect10464-3"
     inkscape:connector-curvature="0"
     id="path10462-63"
     d="m 47.456805,86.154903 v 3.42541"
     style="fill:none;stroke:#000000;stroke-width:0.26458332px;stroke-linecap:butt;stroke-linejoin:miter;stroke-opacity:1"
     inkscape:export-xdpi="600"
     inkscape:export-ydpi="600" />
  <g
     id="g12079"
     transform="rotate(-180,40.565853,96.359357)"
     inkscape:label="GND" />
  <g
     inkscape:label="GND"
     transform="matrix(-0.48401478,0,0,-0.48401478,33.64917,136.45482)"
     id="g12368"
     inkscape:export-xdpi="600"
     inkscape:export-ydpi="600">
    <g
       id="g12366"
       xml:space="preserve"
       stroke-miterlimit="10.433"
       font-style="normal"
       font-variant="normal"
       font-weight="normal"
       font-stretch="normal"
       font-size-adjust="none"
       letter-spacing="normal"
       word-spacing="normal"
       ns0:text=" $t_d(ON)$"
       ns0:preamble="C:\\Program Files\\Inkscape\\share\\extensions/textextLib/CircuitSymbolsLatexPreamble.tex"
       transform="matrix(-0.739645,0,0,0.739645,217.16717,-431.86886)"
       style="font-style:normal;font-variant:normal;font-weight:normal;font-stretch:normal;letter-spacing:normal;word-spacing:normal;text-anchor:start;fill:none;fill-opacity:1;fill-rule:evenodd;stroke:#000000;stroke-linecap:butt;stroke-linejoin:miter;stroke-miterlimit:10.43299961;stroke-dasharray:none;stroke-dashoffset:0;stroke-opacity:1">
<path
   d="m 225.49,711.1 h 0.93 c 0.2,0 0.3,0 0.3,0.2 0,0.11 -0.1,0.11 -0.28,0.11 h -0.87 c 0.36,1.41 0.41,1.61 0.41,1.67 0,0.16 -0.13,0.26 -0.29,0.26 -0.03,0 -0.31,-0.01 -0.4,-0.35 l -0.39,-1.58 h -0.94 c -0.2,0 -0.3,0 -0.3,-0.19 0,-0.12 0.08,-0.12 0.28,-0.12 h 0.88 c -0.72,-2.82 -0.76,-2.99 -0.76,-3.17 0,-0.54 0.38,-0.91 0.92,-0.91 1.01,0 1.58,1.45 1.58,1.53 0,0.1 -0.08,0.1 -0.12,0.1 -0.09,0 -0.1,-0.04 -0.15,-0.14 -0.42,-1.04 -0.95,-1.28 -1.29,-1.28 -0.21,0 -0.31,0.13 -0.31,0.46 0,0.24 0.02,0.31 0.06,0.48 z"
   style="fill:#000000;stroke-width:0"
   id="path12354"
   inkscape:connector-curvature="0" />
<path
   d="m 231.02,710.25 v 0 0 0 0 0 0 0.01 h 0.01 v 0 0 0.01 0 0 0.01 0 0.01 h 0.01 v 0.01 0.01 0 0.01 0 0 0.01 0 l 0.01,0.01 v 0 0 0.01 0 0 0 0 0 0.01 0 0 0 0 0 0 c 0,0.03 -0.03,0.1 -0.11,0.1 -0.14,0 -0.72,-0.06 -0.9,-0.07 -0.05,-0.01 -0.15,-0.02 -0.15,-0.16 0,-0.1 0.1,-0.1 0.18,-0.1 0.34,0 0.34,-0.05 0.34,-0.1 0,-0.05 -0.02,-0.1 -0.03,-0.16 l -0.4,-1.58 c -0.15,0.23 -0.38,0.41 -0.72,0.41 v -0.2 c 0.49,0 0.62,-0.53 0.62,-0.6 0,-0.03 -0.01,-0.08 -0.02,-0.1 l -0.33,-1.3 c -0.05,-0.2 -0.2,-0.33 -0.35,-0.47 -0.07,-0.05 -0.35,-0.27 -0.65,-0.27 -0.26,0 -0.51,0.18 -0.51,0.67 0,0.37 0.21,1.13 0.37,1.41 0.32,0.56 0.68,0.66 0.87,0.66 v 0.2 c -0.89,0 -1.8,-0.98 -1.8,-1.98 0,-0.68 0.45,-1.16 1.05,-1.16 0.38,0 0.72,0.22 1,0.49 0.13,-0.42 0.53,-0.49 0.72,-0.49 0.25,0 0.42,0.15 0.55,0.37 0.15,0.27 0.24,0.67 0.24,0.7 0,0.09 -0.09,0.09 -0.11,0.09 -0.1,0 -0.1,-0.03 -0.15,-0.22 -0.09,-0.33 -0.22,-0.74 -0.51,-0.74 -0.19,0 -0.23,0.15 -0.23,0.34 0,0.13 0.01,0.19 0.03,0.28 z"
   style="fill:#000000;stroke-width:0"
   id="path12356"
   inkscape:connector-curvature="0" />
<path
   d="m 234.98,704.74 v 0.01 0 0 l -0.01,0.01 v 0 0 0.01 0 0 0.01 h -0.01 v 0.01 0 l -0.01,0.01 v 0 0.01 l -0.01,0.01 h -0.01 v 0.01 0 l -0.01,0.01 v 0 0 l -0.01,0.01 v 0 l -0.01,0.01 v 0 l -0.01,0.01 v 0 l -0.01,0.01 v 0 l -0.01,0.01 v 0.01 h -0.01 v 0.01 l -0.01,0.01 h -0.01 v 0.01 l -0.01,0.01 h -0.01 l -0.01,0.01 v 0.01 c -1.25,1.25 -1.57,3.13 -1.57,4.65 0,1.73 0.38,3.46 1.61,4.7 0.13,0.12 0.13,0.14 0.13,0.17 0,0.07 -0.04,0.1 -0.1,0.1 -0.1,0 -1,-0.68 -1.59,-1.94 -0.51,-1.09 -0.63,-2.2 -0.63,-3.03 0,-0.78 0.11,-1.98 0.66,-3.1 0.6,-1.22 1.46,-1.87 1.56,-1.87 0.06,0 0.1,0.03 0.1,0.1 z"
   style="fill:#000000;stroke-width:0"
   id="path12358"
   inkscape:connector-curvature="0" />
<path
   d="m 242.93,711.46 v 0.14 l -0.01,0.15 -0.02,0.14 -0.02,0.14 -0.03,0.13 -0.03,0.14 -0.04,0.12 -0.04,0.13 -0.05,0.12 -0.05,0.11 -0.06,0.12 -0.06,0.1 -0.07,0.11 -0.08,0.1 -0.07,0.09 -0.09,0.09 -0.08,0.09 -0.09,0.08 -0.1,0.07 -0.1,0.07 -0.1,0.07 -0.11,0.06 -0.11,0.06 -0.11,0.05 -0.12,0.04 -0.12,0.04 -0.12,0.03 -0.13,0.03 -0.13,0.02 -0.13,0.02 h -0.14 l -0.13,0.01 -0.06,-0.25 c 0.81,0 1.71,-0.56 1.71,-2.04 0,-0.71 -0.27,-2.26 -1.25,-3.48 -0.48,-0.61 -1.3,-1.2 -2.14,-1.2 v 0 c -0.99,0 -1.68,0.81 -1.68,2.12 0,0.44 0.14,1.89 0.9,3.05 0.69,1.03 1.67,1.55 2.46,1.55 l 0.06,0.25 c -2.16,0 -4.35,-2.26 -4.35,-4.57 0,-1.65 1.11,-2.65 2.55,-2.65 2.12,0 4.34,2.17 4.34,4.55 z"
   style="fill:#000000;stroke-width:0"
   id="path12360"
   inkscape:connector-curvature="0" />
<path
   d="m 250.97,712.87 0.02,0.07 0.01,0.04 0.01,0.03 0.01,0.04 0.02,0.03 0.01,0.03 0.02,0.04 0.01,0.03 0.02,0.03 0.02,0.03 0.02,0.03 0.02,0.02 0.03,0.03 0.03,0.03 0.02,0.02 0.03,0.03 0.04,0.02 0.03,0.02 0.04,0.02 0.04,0.02 0.04,0.02 0.05,0.01 0.04,0.02 0.05,0.01 0.06,0.02 0.05,0.01 0.06,0.01 0.07,0.01 h 0.06 l 0.07,0.01 h 0.04 0.03 c 0.05,0 0.17,0.01 0.17,0.2 0,0.01 0,0.11 -0.13,0.11 -0.32,0 -0.67,-0.03 -1,-0.03 -0.34,0 -0.69,0.03 -1.02,0.03 -0.06,0 -0.18,0 -0.18,-0.2 0,-0.11 0.1,-0.11 0.18,-0.11 0.57,-0.01 0.68,-0.22 0.68,-0.44 0,-0.02 -0.02,-0.17 -0.03,-0.2 l -1.12,-4.42 -2.2,5.18 c -0.08,0.18 -0.09,0.19 -0.32,0.19 h -1.34 c -0.2,0 -0.29,0 -0.29,-0.2 0,-0.11 0.09,-0.11 0.28,-0.11 0.05,0 0.68,0 0.68,-0.09 l -1.34,-5.33 c -0.1,-0.4 -0.27,-0.72 -1.07,-0.75 -0.06,0 -0.17,-0.01 -0.17,-0.2 0,-0.07 0.05,-0.1 0.13,-0.1 0.32,0 0.67,0.03 0.99,0.03 0.34,0 0.7,-0.03 1.03,-0.03 0.05,0 0.18,0 0.18,0.19 0,0.1 -0.09,0.11 -0.2,0.11 -0.58,0.02 -0.66,0.24 -0.66,0.44 0,0.07 0.01,0.12 0.04,0.23 l 1.32,5.24 c 0.04,-0.06 0.04,-0.08 0.09,-0.18 l 2.48,-5.85 c 0.07,-0.16 0.1,-0.18 0.19,-0.18 0.11,0 0.11,0.03 0.16,0.2 z"
   style="fill:#000000;stroke-width:0"
   id="path12362"
   inkscape:connector-curvature="0" />
<path
   d="m 255.4,709.61 v 0.07 0.08 l -0.01,0.08 v 0.08 l -0.01,0.17 -0.01,0.17 -0.01,0.18 -0.03,0.19 -0.02,0.2 -0.04,0.2 -0.03,0.2 -0.05,0.21 -0.05,0.21 -0.07,0.21 -0.07,0.21 -0.07,0.21 -0.05,0.11 -0.04,0.11 -0.05,0.1 -0.05,0.11 c -0.6,1.22 -1.46,1.87 -1.56,1.87 -0.06,0 -0.1,-0.04 -0.1,-0.1 0,-0.03 0,-0.05 0.19,-0.23 0.98,-0.99 1.55,-2.57 1.55,-4.64 0,-1.7 -0.37,-3.45 -1.61,-4.7 -0.13,-0.12 -0.13,-0.14 -0.13,-0.17 0,-0.06 0.04,-0.1 0.1,-0.1 0.1,0 1,0.68 1.59,1.94 0.51,1.09 0.63,2.19 0.63,3.03 z"
   style="fill:#000000;stroke-width:0"
   id="path12364"
   inkscape:connector-curvature="0" />
</g>  </g>
  <g
     id="g12660"
     transform="matrix(-0.45964271,0,0,-0.45964271,32.561486,138.3913)"
     inkscape:label="GND"
     inkscape:export-xdpi="600"
     inkscape:export-ydpi="600">
    <g
       transform="matrix(-0.739645,0,0,0.739645,216.55326,-431.53602)"
       ns0:preamble="C:\\Program Files\\Inkscape\\share\\extensions/textextLib/CircuitSymbolsLatexPreamble.tex"
       ns0:text=" $33.2nS$"
       word-spacing="normal"
       letter-spacing="normal"
       font-size-adjust="none"
       font-stretch="normal"
       font-weight="normal"
       font-variant="normal"
       font-style="normal"
       stroke-miterlimit="10.433"
       xml:space="preserve"
       id="g12658"
       style="font-style:normal;font-variant:normal;font-weight:normal;font-stretch:normal;letter-spacing:normal;word-spacing:normal;text-anchor:start;fill:none;fill-opacity:1;fill-rule:evenodd;stroke:#000000;stroke-linecap:butt;stroke-linejoin:miter;stroke-miterlimit:10.43299961;stroke-dasharray:none;stroke-dashoffset:0;stroke-opacity:1">
<path
   id="path12646"
   style="fill:#000000;stroke-width:0"
   d="m 226.32,710.62 0.08,0.03 0.07,0.03 0.08,0.03 0.07,0.03 0.07,0.04 0.07,0.04 0.06,0.04 0.07,0.04 0.06,0.04 0.06,0.05 0.06,0.05 0.06,0.05 0.05,0.05 0.05,0.05 0.05,0.06 0.05,0.05 0.04,0.06 0.05,0.06 0.04,0.06 0.03,0.06 0.04,0.07 0.03,0.06 0.03,0.07 0.03,0.06 0.02,0.07 0.02,0.07 0.02,0.07 0.01,0.07 0.02,0.07 v 0.07 l 0.01,0.08 v 0.07 c 0,0.81 -0.88,1.37 -1.84,1.37 -1,0 -1.76,-0.59 -1.76,-1.35 0,-0.33 0.22,-0.52 0.51,-0.52 0.31,0 0.51,0.22 0.51,0.51 0,0.5 -0.47,0.5 -0.62,0.5 0.31,0.48 0.97,0.61 1.33,0.61 0.4,0 0.95,-0.22 0.95,-1.11 0,-0.12 -0.02,-0.7 -0.28,-1.13 -0.3,-0.48 -0.64,-0.51 -0.88,-0.52 -0.08,-0.01 -0.32,-0.03 -0.39,-0.03 -0.08,-0.01 -0.15,-0.02 -0.15,-0.12 0,-0.11 0.07,-0.11 0.24,-0.11 h 0.43 c 0.82,0 1.19,-0.67 1.19,-1.65 0,-1.35 -0.69,-1.64 -1.12,-1.64 -0.43,0 -1.18,0.17 -1.53,0.76 0.35,-0.05 0.66,0.17 0.66,0.55 0,0.35 -0.27,0.55 -0.56,0.55 -0.24,0 -0.56,-0.14 -0.56,-0.57 0,-0.91 0.93,-1.56 2.02,-1.56 1.21,0 2.12,0.9 2.12,1.91 0,0.82 -0.63,1.59 -1.67,1.8 z"
   inkscape:connector-curvature="0" />
<path
   id="path12648"
   style="fill:#000000;stroke-width:0"
   d="m 231.3,710.62 0.08,0.03 0.08,0.03 0.07,0.03 0.07,0.03 0.07,0.04 0.07,0.04 0.06,0.04 0.07,0.04 0.06,0.04 0.06,0.05 0.06,0.05 0.06,0.05 0.05,0.05 0.05,0.05 0.05,0.06 0.05,0.05 0.04,0.06 0.05,0.06 0.04,0.06 0.03,0.06 0.04,0.07 0.03,0.06 0.03,0.07 0.03,0.06 0.02,0.07 0.02,0.07 0.02,0.07 0.01,0.07 0.02,0.07 v 0.07 l 0.01,0.08 v 0.07 c 0,0.81 -0.88,1.37 -1.83,1.37 -1.01,0 -1.77,-0.59 -1.77,-1.35 0,-0.33 0.22,-0.52 0.51,-0.52 0.31,0 0.51,0.22 0.51,0.51 0,0.5 -0.47,0.5 -0.62,0.5 0.31,0.48 0.97,0.61 1.33,0.61 0.41,0 0.95,-0.22 0.95,-1.11 0,-0.12 -0.02,-0.7 -0.27,-1.13 -0.3,-0.48 -0.64,-0.51 -0.89,-0.52 -0.08,-0.01 -0.32,-0.03 -0.39,-0.03 -0.08,-0.01 -0.15,-0.02 -0.15,-0.12 0,-0.11 0.07,-0.11 0.24,-0.11 h 0.44 c 0.81,0 1.18,-0.67 1.18,-1.65 0,-1.35 -0.68,-1.64 -1.12,-1.64 -0.43,0 -1.18,0.17 -1.53,0.76 0.35,-0.05 0.66,0.17 0.66,0.55 0,0.35 -0.27,0.55 -0.56,0.55 -0.24,0 -0.56,-0.14 -0.56,-0.57 0,-0.91 0.93,-1.56 2.02,-1.56 1.21,0 2.12,0.9 2.12,1.91 0,0.82 -0.63,1.59 -1.67,1.8 z"
   inkscape:connector-curvature="0" />
<path
   id="path12650"
   style="fill:#000000;stroke-width:0"
   d="m 235.31,707.65 v 0.03 0.02 l -0.01,0.03 v 0.03 l -0.01,0.02 v 0.03 l -0.01,0.02 -0.01,0.03 -0.01,0.02 -0.01,0.02 -0.02,0.02 -0.01,0.02 -0.02,0.03 -0.01,0.02 -0.02,0.01 -0.02,0.02 -0.01,0.02 -0.02,0.02 -0.02,0.01 -0.02,0.02 -0.03,0.01 -0.02,0.01 -0.02,0.02 -0.02,0.01 -0.03,0.01 h -0.02 l -0.03,0.01 -0.02,0.01 h -0.03 l -0.03,0.01 h -0.02 -0.03 c -0.29,0 -0.53,-0.24 -0.53,-0.53 0,-0.29 0.24,-0.52 0.53,-0.52 0.29,0 0.53,0.23 0.53,0.52 z"
   inkscape:connector-curvature="0" />
<path
   id="path12652"
   style="fill:#000000;stroke-width:0"
   d="m 237.43,707.89 1.06,1.02 c 1.55,1.37 2.15,1.91 2.15,2.9 0,1.14 -0.9,1.93 -2.12,1.93 -1.12,0 -1.86,-0.91 -1.86,-1.8 0,-0.55 0.5,-0.55 0.53,-0.55 0.17,0 0.52,0.12 0.52,0.52 0,0.26 -0.18,0.52 -0.53,0.52 -0.08,0 -0.1,0 -0.13,-0.01 0.23,0.65 0.77,1.01 1.35,1.01 0.9,0 1.33,-0.8 1.33,-1.62 0,-0.79 -0.5,-1.58 -1.05,-2.19 l -1.91,-2.13 c -0.11,-0.11 -0.11,-0.13 -0.11,-0.36 h 3.7 l 0.28,1.72 h -0.25 c -0.05,-0.3 -0.12,-0.73 -0.22,-0.88 -0.07,-0.08 -0.73,-0.08 -0.95,-0.08 z"
   inkscape:connector-curvature="0" />
<path
   id="path12654"
   style="fill:#000000;stroke-width:0"
   d="m 242.02,707.71 v -0.01 -0.02 l -0.01,-0.01 v -0.02 l -0.01,-0.03 -0.01,-0.03 v -0.03 l -0.01,-0.04 -0.01,-0.03 v -0.03 l -0.01,-0.01 v -0.02 -0.01 l -0.01,-0.02 v -0.01 -0.01 l -0.01,-0.02 v -0.01 -0.01 -0.01 -0.01 l -0.01,-0.01 v -0.01 0 -0.01 -0.01 c 0,-0.18 0.14,-0.26 0.29,-0.26 0.12,0 0.3,0.07 0.37,0.27 0.01,0.02 0.13,0.49 0.19,0.74 l 0.22,0.89 c 0.06,0.22 0.12,0.44 0.17,0.67 0.04,0.17 0.12,0.46 0.13,0.5 0.15,0.3 0.68,1.21 1.62,1.21 0.45,0 0.54,-0.37 0.54,-0.7 0,-0.61 -0.49,-1.89 -0.65,-2.31 -0.09,-0.23 -0.1,-0.35 -0.1,-0.46 0,-0.47 0.35,-0.81 0.82,-0.81 0.94,0 1.31,1.45 1.31,1.53 0,0.1 -0.09,0.1 -0.12,0.1 -0.1,0 -0.1,-0.04 -0.15,-0.18 -0.2,-0.68 -0.53,-1.24 -1.02,-1.24 -0.17,0 -0.24,0.1 -0.24,0.33 0,0.25 0.09,0.49 0.18,0.71 0.19,0.52 0.61,1.62 0.61,2.18 0,0.67 -0.43,1.07 -1.15,1.07 -0.89,0 -1.38,-0.64 -1.55,-0.87 -0.05,0.56 -0.46,0.87 -0.92,0.87 -0.46,0 -0.65,-0.39 -0.75,-0.57 -0.16,-0.34 -0.3,-0.92 -0.3,-0.96 0,-0.1 0.1,-0.1 0.12,-0.1 0.1,0 0.11,0.01 0.17,0.22 0.17,0.71 0.37,1.19 0.73,1.19 0.2,0 0.31,-0.13 0.31,-0.46 0,-0.21 -0.03,-0.32 -0.16,-0.83 z"
   inkscape:connector-curvature="0" />
<path
   id="path12656"
   style="fill:#000000;stroke-width:0"
   d="m 253.55,714.03 v 0 0.01 0 0 0.01 0 0 0.01 0 0.01 0 h -0.01 v 0.01 0 0.01 h -0.01 v 0 0.01 h -0.01 v 0 0.01 h -0.01 v 0 l -0.01,0.01 v 0 h -0.01 v 0 0 h -0.01 v 0 0 l -0.01,0.01 v 0 0 h -0.01 v 0 h -0.01 v 0 0 c -0.05,0 -0.06,-0.01 -0.18,-0.15 l -0.48,-0.57 c -0.26,0.47 -0.78,0.72 -1.43,0.72 -1.26,0 -2.46,-1.14 -2.46,-2.35 0,-0.8 0.53,-1.26 1.04,-1.41 l 1.06,-0.28 c 0.37,-0.08 0.92,-0.23 0.92,-1.05 0,-0.89 -0.82,-1.83 -1.79,-1.83 -0.64,0 -1.75,0.22 -1.75,1.45 0,0.24 0.05,0.48 0.06,0.54 0.01,0.04 0.02,0.05 0.02,0.07 0,0.1 -0.07,0.11 -0.12,0.11 -0.05,0 -0.07,-0.01 -0.1,-0.04 -0.04,-0.04 -0.6,-2.3 -0.6,-2.33 0,-0.06 0.05,-0.1 0.11,-0.1 0.05,0 0.06,0.01 0.18,0.14 l 0.49,0.57 c 0.43,-0.57 1.11,-0.71 1.68,-0.71 1.36,0 2.54,1.32 2.54,2.55 0,0.69 -0.34,1.02 -0.49,1.16 -0.23,0.23 -0.38,0.27 -1.27,0.5 -0.22,0.06 -0.58,0.16 -0.67,0.18 -0.26,0.09 -0.6,0.37 -0.6,0.9 0,0.81 0.79,1.65 1.74,1.65 0.83,0 1.44,-0.43 1.44,-1.54 0,-0.32 -0.04,-0.5 -0.04,-0.56 0,-0.01 0,-0.09 0.12,-0.09 0.1,0 0.11,0.02 0.15,0.19 z"
   inkscape:connector-curvature="0" />
</g>  </g>
  <g
     inkscape:label="GND"
     transform="rotate(-180,34.648163,96.749147)"
     id="g12964"
     inkscape:export-xdpi="600"
     inkscape:export-ydpi="600">
    <g
       id="g12962"
       xml:space="preserve"
       stroke-miterlimit="10.433"
       font-style="normal"
       font-variant="normal"
       font-weight="normal"
       font-stretch="normal"
       font-size-adjust="none"
       letter-spacing="normal"
       word-spacing="normal"
       ns0:text=" $t_{ri}$"
       ns0:preamble="C:\\Program Files\\Inkscape\\share\\extensions/textextLib/CircuitSymbolsLatexPreamble.tex"
       transform="matrix(-0.34478384,0,0,0.34478384,122.3307,-142.59006)"
       style="font-style:normal;font-variant:normal;font-weight:normal;font-stretch:normal;letter-spacing:normal;word-spacing:normal;text-anchor:start;fill:none;fill-opacity:1;fill-rule:evenodd;stroke:#000000;stroke-linecap:butt;stroke-linejoin:miter;stroke-miterlimit:10.43299961;stroke-dasharray:none;stroke-dashoffset:0;stroke-opacity:1">
<path
   d="m 225.49,711.1 h 0.93 c 0.2,0 0.3,0 0.3,0.2 0,0.11 -0.1,0.11 -0.28,0.11 h -0.87 c 0.36,1.41 0.41,1.61 0.41,1.67 0,0.16 -0.13,0.26 -0.29,0.26 -0.03,0 -0.31,-0.01 -0.4,-0.35 l -0.39,-1.58 h -0.94 c -0.2,0 -0.3,0 -0.3,-0.19 0,-0.12 0.08,-0.12 0.28,-0.12 h 0.88 c -0.72,-2.82 -0.76,-2.99 -0.76,-3.17 0,-0.54 0.38,-0.91 0.92,-0.91 1.01,0 1.58,1.45 1.58,1.53 0,0.1 -0.08,0.1 -0.12,0.1 -0.09,0 -0.1,-0.04 -0.15,-0.14 -0.42,-1.04 -0.95,-1.28 -1.29,-1.28 -0.21,0 -0.31,0.13 -0.31,0.46 0,0.24 0.02,0.31 0.06,0.48 z"
   style="fill:#000000;stroke-width:0"
   id="path12954"
   inkscape:connector-curvature="0" />
<path
   d="m 228.67,707.04 v 0 0 0.01 h 0.01 v 0.01 0 0.01 0.01 0 l 0.01,0.01 v 0.01 0.01 0.01 l 0.01,0.01 v 0.03 l 0.01,0.02 0.01,0.03 v 0.03 l 0.01,0.03 0.01,0.03 0.01,0.03 0.01,0.06 0.02,0.06 0.01,0.03 v 0.03 l 0.01,0.03 0.01,0.03 v 0.02 l 0.01,0.03 0.01,0.02 v 0.01 0.01 l 0.01,0.01 v 0.01 0.01 0.01 l 0.01,0.01 v 0 0.01 0 0.01 0 0.01 0 c 0.02,0.05 0.22,0.4 0.44,0.57 0.08,0.05 0.27,0.19 0.57,0.19 0.07,0 0.25,0 0.39,-0.09 -0.23,-0.07 -0.31,-0.26 -0.31,-0.39 0,-0.15 0.12,-0.25 0.28,-0.25 0.16,0 0.39,0.13 0.39,0.42 0,0.36 -0.38,0.51 -0.74,0.51 -0.36,0 -0.68,-0.15 -0.99,-0.5 -0.12,0.43 -0.55,0.5 -0.72,0.5 -0.26,0 -0.43,-0.16 -0.54,-0.36 -0.16,-0.27 -0.26,-0.67 -0.26,-0.71 0,-0.09 0.1,-0.09 0.12,-0.09 0.09,0 0.1,0.02 0.15,0.21 0.11,0.43 0.24,0.75 0.51,0.75 0.18,0 0.23,-0.15 0.23,-0.34 0,-0.13 -0.06,-0.39 -0.11,-0.57 -0.05,-0.19 -0.12,-0.48 -0.15,-0.63 l -0.23,-0.89 c -0.03,-0.09 -0.07,-0.27 -0.07,-0.29 0,-0.15 0.13,-0.22 0.24,-0.22 0.11,0 0.25,0.06 0.3,0.2 0.02,0.04 0.09,0.35 0.13,0.52 z"
   style="fill:#000000;stroke-width:0"
   id="path12956"
   inkscape:connector-curvature="0" />
<path
   d="m 233.21,709.98 v 0.01 0.01 0.01 0.01 l -0.01,0.01 v 0.01 0.01 l -0.01,0.02 v 0.01 l -0.01,0.01 v 0.01 l -0.01,0.01 v 0.01 l -0.01,0.01 -0.01,0.01 -0.01,0.01 v 0.01 l -0.01,0.01 -0.01,0.01 -0.01,0.01 h -0.02 l -0.01,0.01 -0.01,0.01 -0.01,0.01 h -0.02 l -0.01,0.01 H 233.01 233 l -0.02,0.01 h -0.01 -0.02 -0.02 c -0.19,0 -0.39,-0.18 -0.39,-0.38 0,-0.12 0.09,-0.27 0.28,-0.27 0.2,0 0.39,0.2 0.39,0.39 z"
   style="fill:#000000;stroke-width:0"
   id="path12958"
   inkscape:connector-curvature="0" />
<path
   d="m 231.78,706.45 v -0.02 l -0.01,-0.02 -0.01,-0.03 v -0.02 l -0.01,-0.02 v -0.01 l -0.01,-0.02 v -0.02 l -0.01,-0.02 v -0.02 -0.01 -0.01 l -0.01,-0.01 v -0.01 -0.01 -0.02 -0.01 -0.01 -0.01 c 0,-0.32 0.28,-0.59 0.66,-0.59 0.71,0 1.01,0.96 1.01,1.07 0,0.09 -0.09,0.09 -0.11,0.09 -0.1,0 -0.1,-0.05 -0.13,-0.12 -0.16,-0.56 -0.47,-0.84 -0.74,-0.84 -0.14,0 -0.18,0.09 -0.18,0.24 0,0.16 0.05,0.29 0.11,0.45 0.07,0.18 0.15,0.37 0.23,0.55 0.06,0.17 0.31,0.8 0.34,0.88 0.02,0.07 0.04,0.16 0.04,0.23 0,0.32 -0.28,0.59 -0.66,0.59 -0.69,0 -1.02,-0.95 -1.02,-1.07 0,-0.09 0.1,-0.09 0.12,-0.09 0.1,0 0.11,0.04 0.13,0.11 0.18,0.6 0.49,0.85 0.75,0.85 0.11,0 0.17,-0.05 0.17,-0.24 0,-0.16 -0.04,-0.27 -0.21,-0.7 z"
   style="fill:#000000;stroke-width:0"
   id="path12960"
   inkscape:connector-curvature="0" />
</g>  </g>
  <g
     id="g13282"
     transform="rotate(-180,31.483842,97.951887)"
     inkscape:label="GND"
     inkscape:export-xdpi="600"
     inkscape:export-ydpi="600">
    <g
       transform="matrix(-0.3532703,0,0,0.3532703,120.69023,-150.25216)"
       ns0:preamble="C:\\Program Files\\Inkscape\\share\\extensions/textextLib/CircuitSymbolsLatexPreamble.tex"
       ns0:text=" $4.5nS$"
       word-spacing="normal"
       letter-spacing="normal"
       font-size-adjust="none"
       font-stretch="normal"
       font-weight="normal"
       font-variant="normal"
       font-style="normal"
       stroke-miterlimit="10.433"
       xml:space="preserve"
       id="g13280"
       style="font-style:normal;font-variant:normal;font-weight:normal;font-stretch:normal;letter-spacing:normal;word-spacing:normal;text-anchor:start;fill:none;fill-opacity:1;fill-rule:evenodd;stroke:#000000;stroke-linecap:butt;stroke-linejoin:miter;stroke-miterlimit:10.43299961;stroke-dasharray:none;stroke-dashoffset:0;stroke-opacity:1">
<path
   id="path13270"
   style="fill:#000000;stroke-width:0"
   d="m 226.36,708.76 v -0.86 c 0,-0.36 -0.02,-0.47 -0.75,-0.47 h -0.21 v -0.3 c 0.4,0.03 0.92,0.03 1.34,0.03 0.42,0 0.95,0 1.36,-0.03 v 0.3 h -0.21 c -0.74,0 -0.76,0.11 -0.76,0.47 v 0.86 h 1 v 0.31 h -1 v 4.52 c 0,0.2 0,0.26 -0.16,0.26 -0.09,0 -0.12,0 -0.2,-0.12 l -3.06,-4.66 h 0.28 l 2.43,3.71 v -3.71 h -2.43 -0.28 v -0.31 z"
   inkscape:connector-curvature="0" />
<path
   id="path13272"
   style="fill:#000000;stroke-width:0"
   d="m 230.33,707.65 v 0.03 0.02 l -0.01,0.03 v 0.03 l -0.01,0.02 -0.01,0.03 v 0.02 l -0.01,0.03 -0.01,0.02 -0.02,0.02 -0.01,0.02 -0.01,0.02 -0.02,0.03 -0.01,0.02 -0.02,0.01 -0.02,0.02 -0.02,0.02 -0.02,0.02 -0.02,0.01 -0.02,0.02 -0.02,0.01 -0.02,0.01 -0.02,0.02 -0.03,0.01 -0.02,0.01 h -0.02 l -0.03,0.01 -0.03,0.01 h -0.02 l -0.03,0.01 h -0.02 -0.03 c -0.29,0 -0.53,-0.24 -0.53,-0.53 0,-0.29 0.24,-0.52 0.53,-0.52 0.29,0 0.53,0.23 0.53,0.52 z"
   inkscape:connector-curvature="0" />
<path
   id="path13274"
   style="fill:#000000;stroke-width:0"
   d="m 235.66,709.12 v 0.11 l -0.01,0.11 -0.01,0.11 -0.02,0.1 -0.02,0.11 -0.02,0.1 -0.03,0.1 -0.04,0.1 -0.03,0.1 -0.04,0.09 -0.05,0.09 -0.05,0.09 -0.05,0.09 -0.05,0.08 -0.06,0.08 -0.06,0.07 -0.07,0.08 -0.07,0.06 -0.07,0.07 -0.07,0.06 -0.08,0.06 -0.08,0.05 -0.08,0.05 -0.09,0.04 -0.08,0.04 -0.09,0.04 -0.09,0.03 -0.1,0.02 -0.09,0.02 -0.1,0.02 h -0.1 l -0.1,0.01 c -0.47,0 -0.9,-0.16 -1.26,-0.51 v 1.94 c 0.2,-0.06 0.53,-0.13 0.85,-0.13 1.22,0 1.92,0.9 1.92,1.03 0,0.06 -0.03,0.11 -0.1,0.11 -0.01,0 -0.03,0 -0.08,-0.03 -0.2,-0.09 -0.69,-0.29 -1.36,-0.29 -0.39,0 -0.85,0.07 -1.32,0.28 -0.08,0.03 -0.1,0.03 -0.12,0.03 -0.1,0 -0.1,-0.08 -0.1,-0.24 v -2.94 c 0,-0.18 0,-0.26 0.14,-0.26 0.07,0 0.09,0.03 0.13,0.09 0.11,0.16 0.48,0.7 1.28,0.7 0.52,0 0.77,-0.46 0.85,-0.64 0.16,-0.36 0.18,-0.75 0.18,-1.25 0,-0.35 0,-0.94 -0.24,-1.36 -0.24,-0.39 -0.61,-0.65 -1.07,-0.65 -0.72,0 -1.29,0.53 -1.46,1.12 0.03,-0.01 0.06,-0.02 0.17,-0.02 0.33,0 0.5,0.25 0.5,0.48 0,0.24 -0.17,0.49 -0.5,0.49 -0.14,0 -0.49,-0.07 -0.49,-0.53 0,-0.85 0.69,-1.81 1.81,-1.81 1.15,0 2.17,0.95 2.17,2.21 z"
   inkscape:connector-curvature="0" />
<path
   id="path13276"
   style="fill:#000000;stroke-width:0"
   d="m 237.04,707.71 v -0.01 l -0.01,-0.02 v -0.01 -0.02 l -0.01,-0.03 -0.01,-0.03 v -0.03 l -0.01,-0.04 -0.01,-0.03 -0.01,-0.03 v -0.01 -0.02 l -0.01,-0.01 v -0.02 -0.01 l -0.01,-0.01 v -0.02 -0.01 -0.01 -0.01 l -0.01,-0.01 v -0.01 -0.01 0 -0.01 -0.01 c 0,-0.18 0.14,-0.26 0.29,-0.26 0.12,0 0.3,0.07 0.37,0.27 0.01,0.02 0.13,0.49 0.19,0.74 l 0.22,0.89 c 0.06,0.22 0.12,0.44 0.17,0.67 0.04,0.17 0.12,0.46 0.13,0.5 0.15,0.3 0.67,1.21 1.62,1.21 0.45,0 0.54,-0.37 0.54,-0.7 0,-0.61 -0.49,-1.89 -0.65,-2.31 -0.09,-0.23 -0.1,-0.35 -0.1,-0.46 0,-0.47 0.35,-0.81 0.82,-0.81 0.94,0 1.31,1.45 1.31,1.53 0,0.1 -0.09,0.1 -0.12,0.1 -0.1,0 -0.1,-0.04 -0.15,-0.18 -0.2,-0.68 -0.53,-1.24 -1.02,-1.24 -0.17,0 -0.24,0.1 -0.24,0.33 0,0.25 0.09,0.49 0.18,0.71 0.19,0.52 0.61,1.62 0.61,2.18 0,0.67 -0.43,1.07 -1.15,1.07 -0.9,0 -1.38,-0.64 -1.55,-0.87 -0.05,0.56 -0.46,0.87 -0.92,0.87 -0.46,0 -0.65,-0.39 -0.75,-0.57 -0.16,-0.34 -0.3,-0.92 -0.3,-0.96 0,-0.1 0.1,-0.1 0.12,-0.1 0.1,0 0.11,0.01 0.17,0.22 0.17,0.71 0.37,1.19 0.73,1.19 0.2,0 0.31,-0.13 0.31,-0.46 0,-0.21 -0.03,-0.32 -0.16,-0.83 z"
   inkscape:connector-curvature="0" />
<path
   id="path13278"
   style="fill:#000000;stroke-width:0"
   d="m 248.57,714.03 v 0 0.01 0 0 0.01 0 0 0.01 0 0.01 h -0.01 v 0 0.01 0 0.01 h -0.01 v 0 0.01 h -0.01 v 0 l -0.01,0.01 v 0 h -0.01 v 0.01 h -0.01 v 0 0 h -0.01 v 0 0 h -0.01 v 0.01 0 h -0.01 v 0 0 h -0.01 v 0 h -0.01 c -0.05,0 -0.06,-0.01 -0.18,-0.15 l -0.47,-0.57 c -0.26,0.47 -0.78,0.72 -1.43,0.72 -1.27,0 -2.46,-1.14 -2.46,-2.35 0,-0.8 0.53,-1.26 1.03,-1.41 l 1.07,-0.28 c 0.37,-0.08 0.92,-0.23 0.92,-1.05 0,-0.89 -0.82,-1.83 -1.8,-1.83 -0.63,0 -1.74,0.22 -1.74,1.45 0,0.24 0.05,0.48 0.06,0.54 0.01,0.04 0.02,0.05 0.02,0.07 0,0.1 -0.07,0.11 -0.12,0.11 -0.05,0 -0.07,-0.01 -0.1,-0.04 -0.04,-0.04 -0.6,-2.3 -0.6,-2.33 0,-0.06 0.05,-0.1 0.11,-0.1 0.05,0 0.06,0.01 0.18,0.14 l 0.49,0.57 c 0.43,-0.57 1.1,-0.71 1.68,-0.71 1.36,0 2.54,1.32 2.54,2.55 0,0.69 -0.34,1.02 -0.49,1.16 -0.23,0.23 -0.38,0.27 -1.27,0.5 -0.22,0.06 -0.58,0.16 -0.67,0.18 -0.27,0.09 -0.6,0.37 -0.6,0.9 0,0.81 0.79,1.65 1.74,1.65 0.83,0 1.44,-0.43 1.44,-1.54 0,-0.32 -0.04,-0.5 -0.04,-0.56 0,-0.01 0,-0.09 0.12,-0.09 0.1,0 0.1,0.02 0.15,0.19 z"
   inkscape:connector-curvature="0" />
</g>  </g>
  <g
     inkscape:label="GND"
     transform="rotate(-180,43.95127,92.355177)"
     id="g13610"
     inkscape:export-xdpi="600"
     inkscape:export-ydpi="600">
    <g
       style="font-style:normal;font-variant:normal;font-weight:normal;font-stretch:normal;letter-spacing:normal;word-spacing:normal;text-anchor:start;fill:none;fill-opacity:1;fill-rule:evenodd;stroke:#000000;stroke-linecap:butt;stroke-linejoin:miter;stroke-miterlimit:10.43299961;stroke-dasharray:none;stroke-dashoffset:0;stroke-opacity:1"
       id="g13608"
       xml:space="preserve"
       stroke-miterlimit="10.433"
       font-style="normal"
       font-variant="normal"
       font-weight="normal"
       font-stretch="normal"
       font-size-adjust="none"
       letter-spacing="normal"
       word-spacing="normal"
       ns0:text=" $t_{fv}$"
       ns0:preamble="C:\\Program Files\\Inkscape\\share\\extensions/textextLib/CircuitSymbolsLatexPreamble.tex"
       transform="matrix(-0.31967848,0,0,0.31967848,122.0429,-133.50031)">
<path
   inkscape:connector-curvature="0"
   d="m 225.49,711.1 h 0.93 c 0.2,0 0.3,0 0.3,0.2 0,0.11 -0.1,0.11 -0.28,0.11 h -0.87 c 0.36,1.41 0.41,1.61 0.41,1.67 0,0.16 -0.13,0.26 -0.29,0.26 -0.03,0 -0.31,-0.01 -0.4,-0.35 l -0.39,-1.58 h -0.94 c -0.2,0 -0.3,0 -0.3,-0.19 0,-0.12 0.08,-0.12 0.28,-0.12 h 0.88 c -0.72,-2.82 -0.76,-2.99 -0.76,-3.17 0,-0.54 0.38,-0.91 0.92,-0.91 1.01,0 1.58,1.45 1.58,1.53 0,0.1 -0.08,0.1 -0.12,0.1 -0.09,0 -0.1,-0.04 -0.15,-0.14 -0.42,-1.04 -0.95,-1.28 -1.29,-1.28 -0.21,0 -0.31,0.13 -0.31,0.46 0,0.24 0.02,0.31 0.06,0.48 z"
   style="fill:#000000;stroke-width:0"
   id="path13602" />
<path
   inkscape:connector-curvature="0"
   d="m 229.88,708.38 h 0.68 c 0.14,0 0.23,0 0.23,0.15 0,0.1 -0.09,0.1 -0.22,0.1 h -0.64 c 0.16,0.88 0.21,1.2 0.27,1.4 0.03,0.16 0.19,0.3 0.35,0.3 0.01,0 0.2,0 0.33,-0.08 -0.28,-0.09 -0.31,-0.34 -0.31,-0.38 0,-0.16 0.12,-0.26 0.28,-0.26 0.19,0 0.4,0.16 0.4,0.42 0,0.32 -0.34,0.5 -0.7,0.5 -0.3,0 -0.65,-0.18 -0.84,-0.52 -0.14,-0.26 -0.19,-0.58 -0.34,-1.38 h -0.55 c -0.14,0 -0.23,0 -0.23,-0.16 0,-0.09 0.09,-0.09 0.22,-0.09 h 0.51 c 0,-0.04 -0.44,-2.55 -0.61,-3.29 -0.04,-0.15 -0.16,-0.68 -0.49,-0.68 -0.01,0 -0.18,0 -0.31,0.08 0.29,0.09 0.31,0.34 0.31,0.38 0,0.16 -0.12,0.26 -0.28,0.26 -0.19,0 -0.4,-0.16 -0.4,-0.42 0,-0.32 0.33,-0.5 0.68,-0.5 0.45,0 0.75,0.46 0.84,0.61 0.25,0.47 0.41,1.33 0.42,1.41 z"
   style="fill:#000000;stroke-width:0"
   id="path13604" />
<path
   inkscape:connector-curvature="0"
   d="m 235.43,708.16 v 0.02 0.02 0.03 0.02 l -0.01,0.02 v 0.02 0.02 0.02 l -0.01,0.02 v 0.02 l -0.01,0.02 v 0.02 l -0.01,0.01 v 0.02 l -0.01,0.02 v 0.01 l -0.01,0.01 v 0.02 l -0.01,0.01 -0.01,0.01 v 0.02 l -0.01,0.01 -0.01,0.01 -0.01,0.01 v 0.01 l -0.01,0.01 -0.02,0.01 -0.01,0.02 -0.02,0.01 -0.01,0.02 -0.02,0.01 -0.01,0.01 h -0.02 l -0.02,0.01 -0.01,0.01 h -0.01 l -0.02,0.01 h -0.01 -0.01 -0.01 -0.01 -0.01 v 0 h -0.01 v 0.01 c -0.18,0 -0.38,-0.19 -0.38,-0.37 0,-0.12 0.07,-0.18 0.12,-0.22 0.12,-0.1 0.26,-0.28 0.26,-0.56 0,-0.31 -0.46,-1.8 -1.29,-1.8 -0.57,0 -0.57,0.5 -0.57,0.62 0,0.32 0.13,0.7 0.38,1.35 0.06,0.15 0.1,0.25 0.1,0.37 0,0.36 -0.3,0.6 -0.66,0.6 -0.7,0 -1.02,-0.96 -1.02,-1.07 0,-0.09 0.1,-0.09 0.12,-0.09 0.1,0 0.11,0.04 0.13,0.11 0.17,0.57 0.47,0.85 0.75,0.85 0.12,0 0.17,-0.07 0.17,-0.24 0,-0.16 -0.05,-0.31 -0.12,-0.47 -0.3,-0.77 -0.38,-1.07 -0.38,-1.32 0,-0.69 0.54,-0.91 1.08,-0.91 1.17,0 1.66,2.03 1.66,2.6 z"
   style="fill:#000000;stroke-width:0"
   id="path13606" />
</g>  </g>
  <g
     id="g14297"
     transform="rotate(-180,47.707408,99.461297)"
     inkscape:label="GND"
     inkscape:export-xdpi="600"
     inkscape:export-ydpi="600">
    <g
       transform="matrix(-0.35920225,0,0,0.35920225,141.76984,-151.52153)"
       ns0:preamble="C:\\Program Files\\Inkscape\\share\\extensions/textextLib/CircuitSymbolsLatexPreamble.tex"
       ns0:text=" $107nS$"
       word-spacing="normal"
       letter-spacing="normal"
       font-size-adjust="none"
       font-stretch="normal"
       font-weight="normal"
       font-variant="normal"
       font-style="normal"
       stroke-miterlimit="10.433"
       xml:space="preserve"
       id="g14295"
       style="font-style:normal;font-variant:normal;font-weight:normal;font-stretch:normal;letter-spacing:normal;word-spacing:normal;text-anchor:start;fill:none;fill-opacity:1;fill-rule:evenodd;stroke:#000000;stroke-linecap:butt;stroke-linejoin:miter;stroke-miterlimit:10.43299961;stroke-dasharray:none;stroke-dashoffset:0;stroke-opacity:1">
<path
   id="path14285"
   style="fill:#000000;stroke-width:0"
   d="m 226.36,713.48 v 0.01 0.01 0.02 0.01 0 0.01 0.01 0.01 0.01 0.01 0.01 0.01 0 0.01 0.01 0 0.01 0.01 0.01 l -0.01,0.01 v 0.01 0.01 l -0.01,0.01 v 0 0.01 l -0.01,0.01 h -0.01 v 0.01 h -0.01 l -0.01,0.01 h -0.01 v 0 h -0.01 v 0 h -0.01 v 0 l -0.01,0.01 h -0.01 v 0 h -0.01 -0.01 v 0 h -0.01 -0.01 -0.01 -0.01 -0.01 -0.01 -0.01 -0.01 -0.01 -0.01 c -0.61,-0.64 -1.49,-0.64 -1.81,-0.64 v -0.3 c 0.2,0 0.79,0 1.31,0.25 v -5.14 c 0,-0.36 -0.03,-0.48 -0.93,-0.48 h -0.32 v -0.3 c 0.35,0.03 1.22,0.03 1.61,0.03 0.4,0 1.27,0 1.62,-0.03 v 0.3 h -0.32 c -0.9,0 -0.93,0.11 -0.93,0.48 z"
   inkscape:connector-curvature="0" />
<path
   id="path14287"
   style="fill:#000000;stroke-width:0"
   d="m 233,710.3 v 0.15 0.15 l -0.01,0.15 v 0.15 l -0.01,0.15 -0.01,0.14 -0.02,0.15 -0.02,0.15 -0.02,0.14 -0.03,0.15 -0.03,0.14 -0.04,0.15 -0.04,0.14 -0.05,0.14 -0.06,0.14 -0.03,0.07 -0.03,0.07 c -0.46,0.95 -1.28,1.11 -1.69,1.11 -0.6,0 -1.33,-0.26 -1.74,-1.18 -0.32,-0.69 -0.37,-1.46 -0.37,-2.26 0,-0.74 0.04,-1.64 0.45,-2.39 0.43,-0.81 1.16,-1 1.65,-1 v 0.22 c -0.39,0 -0.98,0.24 -1.16,1.2 -0.11,0.59 -0.11,1.51 -0.11,2.09 0,0.64 0,1.29 0.08,1.83 0.19,1.18 0.94,1.27 1.19,1.27 0.33,0 0.98,-0.18 1.17,-1.16 0.1,-0.56 0.1,-1.31 0.1,-1.94 0,-0.74 0,-1.42 -0.11,-2.05 -0.15,-0.95 -0.71,-1.24 -1.16,-1.24 v 0 -0.22 c 0.53,0 1.29,0.2 1.73,1.15 0.32,0.68 0.37,1.46 0.37,2.24 z"
   inkscape:connector-curvature="0" />
<path
   id="path14289"
   style="fill:#000000;stroke-width:0"
   d="m 238.14,713.17 0.01,0.02 0.01,0.01 v 0.01 l 0.01,0.01 h 0.01 v 0.01 l 0.01,0.01 v 0.01 l 0.01,0.01 v 0.01 h 0.01 v 0.01 0.01 0.01 l 0.01,0.01 v 0.01 0 0.01 0.01 l 0.01,0.01 v 0.01 0.01 0.01 0.02 0.01 0.01 0.02 0.01 0.02 0.02 0.01 0.01 0.01 h -2.42 c -1.22,0 -1.24,0.13 -1.28,0.32 h -0.25 l -0.33,-2.05 h 0.25 c 0.03,0.16 0.12,0.79 0.25,0.91 0.07,0.06 0.85,0.06 0.98,0.06 h 2.06 c -0.11,-0.16 -0.89,-1.24 -1.11,-1.57 -0.9,-1.34 -1.23,-2.72 -1.23,-3.74 0,-0.1 0,-0.54 0.46,-0.54 0.46,0 0.46,0.44 0.46,0.54 v 0.51 c 0,0.55 0.03,1.09 0.11,1.63 0.04,0.23 0.18,1.08 0.61,1.7 z"
   inkscape:connector-curvature="0" />
<path
   id="path14291"
   style="fill:#000000;stroke-width:0"
   d="m 239.25,707.71 v -0.01 -0.02 l -0.01,-0.01 v -0.02 l -0.01,-0.03 v -0.03 l -0.01,-0.03 -0.01,-0.04 -0.01,-0.03 v -0.03 l -0.01,-0.01 v -0.02 -0.01 l -0.01,-0.02 v -0.01 -0.01 -0.02 l -0.01,-0.01 v -0.01 -0.01 -0.01 -0.01 -0.01 h -0.01 v -0.01 -0.01 c 0,-0.18 0.14,-0.26 0.29,-0.26 0.12,0 0.3,0.07 0.37,0.27 0.01,0.02 0.13,0.49 0.19,0.74 l 0.22,0.89 c 0.06,0.22 0.12,0.44 0.17,0.67 0.04,0.17 0.12,0.46 0.13,0.5 0.15,0.3 0.68,1.21 1.62,1.21 0.45,0 0.54,-0.37 0.54,-0.7 0,-0.61 -0.48,-1.89 -0.64,-2.31 -0.09,-0.23 -0.1,-0.35 -0.1,-0.46 0,-0.47 0.34,-0.81 0.81,-0.81 0.94,0 1.31,1.45 1.31,1.53 0,0.1 -0.09,0.1 -0.12,0.1 -0.1,0 -0.1,-0.04 -0.15,-0.18 -0.2,-0.68 -0.53,-1.24 -1.02,-1.24 -0.17,0 -0.24,0.1 -0.24,0.33 0,0.25 0.09,0.49 0.18,0.71 0.19,0.52 0.61,1.62 0.61,2.18 0,0.67 -0.43,1.07 -1.15,1.07 -0.89,0 -1.38,-0.64 -1.55,-0.87 -0.05,0.56 -0.46,0.87 -0.92,0.87 -0.46,0 -0.65,-0.39 -0.75,-0.57 -0.16,-0.34 -0.3,-0.92 -0.3,-0.96 0,-0.1 0.1,-0.1 0.13,-0.1 0.09,0 0.11,0.01 0.16,0.22 0.17,0.71 0.37,1.19 0.73,1.19 0.2,0 0.31,-0.13 0.31,-0.46 0,-0.21 -0.03,-0.32 -0.16,-0.83 z"
   inkscape:connector-curvature="0" />
<path
   id="path14293"
   style="fill:#000000;stroke-width:0"
   d="m 250.79,714.03 v 0 0.01 0 0 0.01 0 h -0.01 v 0.01 0 0.01 0 0 l -0.01,0.01 v 0 0.01 0 h -0.01 v 0.01 0 h -0.01 v 0.01 h -0.01 v 0 l -0.01,0.01 v 0 h -0.01 v 0 0 0 h -0.01 v 0 0.01 h -0.01 v 0 h -0.01 v 0 0 h -0.01 v 0 c -0.05,0 -0.06,-0.01 -0.18,-0.15 l -0.48,-0.57 c -0.26,0.47 -0.78,0.72 -1.43,0.72 -1.26,0 -2.46,-1.14 -2.46,-2.35 0,-0.8 0.53,-1.26 1.04,-1.41 l 1.07,-0.28 c 0.36,-0.08 0.91,-0.23 0.91,-1.05 0,-0.89 -0.82,-1.83 -1.79,-1.83 -0.64,0 -1.75,0.22 -1.75,1.45 0,0.24 0.05,0.48 0.06,0.54 0.01,0.04 0.02,0.05 0.02,0.07 0,0.1 -0.07,0.11 -0.12,0.11 -0.05,0 -0.07,-0.01 -0.1,-0.04 -0.04,-0.04 -0.6,-2.3 -0.6,-2.33 0,-0.06 0.05,-0.1 0.11,-0.1 0.05,0 0.06,0.01 0.18,0.14 l 0.49,0.57 c 0.43,-0.57 1.11,-0.71 1.69,-0.71 1.35,0 2.53,1.32 2.53,2.55 0,0.69 -0.34,1.02 -0.49,1.16 -0.23,0.23 -0.38,0.27 -1.26,0.5 -0.22,0.06 -0.58,0.16 -0.67,0.18 -0.27,0.09 -0.61,0.37 -0.61,0.9 0,0.81 0.8,1.65 1.74,1.65 0.83,0 1.44,-0.43 1.44,-1.54 0,-0.32 -0.04,-0.5 -0.04,-0.56 0,-0.01 0,-0.09 0.12,-0.09 0.1,0 0.11,0.02 0.15,0.19 z"
   inkscape:connector-curvature="0" />
</g>  </g>
  <g
     inkscape:label="GND"
     transform="matrix(-0.38812778,0,0,-0.38812778,11.552933,23.387344)"
     id="g14647"
     inkscape:export-xdpi="600"
     inkscape:export-ydpi="600">
    <g
       style="font-style:normal;font-variant:normal;font-weight:normal;font-stretch:normal;letter-spacing:normal;word-spacing:normal;text-anchor:start;fill:none;fill-opacity:1;fill-rule:evenodd;stroke:#000000;stroke-linecap:butt;stroke-linejoin:miter;stroke-miterlimit:10.43299961;stroke-dasharray:none;stroke-dashoffset:0;stroke-opacity:1"
       id="g14645"
       xml:space="preserve"
       stroke-miterlimit="10.433"
       font-style="normal"
       font-variant="normal"
       font-weight="normal"
       font-stretch="normal"
       font-size-adjust="none"
       letter-spacing="normal"
       word-spacing="normal"
       ns0:text=" $V_{gg}$"
       ns0:preamble="C:\\Program Files\\Inkscape\\share\\extensions/textextLib/CircuitSymbolsLatexPreamble.tex"
       transform="matrix(-0.739645,0,0,0.739645,187.39213,-484.65814)">
<path
   inkscape:connector-curvature="0"
   d="m 229.7,712.78 0.04,0.07 0.05,0.06 0.04,0.07 0.04,0.05 0.05,0.06 0.04,0.05 0.05,0.05 0.04,0.04 0.04,0.04 0.04,0.04 0.04,0.03 0.05,0.03 0.04,0.03 0.04,0.03 0.04,0.02 0.04,0.02 0.04,0.02 0.04,0.02 0.04,0.01 0.03,0.02 0.04,0.01 0.04,0.01 0.04,0.01 h 0.03 l 0.04,0.01 h 0.04 l 0.07,0.01 0.07,0.01 h 0.07 c 0.12,0.01 0.13,0.18 0.13,0.19 0,0.08 -0.05,0.12 -0.13,0.12 -0.26,0 -0.55,-0.03 -0.82,-0.03 -0.33,0 -0.66,0.03 -0.98,0.03 -0.06,0 -0.19,0 -0.19,-0.19 0,-0.11 0.09,-0.12 0.16,-0.12 0.26,-0.02 0.46,-0.12 0.46,-0.33 0,-0.14 -0.15,-0.36 -0.15,-0.37 l -3.07,-4.85 -0.67,5.25 c 0,0.17 0.22,0.3 0.68,0.3 0.14,0 0.25,0 0.25,0.2 0,0.09 -0.08,0.11 -0.14,0.11 -0.4,0 -0.82,-0.03 -1.23,-0.03 -0.18,0 -0.37,0.01 -0.55,0.01 -0.18,0 -0.37,0.02 -0.54,0.02 -0.07,0 -0.19,0 -0.19,-0.19 0,-0.12 0.09,-0.12 0.25,-0.12 0.56,0 0.57,-0.09 0.6,-0.34 l 0.79,-6.12 c 0.03,-0.2 0.07,-0.23 0.19,-0.23 0.17,0 0.2,0.05 0.28,0.18 z"
   style="fill:#000000;stroke-width:0"
   id="path14639" />
<path
   inkscape:connector-curvature="0"
   d="m 232.96,708.2 0.01,0.01 v 0.01 0 0.01 l 0.01,0.01 v 0.01 0.01 0 0.01 0.01 0 l 0.01,0.01 v 0 0.01 0 0.01 0 0 0.01 0 0 0.01 0 0 0 0.01 0 0 0 0 0 0 c 0,0.16 -0.12,0.23 -0.24,0.23 -0.16,0 -0.29,-0.14 -0.32,-0.27 -0.12,0.19 -0.35,0.4 -0.72,0.4 v -0.2 c 0.49,0 0.62,-0.52 0.62,-0.59 0,-0.01 0,-0.03 -0.02,-0.1 L 232,706.56 c -0.03,-0.11 -0.03,-0.12 -0.15,-0.26 -0.24,-0.29 -0.58,-0.47 -0.84,-0.47 -0.36,0 -0.53,0.3 -0.53,0.66 0,0.3 0.19,1.08 0.37,1.39 0.3,0.48 0.62,0.62 0.86,0.62 v 0.2 c -0.87,0 -1.79,-0.93 -1.79,-1.93 0,-0.72 0.49,-1.14 1.07,-1.14 0.32,0 0.62,0.16 0.87,0.38 l -0.15,-0.63 c -0.08,-0.29 -0.13,-0.48 -0.4,-0.72 -0.3,-0.25 -0.6,-0.25 -0.78,-0.25 -0.32,0 -0.41,0.02 -0.54,0.05 0.18,0.08 0.23,0.25 0.23,0.34 0,0.17 -0.14,0.26 -0.28,0.26 -0.19,0 -0.4,-0.16 -0.4,-0.42 0,-0.42 0.61,-0.43 1,-0.43 1.09,0 1.56,0.56 1.66,0.95 z"
   style="fill:#000000;stroke-width:0"
   id="path14641" />
<path
   inkscape:connector-curvature="0"
   d="m 237.1,708.2 v 0.01 l 0.01,0.01 v 0 0.01 0.01 0.01 l 0.01,0.01 v 0 0.01 0.01 0 0.01 0 0.01 0 l 0.01,0.01 v 0 0 0.01 0 0 0.01 0 0 0 0.01 0 0 0 0 0 0 c 0,0.16 -0.13,0.23 -0.24,0.23 -0.16,0 -0.29,-0.14 -0.32,-0.27 -0.12,0.19 -0.36,0.4 -0.72,0.4 v -0.2 c 0.49,0 0.62,-0.52 0.62,-0.59 0,-0.01 0,-0.03 -0.02,-0.1 l -0.31,-1.25 c -0.03,-0.11 -0.03,-0.12 -0.15,-0.26 -0.25,-0.29 -0.58,-0.47 -0.85,-0.47 -0.35,0 -0.52,0.3 -0.52,0.66 0,0.3 0.19,1.08 0.37,1.39 0.29,0.48 0.62,0.62 0.86,0.62 v 0.2 c -0.87,0 -1.79,-0.93 -1.79,-1.93 0,-0.72 0.49,-1.14 1.06,-1.14 0.32,0 0.63,0.16 0.88,0.38 l -0.16,-0.63 c -0.07,-0.29 -0.12,-0.48 -0.39,-0.72 -0.31,-0.25 -0.61,-0.25 -0.78,-0.25 -0.32,0 -0.41,0.02 -0.54,0.05 0.17,0.08 0.22,0.25 0.22,0.34 0,0.17 -0.13,0.26 -0.27,0.26 -0.2,0 -0.4,-0.16 -0.4,-0.42 0,-0.42 0.6,-0.43 1,-0.43 1.09,0 1.56,0.56 1.66,0.95 z"
   style="fill:#000000;stroke-width:0"
   id="path14643" />
</g>  </g>
  <g
     id="g15008"
     transform="rotate(-180,73.700526,41.885401)"
     inkscape:label="GND" />
  <g
     inkscape:label="arrowV"
     transform="rotate(90,85.951445,43.964793)"
     id="g15378" />
  <g
     id="g17286"
     transform="rotate(-180,86.745987,41.232748)"
     inkscape:label="GND"
     inkscape:export-xdpi="600"
     inkscape:export-ydpi="600">
    <g
       transform="matrix(-0.3250376,0,0,0.3250376,157.20956,-160.45633)"
       ns0:preamble="C:\\Program Files\\Inkscape\\share\\extensions/textextLib/CircuitSymbolsLatexPreamble.tex"
       ns0:text=" $V_{gs}(t)$"
       word-spacing="normal"
       letter-spacing="normal"
       font-size-adjust="none"
       font-stretch="normal"
       font-weight="normal"
       font-variant="normal"
       font-style="normal"
       stroke-miterlimit="10.433"
       xml:space="preserve"
       id="content"
       style="font-style:normal;font-variant:normal;font-weight:normal;font-stretch:normal;letter-spacing:normal;word-spacing:normal;text-anchor:start;fill:none;fill-opacity:1;fill-rule:evenodd;stroke:#000000;stroke-linecap:butt;stroke-linejoin:miter;stroke-miterlimit:10.43299961;stroke-dasharray:none;stroke-dashoffset:0;stroke-opacity:1">
<path
   id="path17273"
   style="fill:#000000;stroke-width:0"
   d="m 229.7,712.78 0.04,0.07 0.05,0.06 0.04,0.07 0.04,0.05 0.05,0.06 0.04,0.05 0.05,0.05 0.04,0.04 0.04,0.04 0.04,0.04 0.04,0.03 0.05,0.03 0.04,0.03 0.04,0.03 0.04,0.02 0.04,0.02 0.04,0.02 0.04,0.02 0.04,0.01 0.03,0.02 0.04,0.01 0.04,0.01 0.04,0.01 h 0.03 l 0.04,0.01 h 0.04 l 0.07,0.01 0.07,0.01 h 0.07 c 0.12,0.01 0.13,0.18 0.13,0.19 0,0.08 -0.05,0.12 -0.13,0.12 -0.26,0 -0.55,-0.03 -0.82,-0.03 -0.33,0 -0.66,0.03 -0.98,0.03 -0.06,0 -0.19,0 -0.19,-0.19 0,-0.11 0.09,-0.12 0.16,-0.12 0.26,-0.02 0.46,-0.12 0.46,-0.33 0,-0.14 -0.15,-0.36 -0.15,-0.37 l -3.07,-4.85 -0.67,5.25 c 0,0.17 0.22,0.3 0.68,0.3 0.14,0 0.25,0 0.25,0.2 0,0.09 -0.08,0.11 -0.14,0.11 -0.4,0 -0.82,-0.03 -1.23,-0.03 -0.18,0 -0.37,0.01 -0.55,0.01 -0.18,0 -0.37,0.02 -0.54,0.02 -0.07,0 -0.19,0 -0.19,-0.19 0,-0.12 0.09,-0.12 0.25,-0.12 0.56,0 0.57,-0.09 0.6,-0.34 l 0.79,-6.12 c 0.03,-0.2 0.07,-0.23 0.19,-0.23 0.17,0 0.2,0.05 0.28,0.18 z"
   inkscape:connector-curvature="0" />
<path
   id="path17275"
   style="fill:#000000;stroke-width:0"
   d="m 232.96,708.2 0.01,0.01 v 0.01 0 0.01 l 0.01,0.01 v 0.01 0.01 0 0.01 0.01 0 l 0.01,0.01 v 0 0.01 0 0.01 0 0 0.01 0 0 0.01 0 0 0 0.01 0 0 0 0 0 0 c 0,0.16 -0.12,0.23 -0.24,0.23 -0.16,0 -0.29,-0.14 -0.32,-0.27 -0.12,0.19 -0.35,0.4 -0.72,0.4 v -0.2 c 0.49,0 0.62,-0.52 0.62,-0.59 0,-0.01 0,-0.03 -0.02,-0.1 L 232,706.56 c -0.03,-0.11 -0.03,-0.12 -0.15,-0.26 -0.24,-0.29 -0.58,-0.47 -0.84,-0.47 -0.36,0 -0.53,0.3 -0.53,0.66 0,0.3 0.19,1.08 0.37,1.39 0.3,0.48 0.62,0.62 0.86,0.62 v 0.2 c -0.87,0 -1.79,-0.93 -1.79,-1.93 0,-0.72 0.49,-1.14 1.07,-1.14 0.32,0 0.62,0.16 0.87,0.38 l -0.15,-0.63 c -0.08,-0.29 -0.13,-0.48 -0.4,-0.72 -0.3,-0.25 -0.6,-0.25 -0.78,-0.25 -0.32,0 -0.41,0.02 -0.54,0.05 0.18,0.08 0.23,0.25 0.23,0.34 0,0.17 -0.14,0.26 -0.28,0.26 -0.19,0 -0.4,-0.16 -0.4,-0.42 0,-0.42 0.61,-0.43 1,-0.43 1.09,0 1.56,0.56 1.66,0.95 z"
   inkscape:connector-curvature="0" />
<path
   id="path17277"
   style="fill:#000000;stroke-width:0"
   d="m 236.4,708.25 -0.02,-0.01 h -0.02 l -0.01,-0.01 h -0.02 l -0.02,-0.01 -0.01,-0.01 -0.01,-0.01 h -0.02 l -0.01,-0.01 -0.01,-0.01 -0.02,-0.01 -0.01,-0.01 -0.01,-0.01 -0.01,-0.01 -0.01,-0.01 -0.01,-0.01 -0.01,-0.01 -0.01,-0.01 -0.01,-0.02 v -0.01 l -0.01,-0.01 -0.01,-0.01 v -0.01 l -0.01,-0.02 v -0.01 L 236.11,708 v -0.02 -0.01 l -0.01,-0.01 v -0.01 -0.02 -0.01 c 0,-0.16 0.14,-0.22 0.23,-0.22 0.07,0 0.34,0.04 0.34,0.39 0,0.45 -0.51,0.61 -0.93,0.61 -1.09,0 -1.29,-0.8 -1.29,-1.02 0,-0.26 0.15,-0.42 0.25,-0.51 0.18,-0.13 0.3,-0.16 0.79,-0.25 0.14,-0.02 0.59,-0.11 0.59,-0.45 0,-0.12 -0.08,-0.39 -0.37,-0.56 -0.27,-0.15 -0.61,-0.15 -0.7,-0.15 -0.28,0 -0.68,0.06 -0.84,0.29 0.23,0.03 0.39,0.2 0.39,0.4 0,0.17 -0.13,0.25 -0.28,0.25 -0.2,0 -0.4,-0.16 -0.4,-0.46 0,-0.42 0.45,-0.68 1.12,-0.68 1.29,0 1.53,0.88 1.53,1.15 0,0.64 -0.71,0.76 -0.97,0.81 -0.06,0.02 -0.24,0.04 -0.28,0.06 -0.26,0.05 -0.38,0.19 -0.38,0.35 0,0.16 0.12,0.34 0.28,0.44 0.19,0.12 0.43,0.13 0.55,0.13 0.15,0 0.51,-0.02 0.67,-0.25 z"
   inkscape:connector-curvature="0" />
<path
   id="path17279"
   style="fill:#000000;stroke-width:0"
   d="m 240.94,704.74 v 0.01 0 0 0.01 0 0 0.01 h -0.01 v 0 0.01 0 0.01 h -0.01 v 0.01 h -0.01 v 0.01 l -0.01,0.01 v 0 0.01 h -0.01 v 0.01 h -0.01 v 0 0.01 h -0.01 v 0.01 h -0.01 v 0.01 h -0.01 v 0.01 h -0.01 v 0.01 l -0.01,0.01 v 0 l -0.01,0.01 -0.01,0.01 v 0 l -0.01,0.01 -0.01,0.01 v 0 l -0.01,0.01 -0.01,0.01 c -1.25,1.25 -1.56,3.13 -1.56,4.65 0,1.73 0.37,3.46 1.6,4.7 0.13,0.12 0.13,0.14 0.13,0.17 0,0.07 -0.04,0.1 -0.1,0.1 -0.1,0 -1,-0.68 -1.59,-1.94 -0.5,-1.09 -0.62,-2.2 -0.62,-3.03 0,-0.78 0.11,-1.98 0.65,-3.1 0.6,-1.22 1.46,-1.87 1.56,-1.87 0.06,0 0.1,0.03 0.1,0.1 z"
   inkscape:connector-curvature="0" />
<path
   id="path17281"
   style="fill:#000000;stroke-width:0"
   d="m 243.57,711.1 h 0.94 c 0.19,0 0.29,0 0.29,0.2 0,0.11 -0.1,0.11 -0.28,0.11 h -0.87 c 0.36,1.41 0.41,1.61 0.41,1.67 0,0.16 -0.12,0.26 -0.29,0.26 -0.03,0 -0.31,-0.01 -0.4,-0.35 l -0.39,-1.58 h -0.94 c -0.2,0 -0.3,0 -0.3,-0.19 0,-0.12 0.08,-0.12 0.28,-0.12 h 0.88 c -0.72,-2.82 -0.76,-2.99 -0.76,-3.17 0,-0.54 0.38,-0.91 0.92,-0.91 1.02,0 1.58,1.45 1.58,1.53 0,0.1 -0.08,0.1 -0.12,0.1 -0.09,0 -0.09,-0.04 -0.14,-0.14 -0.43,-1.04 -0.96,-1.28 -1.3,-1.28 -0.21,0 -0.31,0.13 -0.31,0.46 0,0.24 0.02,0.31 0.06,0.48 z"
   inkscape:connector-curvature="0" />
<path
   id="path17283"
   style="fill:#000000;stroke-width:0"
   d="m 247.99,709.61 v 0.07 0.08 0.08 0.08 l -0.01,0.17 -0.01,0.17 -0.02,0.18 -0.02,0.19 -0.03,0.2 -0.03,0.2 -0.04,0.2 -0.05,0.21 -0.05,0.21 -0.06,0.21 -0.07,0.21 -0.08,0.21 -0.04,0.11 -0.05,0.11 -0.04,0.1 -0.05,0.11 c -0.6,1.22 -1.46,1.87 -1.56,1.87 -0.06,0 -0.1,-0.04 -0.1,-0.1 0,-0.03 0,-0.05 0.19,-0.23 0.98,-0.99 1.54,-2.57 1.54,-4.64 0,-1.7 -0.36,-3.45 -1.6,-4.7 -0.13,-0.12 -0.13,-0.14 -0.13,-0.17 0,-0.06 0.04,-0.1 0.1,-0.1 0.1,0 1,0.68 1.59,1.94 0.5,1.09 0.62,2.19 0.62,3.03 z"
   inkscape:connector-curvature="0" />
</g>  </g>
  <g
     inkscape:label="GND"
     transform="matrix(-0.49231796,0,0,-0.49231796,127.70734,102.808)"
     id="g17672"
     inkscape:export-xdpi="600"
     inkscape:export-ydpi="600">
    <g
       id="g17670"
       xml:space="preserve"
       stroke-miterlimit="10.433"
       font-style="normal"
       font-variant="normal"
       font-weight="normal"
       font-stretch="normal"
       font-size-adjust="none"
       letter-spacing="normal"
       word-spacing="normal"
       ns0:text=" $I_d(t)$"
       ns0:preamble="C:\\Program Files\\Inkscape\\share\\extensions/textextLib/CircuitSymbolsLatexPreamble.tex"
       transform="matrix(-0.739645,0,0,0.739645,242.55178,-451.86886)"
       style="font-style:normal;font-variant:normal;font-weight:normal;font-stretch:normal;letter-spacing:normal;word-spacing:normal;text-anchor:start;fill:none;fill-opacity:1;fill-rule:evenodd;stroke:#000000;stroke-linecap:butt;stroke-linejoin:miter;stroke-miterlimit:10.43299961;stroke-dasharray:none;stroke-dashoffset:0;stroke-opacity:1">
<path
   d="m 227.16,713.15 0.01,0.03 0.01,0.03 0.01,0.03 v 0.03 l 0.01,0.02 0.01,0.03 0.01,0.02 0.01,0.03 0.01,0.02 0.01,0.02 0.02,0.02 0.01,0.02 0.02,0.01 0.01,0.02 0.02,0.01 0.02,0.02 0.03,0.01 0.02,0.01 0.03,0.01 0.03,0.01 0.03,0.01 h 0.02 l 0.02,0.01 h 0.02 0.02 l 0.02,0.01 h 0.02 0.02 l 0.02,0.01 h 0.03 0.02 0.03 0.02 l 0.03,0.01 h 0.03 0.03 0.03 0.03 0.03 0.03 0.04 0.03 0.04 c 0.24,0 0.32,0 0.32,0.19 0,0.12 -0.11,0.12 -0.15,0.12 -0.29,0 -1.03,-0.03 -1.32,-0.03 -0.3,0 -1.02,0.03 -1.32,0.03 -0.07,0 -0.2,0 -0.2,-0.2 0,-0.11 0.09,-0.11 0.28,-0.11 0.42,0 0.68,0 0.68,-0.19 0,-0.05 0,-0.07 -0.02,-0.16 L 225,707.9 c -0.09,-0.37 -0.12,-0.47 -0.91,-0.47 -0.23,0 -0.32,0 -0.32,-0.2 0,-0.1 0.12,-0.1 0.15,-0.1 0.29,0 1.02,0.03 1.31,0.03 0.3,0 1.03,-0.03 1.33,-0.03 0.08,0 0.2,0 0.2,0.18 0,0.12 -0.08,0.12 -0.3,0.12 -0.18,0 -0.23,0 -0.42,0.02 -0.22,0.02 -0.25,0.06 -0.25,0.17 0,0.08 0.01,0.16 0.03,0.23 z"
   style="fill:#000000;stroke-width:0"
   id="path17660"
   inkscape:connector-curvature="0" />
<path
   d="m 231.8,710.25 v 0 0 h 0.01 v 0 0 0 0.01 0 0 0 0.01 0 0 0.01 0 l 0.01,0.01 v 0 0.01 0.01 0 0.01 0 0 l 0.01,0.01 v 0 0.01 0 0 0.01 0 0 0 0 0 0.01 0 0 0 0 0 0 c 0,0.03 -0.03,0.1 -0.11,0.1 -0.14,0 -0.72,-0.06 -0.9,-0.07 -0.05,-0.01 -0.15,-0.02 -0.15,-0.16 0,-0.1 0.1,-0.1 0.18,-0.1 0.34,0 0.34,-0.05 0.34,-0.1 0,-0.05 -0.01,-0.1 -0.03,-0.16 l -0.4,-1.58 c -0.14,0.23 -0.38,0.41 -0.72,0.41 v -0.2 c 0.49,0 0.62,-0.53 0.62,-0.6 0,-0.03 -0.01,-0.08 -0.02,-0.1 l -0.32,-1.3 c -0.05,-0.2 -0.21,-0.33 -0.36,-0.47 -0.06,-0.05 -0.34,-0.27 -0.64,-0.27 -0.26,0 -0.52,0.18 -0.52,0.67 0,0.37 0.21,1.13 0.37,1.41 0.32,0.56 0.68,0.66 0.87,0.66 v 0.2 c -0.89,0 -1.8,-0.98 -1.8,-1.98 0,-0.68 0.45,-1.16 1.05,-1.16 0.38,0 0.72,0.22 1,0.49 0.13,-0.42 0.53,-0.49 0.72,-0.49 0.25,0 0.42,0.15 0.55,0.37 0.15,0.27 0.24,0.67 0.24,0.7 0,0.09 -0.09,0.09 -0.11,0.09 -0.09,0 -0.1,-0.03 -0.15,-0.22 -0.08,-0.33 -0.22,-0.74 -0.51,-0.74 -0.18,0 -0.23,0.15 -0.23,0.34 0,0.13 0.01,0.19 0.03,0.28 z"
   style="fill:#000000;stroke-width:0"
   id="path17662"
   inkscape:connector-curvature="0" />
<path
   d="m 235.76,704.74 v 0.01 0 0 0.01 0 0 l -0.01,0.01 v 0 0 0.01 0 l -0.01,0.01 v 0 0.01 h -0.01 v 0.01 l -0.01,0.01 v 0 l -0.01,0.01 v 0 0.01 h -0.01 v 0 l -0.01,0.01 v 0 0.01 h -0.01 v 0.01 h -0.01 v 0.01 h -0.01 v 0.01 l -0.01,0.01 h -0.01 v 0.01 l -0.01,0.01 h -0.01 v 0.01 l -0.01,0.01 h -0.01 v 0.01 l -0.01,0.01 c -1.25,1.25 -1.57,3.13 -1.57,4.65 0,1.73 0.38,3.46 1.61,4.7 0.13,0.12 0.13,0.14 0.13,0.17 0,0.07 -0.04,0.1 -0.1,0.1 -0.1,0 -1,-0.68 -1.59,-1.94 -0.51,-1.09 -0.63,-2.2 -0.63,-3.03 0,-0.78 0.11,-1.98 0.66,-3.1 0.6,-1.22 1.46,-1.87 1.56,-1.87 0.06,0 0.1,0.03 0.1,0.1 z"
   style="fill:#000000;stroke-width:0"
   id="path17664"
   inkscape:connector-curvature="0" />
<path
   d="m 238.38,711.1 h 0.94 c 0.2,0 0.3,0 0.3,0.2 0,0.11 -0.1,0.11 -0.28,0.11 h -0.88 c 0.36,1.41 0.41,1.61 0.41,1.67 0,0.16 -0.12,0.26 -0.28,0.26 -0.04,0 -0.31,-0.01 -0.4,-0.35 l -0.39,-1.58 h -0.94 c -0.2,0 -0.3,0 -0.3,-0.19 0,-0.12 0.08,-0.12 0.28,-0.12 h 0.88 c -0.72,-2.82 -0.76,-2.99 -0.76,-3.17 0,-0.54 0.38,-0.91 0.92,-0.91 1.01,0 1.58,1.45 1.58,1.53 0,0.1 -0.08,0.1 -0.12,0.1 -0.09,0 -0.1,-0.04 -0.15,-0.14 -0.43,-1.04 -0.95,-1.28 -1.29,-1.28 -0.21,0 -0.31,0.13 -0.31,0.46 0,0.24 0.02,0.31 0.06,0.48 z"
   style="fill:#000000;stroke-width:0"
   id="path17666"
   inkscape:connector-curvature="0" />
<path
   d="m 242.81,709.61 v 0.07 0.08 0.08 0.08 l -0.01,0.17 -0.01,0.17 -0.02,0.18 -0.02,0.19 -0.03,0.2 -0.03,0.2 -0.04,0.2 -0.05,0.21 -0.05,0.21 -0.06,0.21 -0.07,0.21 -0.08,0.21 -0.04,0.11 -0.05,0.11 -0.05,0.1 -0.05,0.11 c -0.6,1.22 -1.45,1.87 -1.55,1.87 -0.06,0 -0.1,-0.04 -0.1,-0.1 0,-0.03 0,-0.05 0.19,-0.23 0.97,-0.99 1.54,-2.57 1.54,-4.64 0,-1.7 -0.37,-3.45 -1.6,-4.7 -0.13,-0.12 -0.13,-0.14 -0.13,-0.17 0,-0.06 0.04,-0.1 0.1,-0.1 0.1,0 0.99,0.68 1.58,1.94 0.51,1.09 0.63,2.19 0.63,3.03 z"
   style="fill:#000000;stroke-width:0"
   id="path17668"
   inkscape:connector-curvature="0" />
</g>  </g>
  <g
     id="g18078"
     transform="matrix(-0.4614818,0,0,-0.4614818,67.45238,82.98382)"
     inkscape:label="GND"
     inkscape:export-xdpi="600"
     inkscape:export-ydpi="600">
    <g
       transform="matrix(-0.739645,0,0,0.739645,244.55252,-451.86886)"
       ns0:preamble="C:\\Program Files\\Inkscape\\share\\extensions/textextLib/CircuitSymbolsLatexPreamble.tex"
       ns0:text=" $V_{ds}(t)$"
       word-spacing="normal"
       letter-spacing="normal"
       font-size-adjust="none"
       font-stretch="normal"
       font-weight="normal"
       font-variant="normal"
       font-style="normal"
       stroke-miterlimit="10.433"
       xml:space="preserve"
       id="g18076"
       style="font-style:normal;font-variant:normal;font-weight:normal;font-stretch:normal;letter-spacing:normal;word-spacing:normal;text-anchor:start;fill:none;fill-opacity:1;fill-rule:evenodd;stroke:#000000;stroke-linecap:butt;stroke-linejoin:miter;stroke-miterlimit:10.43299961;stroke-dasharray:none;stroke-dashoffset:0;stroke-opacity:1">
<path
   id="path18064"
   style="fill:#000000;stroke-width:0"
   d="m 229.7,712.78 0.04,0.07 0.05,0.06 0.04,0.07 0.04,0.05 0.05,0.06 0.04,0.05 0.05,0.05 0.04,0.04 0.04,0.04 0.04,0.04 0.04,0.03 0.05,0.03 0.04,0.03 0.04,0.03 0.04,0.02 0.04,0.02 0.04,0.02 0.04,0.02 0.04,0.01 0.03,0.02 0.04,0.01 0.04,0.01 0.04,0.01 h 0.03 l 0.04,0.01 h 0.04 l 0.07,0.01 0.07,0.01 h 0.07 c 0.12,0.01 0.13,0.18 0.13,0.19 0,0.08 -0.05,0.12 -0.13,0.12 -0.26,0 -0.55,-0.03 -0.82,-0.03 -0.33,0 -0.66,0.03 -0.98,0.03 -0.06,0 -0.19,0 -0.19,-0.19 0,-0.11 0.09,-0.12 0.16,-0.12 0.26,-0.02 0.46,-0.12 0.46,-0.33 0,-0.14 -0.15,-0.36 -0.15,-0.37 l -3.07,-4.85 -0.67,5.25 c 0,0.17 0.22,0.3 0.68,0.3 0.14,0 0.25,0 0.25,0.2 0,0.09 -0.08,0.11 -0.14,0.11 -0.4,0 -0.82,-0.03 -1.23,-0.03 -0.18,0 -0.37,0.01 -0.55,0.01 -0.18,0 -0.37,0.02 -0.54,0.02 -0.07,0 -0.19,0 -0.19,-0.19 0,-0.12 0.09,-0.12 0.25,-0.12 0.56,0 0.57,-0.09 0.6,-0.34 l 0.79,-6.12 c 0.03,-0.2 0.07,-0.23 0.19,-0.23 0.17,0 0.2,0.05 0.28,0.18 z"
   inkscape:connector-curvature="0" />
<path
   id="path18066"
   style="fill:#000000;stroke-width:0"
   d="m 233.24,710.25 v 0 0 0 0 0 0 0.01 0 0 0 0.01 0 0 l 0.01,0.01 v 0 0.01 0 0.01 0.01 0 0.01 h 0.01 v 0 0.01 0 0.01 0 0 0.01 0 0 0 0 0 0.01 0 0 0 0 0 0 c 0,0.03 -0.02,0.1 -0.11,0.1 -0.14,0 -0.72,-0.06 -0.89,-0.07 -0.06,-0.01 -0.16,-0.02 -0.16,-0.16 0,-0.1 0.1,-0.1 0.19,-0.1 0.33,0 0.33,-0.05 0.33,-0.1 0,-0.05 -0.01,-0.1 -0.03,-0.16 l -0.39,-1.58 c -0.15,0.23 -0.39,0.41 -0.73,0.41 v -0.2 c 0.49,0 0.63,-0.53 0.63,-0.6 0,-0.03 -0.02,-0.08 -0.02,-0.1 l -0.33,-1.3 c -0.05,-0.2 -0.21,-0.33 -0.36,-0.47 -0.06,-0.05 -0.34,-0.27 -0.64,-0.27 -0.26,0 -0.51,0.18 -0.51,0.67 0,0.37 0.2,1.13 0.36,1.41 0.32,0.56 0.68,0.66 0.87,0.66 v 0.2 c -0.89,0 -1.8,-0.98 -1.8,-1.98 0,-0.68 0.46,-1.16 1.06,-1.16 0.37,0 0.71,0.22 0.99,0.49 0.13,-0.42 0.54,-0.49 0.72,-0.49 0.25,0 0.43,0.15 0.55,0.37 0.16,0.27 0.25,0.67 0.25,0.7 0,0.09 -0.09,0.09 -0.11,0.09 -0.1,0 -0.11,-0.03 -0.16,-0.22 -0.08,-0.33 -0.22,-0.74 -0.51,-0.74 -0.18,0 -0.23,0.15 -0.23,0.34 0,0.13 0.01,0.19 0.03,0.28 z"
   inkscape:connector-curvature="0" />
<path
   id="path18068"
   style="fill:#000000;stroke-width:0"
   d="m 236.4,708.25 -0.01,-0.01 h -0.02 l -0.01,-0.01 h -0.02 l -0.02,-0.01 -0.01,-0.01 -0.01,-0.01 h -0.02 l -0.01,-0.01 -0.01,-0.01 -0.02,-0.01 -0.01,-0.01 -0.01,-0.01 -0.01,-0.01 -0.01,-0.01 -0.01,-0.01 -0.01,-0.01 -0.01,-0.01 -0.01,-0.02 v -0.01 l -0.01,-0.01 -0.01,-0.01 v -0.01 l -0.01,-0.02 v -0.01 L 236.12,708 v -0.02 -0.01 l -0.01,-0.01 v -0.01 -0.02 -0.01 c 0,-0.16 0.14,-0.22 0.23,-0.22 0.07,0 0.34,0.04 0.34,0.39 0,0.45 -0.51,0.61 -0.93,0.61 -1.09,0 -1.29,-0.8 -1.29,-1.02 0,-0.26 0.15,-0.42 0.25,-0.51 0.18,-0.13 0.3,-0.16 0.79,-0.25 0.14,-0.02 0.59,-0.11 0.59,-0.45 0,-0.12 -0.08,-0.39 -0.37,-0.56 -0.27,-0.15 -0.62,-0.15 -0.7,-0.15 -0.28,0 -0.68,0.06 -0.84,0.29 0.23,0.03 0.39,0.2 0.39,0.4 0,0.17 -0.13,0.25 -0.28,0.25 -0.2,0 -0.4,-0.16 -0.4,-0.46 0,-0.42 0.45,-0.68 1.12,-0.68 1.29,0 1.53,0.88 1.53,1.15 0,0.64 -0.71,0.76 -0.97,0.81 -0.06,0.02 -0.23,0.04 -0.28,0.06 -0.26,0.05 -0.38,0.19 -0.38,0.35 0,0.16 0.12,0.34 0.28,0.44 0.19,0.12 0.43,0.13 0.55,0.13 0.15,0 0.51,-0.02 0.66,-0.25 z"
   inkscape:connector-curvature="0" />
<path
   id="path18070"
   style="fill:#000000;stroke-width:0"
   d="m 240.95,704.74 v 0.01 0 0 0.01 0 0 0.01 h -0.01 v 0 0.01 0 0.01 h -0.01 v 0.01 h -0.01 v 0.01 l -0.01,0.01 v 0 0.01 h -0.01 v 0.01 h -0.01 v 0 0.01 h -0.01 v 0.01 h -0.01 v 0.01 h -0.01 v 0.01 h -0.01 v 0.01 l -0.01,0.01 v 0 l -0.01,0.01 -0.01,0.01 v 0 l -0.01,0.01 -0.01,0.01 v 0 l -0.01,0.01 -0.01,0.01 c -1.25,1.25 -1.57,3.13 -1.57,4.65 0,1.73 0.38,3.46 1.61,4.7 0.13,0.12 0.13,0.14 0.13,0.17 0,0.07 -0.04,0.1 -0.1,0.1 -0.1,0 -1,-0.68 -1.59,-1.94 -0.5,-1.09 -0.62,-2.2 -0.62,-3.03 0,-0.78 0.11,-1.98 0.65,-3.1 0.6,-1.22 1.46,-1.87 1.56,-1.87 0.06,0 0.1,0.03 0.1,0.1 z"
   inkscape:connector-curvature="0" />
<path
   id="path18072"
   style="fill:#000000;stroke-width:0"
   d="m 243.58,711.1 h 0.94 c 0.19,0 0.3,0 0.3,0.2 0,0.11 -0.11,0.11 -0.28,0.11 h -0.88 c 0.36,1.41 0.41,1.61 0.41,1.67 0,0.16 -0.12,0.26 -0.29,0.26 -0.03,0 -0.31,-0.01 -0.4,-0.35 l -0.39,-1.58 h -0.94 c -0.2,0 -0.3,0 -0.3,-0.19 0,-0.12 0.08,-0.12 0.28,-0.12 h 0.88 c -0.72,-2.82 -0.76,-2.99 -0.76,-3.17 0,-0.54 0.38,-0.91 0.92,-0.91 1.02,0 1.58,1.45 1.58,1.53 0,0.1 -0.08,0.1 -0.11,0.1 -0.09,0 -0.1,-0.04 -0.15,-0.14 -0.43,-1.04 -0.96,-1.28 -1.3,-1.28 -0.21,0 -0.31,0.13 -0.31,0.46 0,0.24 0.02,0.31 0.06,0.48 z"
   inkscape:connector-curvature="0" />
<path
   id="path18074"
   style="fill:#000000;stroke-width:0"
   d="m 248,709.61 v 0.07 0.08 0.08 0.08 l -0.01,0.17 -0.01,0.17 -0.02,0.18 -0.02,0.19 -0.03,0.2 -0.03,0.2 -0.04,0.2 -0.05,0.21 -0.05,0.21 -0.06,0.21 -0.07,0.21 -0.08,0.21 -0.04,0.11 -0.05,0.11 -0.04,0.1 -0.05,0.11 c -0.6,1.22 -1.46,1.87 -1.56,1.87 -0.06,0 -0.1,-0.04 -0.1,-0.1 0,-0.03 0,-0.05 0.19,-0.23 0.98,-0.99 1.55,-2.57 1.55,-4.64 0,-1.7 -0.37,-3.45 -1.61,-4.7 -0.13,-0.12 -0.13,-0.14 -0.13,-0.17 0,-0.06 0.04,-0.1 0.1,-0.1 0.1,0 1,0.68 1.59,1.94 0.5,1.09 0.62,2.19 0.62,3.03 z"
   inkscape:connector-curvature="0" />
</g>  </g>
</svg>
